<mxfile host="65bd71144e">
    <diagram id="pM34cOYXDkpWS2k7rQSV" name="Page-1">
        <mxGraphModel dx="810" dy="612" grid="1" gridSize="10" guides="1" tooltips="1" connect="1" arrows="1" fold="1" page="1" pageScale="1" pageWidth="850" pageHeight="1100" math="0" shadow="0">
            <root>
                <mxCell id="0"/>
                <mxCell id="1" parent="0"/>
                <mxCell id="27" value="" style="rounded=0;whiteSpace=wrap;html=1;fillColor=#1ba1e2;strokeColor=#006EAF;shadow=1;movable=1;resizable=1;rotatable=1;deletable=1;editable=1;connectable=1;fontColor=#ffffff;" parent="1" vertex="1">
                    <mxGeometry x="191" y="140" width="461" height="70" as="geometry"/>
                </mxCell>
                <mxCell id="2" value="" style="verticalLabelPosition=bottom;verticalAlign=top;html=1;shadow=0;dashed=0;strokeWidth=1;shape=mxgraph.android.phone2;strokeColor=#c0c0c0;" parent="1" vertex="1">
                    <mxGeometry x="170" y="20" width="500" height="1000" as="geometry"/>
                </mxCell>
                <mxCell id="11" value="" style="verticalLabelPosition=bottom;verticalAlign=top;html=1;shape=mxgraph.basic.patternFillRect;fillStyle=diagRev;step=5;fillStrokeWidth=0.2;fillStrokeColor=#dddddd;" parent="1" vertex="1">
                    <mxGeometry x="210" y="290" width="120" height="60" as="geometry"/>
                </mxCell>
                <mxCell id="12" value="" style="verticalLabelPosition=bottom;verticalAlign=top;html=1;shape=mxgraph.basic.patternFillRect;fillStyle=diagRev;step=5;fillStrokeWidth=0.2;fillStrokeColor=#dddddd;" parent="1" vertex="1">
                    <mxGeometry x="210" y="290" width="120" height="60" as="geometry"/>
                </mxCell>
                <mxCell id="13" value="" style="verticalLabelPosition=bottom;verticalAlign=top;html=1;shape=mxgraph.basic.patternFillRect;fillStyle=diag;step=5;fillStrokeWidth=0.2;fillStrokeColor=#dddddd;" parent="1" vertex="1">
                    <mxGeometry x="210" y="290" width="120" height="60" as="geometry"/>
                </mxCell>
                <mxCell id="14" value="" style="verticalLabelPosition=bottom;verticalAlign=top;html=1;shape=mxgraph.basic.rect;fillColor2=none;strokeWidth=1;size=20;indent=5;movable=1;resizable=1;rotatable=1;deletable=1;editable=1;connectable=1;strokeColor=#666666;fillColor=#f5f5f5;fontColor=#333333;" parent="1" vertex="1">
                    <mxGeometry x="190" y="210" width="462" height="720" as="geometry"/>
                </mxCell>
                <mxCell id="1IeDb5znmRSKNsiSBcxb-24" value="" style="strokeWidth=1;html=1;shadow=0;dashed=0;shape=mxgraph.android.statusBar;align=center;fillColor=#000000;strokeColor=#ffffff;fontColor=#ffffff;fontSize=10;sketch=0;fontFamily=Tahoma;movable=0;resizable=0;rotatable=0;deletable=0;editable=0;connectable=0;" parent="1" vertex="1">
                    <mxGeometry x="191" y="110" width="459" height="30" as="geometry"/>
                </mxCell>
                <mxCell id="AMFxu56TiPVlmdi-GPnY-25" value="&lt;font style=&quot;font-size: 19px; font-weight: normal;&quot;&gt;&lt;br&gt;&lt;/font&gt;" style="text;html=1;strokeColor=none;fillColor=none;align=center;verticalAlign=middle;whiteSpace=wrap;rounded=0;fontFamily=Tahoma;fontStyle=1;fontSize=26;" parent="1" vertex="1">
                    <mxGeometry x="455" y="670" width="150" height="50" as="geometry"/>
                </mxCell>
                <mxCell id="15" value="" style="group" parent="1" vertex="1" connectable="0">
                    <mxGeometry x="171" y="130" width="559" height="620" as="geometry"/>
                </mxCell>
                <mxCell id="16" value="+62 895 6671 2321" style="text;html=1;strokeColor=none;fillColor=none;align=center;verticalAlign=middle;whiteSpace=wrap;rounded=0;shadow=0;comic=1;sketch=0;fontFamily=Tahoma;fontSize=12;fontColor=#999999;" parent="15" vertex="1">
                    <mxGeometry x="86" y="41.94" width="110" height="25.53" as="geometry"/>
                </mxCell>
                <mxCell id="17" value="" style="group" parent="15" vertex="1" connectable="0">
                    <mxGeometry width="559" height="620" as="geometry"/>
                </mxCell>
                <mxCell id="18" value="" style="ellipse;whiteSpace=wrap;html=1;aspect=fixed;shadow=0;comic=1;sketch=0;strokeColor=#b46504;fontFamily=Tahoma;fontSize=26;fillColor=#fad7ac;" parent="17" vertex="1">
                    <mxGeometry x="32.741523257795194" y="19.46808510638298" width="48.278529980657645" height="48.278529980657645" as="geometry"/>
                </mxCell>
                <mxCell id="19" value="" style="shape=image;verticalLabelPosition=bottom;labelBackgroundColor=default;verticalAlign=top;aspect=fixed;imageAspect=0;image=data:image/png,iVBORw0KGgoAAAANSUhEUgAAAPsAAADJCAYAAADlwEQAAAAACXBIWXMAAAsTAAALEwEAmpwYAAAb0UlEQVR4nO2df4xWVXrH7wwOzKrDRFR+VBAqLeCP/WNhV60KYdONF/X9w8YImCYG5I9NgbYkDbAb2zKzQ7eJmrRbbLoNoEYigostBPNOzFa7adpOpJsaWJ1tl1XiKIIR13U1qzMw72m+9N7N9fre+5577znnOefc548nMO+999znPM/zOefc8zMItzQCFrYBx0DDexuQK8DCNuAYaDDsHARcEPgYA0KIrrSoSicvbfKMs7ANfIoBkQOuLJyyhUDyukxa5MZhYRv4EAOiBMhVQM8qWLLSYNgtCBIWP2wgDMOed0/WNaOGiP9fRHEWtkFZ6KggFQaAtwL2qk2TdulxoWAX8NQA1E3CgsAbgz0vMFQFlkzQUQPhs1AHf50kLOCH9O/p+50LriKBR613HcVUoOt6p7BIyrKRlQZ5cJTNUFFnp++nzlNdRDfoKt4lLJOy+e7EC3kwFHWiCidT58dXyQo400HvqoSaeSEPkDIOlHUwte6+ia0gUEMqLAA8yx7J370NMGq9fRJqIHyU0JCvkte8DbJ2aVHnx0WhhsI3CQ36K33NuyCLn6XW3yehBqRKHKgAUEjcSw15O13Sv9cioKjz5quUAauK7zr5st39KuNC5DznQiySB4zOQKE2bp1F1heu+Evk5MeVeCyVWd1GZNjpg5ulIQV6mRiuJey6Qc/TlbqUZfG3dSJ8gl2FwiZAV+UcHbpwYaMfVB1xGSqKJd15b/cO72F3RXQ6v25S1qaiYGFtq7+Vw15VYWq4bBJqOHwT20EXhibVpK9VNkZVheoo1DCwNMjj0UnYiyhPDZlrjmPRbwPhUcx0eodyo9hoWNudxGLeBsLTGDIKe1ZmqCFlcLlQCS2IRZMFWCnYVWTIpkKBa9L6gi88BV2GMaUGkk3DhEOog4rFPhsITyE3DrvM8yqdkvUcdUCx2GWDqnAKR2CXebcSg1E7lIVtoAJyIfFpWTR96kKNYWc4vCogdde+wuIavZN+DLsFAcpiB+RCMei2FXYMO8PmRWGjE/LQEdCVw14kQRa2AXWAqwJTOAC6LJv4vzLDMuQMuS0BrjpGheXxbxx26gyz5PvMRvt0Ck5Vohso4RPsssanDh6WfF9R20clwBQVkLA09jvpFf9fK+w2GKKOYnOh7CLkYQf9bfe3UdhtMAjL5/3iQnDaBnpoqSiFvSrodXSAS2IaHoa9QWJPbcHAsPsXOC6AXseKRZiCXfYZaoPUTcqCYAImBr1hxNcMe00dXbQlpgL6Tvdwrd5g2KkBsk1MNGVVNZ0pAK9761FQ1+zp56gN4qJUga3os1lpuSTU/gotj5PKick8R20MF4UanLzCwEah9lfoQKxUTkzmOWpj2CJFA9YmgGwuZKj9GtYFdja2OmcUDXJbYFP9To6/BsPuc6mrCwQdsOt8dxk7FvVBWNMYq5wYdUZdEdM1pAkIdRQoRe1Y1eZhjWKrcmLUGXVFTIBoCnKV+UqnUcaWKvQKaxBblROjzqgLImM7lcDoArtqsKnSQeY5hl2ohZ0aIhekis1UQqS7Ziubrkq7VLVbaEG8WA2764aywQmmJa0fVX5ttGtoQdzoskmlhJLXVSvsqpFNBKTKYFZpc1NQMewNGth1Bgs1yKqCzvT7ir5fhc6mQDcBfWhBbOmwhVVB7YLRKQNI1zt1FBamQGLgG2phl03Md9ipaxAq2PPSM20D23wjDBRoqvJfKbHk77oUpjCc7kAqE2S2pmsaLltgFwbyRAK7qUzZYDQbQaiL2OSvUNE7bIpVJ2C3zWg2iy95ofZhqDBNW+LWGdhNGI46wFUHadb1dvdT663a37rtKAzkofaw6zIedVCrkFar1SOE6BdCdCd+78bvk5OTl7ZarSsnJia+MjIy8tDzhw795ZHDh7ccO3bsGxcuXJiL69T6q4ZGxbsEgd6ksHdKjAI4hv3z9picnJw2MjJy786hoX8fbjYfHBkZWTncbN578MCBh/7ub7/32OaNm/7l5qXLzgRBcD4Igta0SPD/ebPnnMM9Fy5cmN9qtS7REeB513XBQ104CR9hL5uh9LMmjUjg9CkRSN265nMD1gjmT7uC4BP8Oy0IPptxWd/kNTNniQVz54mF8xd8QfB7VxBcuGXZV19/5+23f7/Vak3VHdjR/Rdtocv3BD7uqgXsJZ1NYkTDzp4CCIebzS07h4Z+gKbz2NjYyjfeeGNpLKffeeem8fHx32nTBC9kAzw73GyGU4PgXDuoO0lUIIyOj4/fWtUn0d+XI1/IXzK/p06duv3I4cObdw4N7RtuNlfj86JovmXiwLCfu1THKcPuGOz4Ht45NPQcatwZl/XFTefzlwbB+alBMAGZ3tM7fsOixb967JFH/wH3V4Rsys6hob+6uv+KC2WAh15o0pdtzsd6tFqtmY898uh3kS/kL84r0kf+YQfYA62P7wwO/iPuVwkUNeCCYVfrEN0lYVVBx9jju3YNokndCbKoKf0JgBdC9FWArOeeVat+NG/2nMKgQ+bNntO6OwyPCyF6y/oEzwL0riD4OOvTISm4DwUM+h1UxQM14KIOsJfJIJURdTv59dde/13UXLKgAYxLu6f8Cs3esnYAMEEQ/LIM6LEEQfBR2d556PDe2bPXIB8yoCeBf/2115dWac7H76eCWtQV9qIZNW1A3Q4GdDcvXfZG0Rp2ek+vKFrLJfOFzrWg5De7CtghaM0gH0VbFOggjL7fu3ySsEMcegO7bGY8g70XAY/v0lTN3ZKp3a/uv+IXRTqtUrD3LJy/4GSRWjX9/oXzF7xTthmPb++r+6/4TOb9C+bOm0z+DXvBbpOTkzOoARUGgWfYNRtOp2PR2x4EwVgykOfOmn3+nlWrTmIYTKJmbT315FP3F6nlErBfcted4YsVvtkF9Czz/Yx373t6359C/07vgR3QN4AaPZX306dOnboXHY3UgAqGXU+pRlFK6nAoarYH1qx9BnAna8ur+vpfO3vmzMLBHQMPB0HwJobHIPimR2/19J7eySAIJiD4fn3h6NHbijSl4zzhme3btn2/bG/81f1XiG1bt+4v00kYD/2hozEe50/mDb/hWx4F4eCOge/CHmjFJFsBsNva1WuOjI+P/zY1oMIh4J1qxhd5h2kjFdFruNlspDvIZlzWN/HYI49+Owbi7bGx6RhTP3/+/BzMdNu7e8+fPLn3ie0vHD36wInjJ5YfPHBga1HY4lp9cMfA0cd37XpFpgWRUeNOPL5r1w8Gdwz8VFKH7uTkGOgA/V/971fvx0w+1PR7d+/5C/wNgNFEHxsbmxV9JnTDLnhnqnb/5XCz+VDVzjrbJGTYaWFXCfz4+PiUhfMXvJn+XkVNjckkOTPrehKz6yCXlwkk1Oorl68Y27Bu/Ucy/QMZ39EtPL/i9jsmKnw79yM/kWC+fm88bp+2++jo6JeDIDjTpm/jzapj77ZJWAfYZTNKZTRFzpyCWqpdL3T/1C+9n9csVaUXgMIEFTSby4AeC/KAFkKV4TdZwSSi6T29P2+jwyTG6ssUfDZLyLC7DzvGltPfn0nYMWVWNj9lgwj/7n9m/y2YD18FdvSKH3j22W9GtbLWgManTDvY41GJ986erTz2bqOEttbspjJms6E6QNa3eeOmXVmdYuiIO/Puu4uy8qEyeF5+6aWZ+GyoAjs601599dUvl4WsiO3fHhtbcEkQnM3oLLyweeOmvWWnENssoa2wqwBC5Xtsgh2ChR1BEPxPDjwfjYyMLDMRPKiNb166rFnhm11gcouJJjxkZGTk+rwZf4mhOC9q91Bx7FoFuw7FbYE9erZ/7erVh5JDbW2+P8cxbm4qYLGuveyUWQyPYXMLHavQ0rbG33+/6/G7MRyXpc//D8WtPuT6zLpQE+ROw05huCr5Qm9yp4Uu0dDbJlMTRTC3visITpSBHU1qTAoyBAGG3jalh97a1O7nfnLiJ79HDawwxIDKGE5eZ9grdohtWLf+n7AOXAL2b5uAHXqhM/Da37rm5aJTZnH/3Fmzf4atqwzC/oVx9rRcM3PWJOxcZVMN4THoSmE3lVkqA5bNGyaHYIcXyYkq39TdjI/zgybv3WH4bHoqaifB/VgeG22kYQQG2KUT7FHt/ik68/JsqCpmhYSdqWLVWdjLOogY9u54TPtb27c/hemlnQIVQ2GHDh26Rzc4Cdh7MHOtaK889Hxy7xM7ox1ztOuKf2EXmaFC2Plb27c/lqebrhgWDDsN7BSlYzvBcBCavDJNZXSW6e6NT9sH+l0zc9aPZZvy6L1HfqJa3UgLBAK7yG7ukdCvq52OOist0aagoo5Xq2p2mXRtgr1AXqdg7jaG1CSCdBKdZZh0g2ejIS3UTv3R9s4XJ66oCsZEProxVj69p7ejjhDch3n5qnaXTUl3nO9oCm5fPDcedsGwpcxQITrqsPYg79vdFOwhwagRGeyyL/EU9j6ZlWXoWEJHWbSCDVs9X49FL5jSun3btn/+84cf/t5zzz23BjvatAvgsjriHhQiO4eGVmMjjE56Yv05pqZ+Z2BwIDE9tW3tXtR2yBfWBWCf+sEdAy9u37btGP7F5wIWAaF/ASvlrrt2/olOHZ3QEzbLmzNvEvbQ0BbrtYSdwmjp3+Le7puXLvthhzXjH2/euOnPMKNtcMfAqr4pU3+K5irG3AFfLNEGjB9hIgt2Wo2/SdEMxxAatmrC8B5m4CHI43XmeX5By+P48eMNDKNhw0csasmqOdE8xvUbFy/5NWpOPJc3TTZhp8uhI6azYlgMesY64j5Mg8WOutitB51ryCe+u2PB/HvM1IOOgzsGtgH4zRs3Pbtg7ryJvA7EW7/6tX8TQiyigD1MpFGEEadgz4KgLrCnZXJyMnccG033Fbff8a8rl6/AbjWfAepO3864juDfsG79bgCP1Wvo6YdgMwhcu+2WW99HDRwtkc20EQqjaAOLi4DLvDuG6e4w/A/AlOcTvB8bY0KfhH4XdVy5fMUIWj4b1q3fj99k3g34YaeVy1f8GGnmNemxF0DeVtemYBcSLNgCe/z/ShBUBdMV2NN/v/XWW7cg6HKCGEGO2rTjkFJaZlzW92sMm6G5P+Oyvg+TaQJG1JI3Ll5yHLPkULuimZxYHotx/H6AJjOclfH+iWhM+8ro0+Li4RbR/y/HcVE3Ll7yv9gOOj20B93RPL/rzvBwmfcD8k7f7pg+mzfpRyfsIiNeGfYSsHcqoWwoJSH4Bs2bC19V8K2PGhZN6+Tv+Bvfu3t37/kbHLCA737sSY9927BKDfvFo9kuMxyYJ3j+hkWLz6BvAUN4SD963zEcL7V3954fYnOLGxcv+VxfAP6+Z9Wq9zp9e1cRrH3HqTVlYkRogj2r8vOqZq8KZ9Z9NgGf/n/cTL6yr7/wDLWCtdwX1qTfvHQZfp9ArRl9818EE7vSYP23zOdCgffH39aTOMwh+b2N90E/6NPuOY02ubi9V9YMvypQiBKwt4sNqpiV0b0y7Fkvch32PEGzFocm4rsdtbCu4Gb5fGsHn07RdlVf2C5LJRSiAOxFOHESdpkX+Qx7pGP36OjoVehQw6ot9C6X3dGVpb0NYE/YFSMY6Ic4efLktemRAh1QiAqwd2KFYc8wFpXhigg6rrBL6t7dex5ExxSGktDM1tmc9VlgN3wmYDgSIwrYiBMdou0OvSxZSHfpBJ1hL1mzy9xri0Q6T8FiDazkwkENGFumhscliebIv4nhxWjMvuN4P8PekC7ESpWI7QDU0YynBrhsICFIMakEG1ag95hr+c61OdYPYLgx2qvv4mk0WUFMAboo0YyniD3nYO90zWZJ2aEbs8vQc48xaIa+bZN9Aj3s2FcehaQugIQC0GsHexaQqmF3TXKMfPFQiMEdA+twhhpmlU0NgotDWBiPRicUgj4t+B3XXSkgoKdMfpBv5D86IupjnAzz7unT1+WBbgoGoRB2i+JPDeydXlbFKBSlo2Zjo3OpH3PIcfILFp08sGbt91fcfseRm5Zc//LC+QtegWB23E1Lrh+5/777DuIYJCwQKTsbzpSg1QI9cewV9otDHm5YtBgzDN+B4G/MaUd+MFHnyOHDW0ZHR7+OJnu0Gu43J8pQgSAqwl62YLAW9qIvUwG7Z8BnFQLdOE0mPkUlsX0V/r0c+7RV3R5al0AvbBoZnfqCDrU4Hz2Jk26mRPKbo6Jiv5rwr4laXfgEe5mXyTwjkx41xDqCqlNeAce+p/d9ZXDHwB9jdVm0MWNyrjy5QB/ohdoZnyn7nt63qugJLjb5RFTQ0VbYk9e0vlDmfpm0KMDVHVRZzyf/xnJTnHgKwfJXrCgrux+8aolW9h3BWn2MiUPHuJONGvAqfhEldaaO1056k8Kedw+14agCKp1n1Oj4nsfqMixM2bBu/bt5+9ObFOixYd36/8QKOOiHfgYs/bUFclW+CS2otavkM3ld68tk7i1zvS6w4/sWO9lgzThq9BsWLbaiVo+khVVu0As961h11+mIZ9d8E0qCZIM4C7urUiaQ2j2XvIbvYdTqtjTf2zTnUat/2Ol4Zxd8InL0tSlPRfKZvEfry2TuozaSKcOXvR//f/7557+OTSuowW4n0CvaJjvzAAzbfCEKgu5C7BqFXTbIbSz9VeRXp5PQnEdnmG3LaaEPtt/SMYddNwTCIh115jN5j9GX+mZwFXmQtQdWfmHTSltm1EEP6IMTbG31Z11AD22D3UeD66zZ29TuvQcPHMBe9ecsab6fQ6dcu6Odqf0iG4uhBTrqzmvyHuMG9sXYqvJSxEZoLmOaLbaKogQdG0pgTnvWGe7Uvulk39ACvWoBO7VRdOTTpM0wvIXv5KKHNqoSLGhZuXzFf+X1vlP7pq4iTMJuAnRbgklHYMvaDyfIYJ081Vx4HFpRhwI9dEysgV31O6iMqVMP2U8ffL9v27r1r3EckknQsXvttq1b92dNnqEOdpZGQA67jnf46lgZ4CE4dml6T+8JU73zce97tGd74XPgWBokMeQF7L4GV0ZN/oU8o3MM55V3OrRRZa2OwyxxUgw33xvkcVKGEa2BqgNIn2GXbcbH92IDCJljo1V9q0dHOls7gYal4Qbssvf6HGCyTXjc++mnnwL2q+66M3xF9371SB/vwS47Zc9GZ2n4DXvRZxl2edijDSO+tu/pfXtwPJNO2JE+znzDGD92zWXYG1YXXk7DLtOs9UWy8pb+Hc3p/c/svwVryrHcVHMzvrVh3fqXsDV23k401LZjaTDsPsKOf9GsNjV9Fn0D2Bbb1tVtLI2OMWR9zV6k08oXaZendvnFsVP9U7/0vgnYp/f0foRTWurkh9BRsRr2Tvcz8O0d2Gq1ZgJ23WPt0WEOH0antWiBnQuLhv+wy95fp9q9XZO9XX6xD/3V/Vf8wgTseA/2xIve363KD777MrQgfmKxCvYqtbuvDsrKu62wF/GPz/4MLYwlq5rxZQPDhwCRhT35O06Mxbe0Ld/sDHuDPI4YdsdhT96T3le+Kwg+MTmDrkytzjV7gySW0r+TBG2Z53yv2YvaB8cqPbn3ie3Te3rHDdXs4zhSOT5OWQXwdfZnaCBW0r8rSTjLeVXTKxIYvgdIOo/YPAIHKZrahBInsD6wZu2LiR75St/tdfZlaChW0r8rSTjLgSrSLBIcvgZJu7zFS1xNgJ6o3X8+Nja2UkXNXldfhgbjJf27koSzHKgizSKBYXOAVNEx/Vx8UsxUw5tP4n1HDh/enLcYRrVQ+y10UJyF3YcAqapn+n7sFHN3GD5r+tw3vO+eVat+lLemnUFvWBNrxmDXkaZrwKvSM33v2NjYLMyJN30kFMbbLwmCsydPnryWYW+Qx1eneDMCu440XQRelZ7tVrwdPHDgD3DCK45fQueZTsiRfhAEEzipFXvXy/TIu+670EFxDvY2TVZnvvl06Jj33OTk5LThZjNcu3rNkek9vWMYC0fvfNUZdXge6UwLgs+Q7v333XdwuNn8erS8tfBUWdv9FnoiDLvloFeBPRLA1/vBBx/MeeHo0ds2b9w0OHfW7J+hJsZRytOCoDU1CNC5htq5lZb42rTobxwPPW/2nHObN27ahQMbMUsvPgzCpH2owQkdFWdq9naKVq3ZTQUOIexpwXrzvndPn75uZGRk5XCz+YcvHD36R+hFx7+jo6P3jo+P34rZd9HvW3BtuNl88NixY9/AlFiM4Uc97hdrcdP2oQYmdFichV0F6KYCSKd+NuTPlH2o9QwdF+Owl3GaSrApAslm3WwQtkPDuJ3T15Ql3s6hJmGhBstGnWwRtkODxNbpa0oSz3KqSVio4bJNH5uE7dAgsXX6mpLEZV6kGxYbILNFD1uEbdAgtXn6mrEX6QTFJug5wMvZgrpgCj0R47CbgMRW6Dm4y/mTGpLQE2HYDULPQc2ghwy7/bW6CujrXntRtKZYGu7U7NRAqwzIOgezqQKVpSHlA4ZdI/x1D2KGvVEP2HU1fV0WasfbDnnd7BQa9kX6mhZHmw4WW6VuwcV2avgPe6eXMOz0QWAj5HUqFEMC36R/1+J8ysCxSXwPJrZfw2ofKYddRZBTQ8mg2+0ranBCT8QK2H0CntqhJoTt2nBStDjelQBiuBn40AIIawe7a8BTO84GYZs3nBItDncpgBh0t3xFDUzosCiHXYVSKh3NQaYveLiwbdQXdp+CklpnV8SH2l3UJBaUGsqXwKTW0zWxFXhXCpvQkCh1NHVmWOhsYBPstugRWiYMuwVO8EVsAcx0weMK9ModTJ0hFnobUENFAbtwIP6VO5c6Qyx22YAKIkrghaUsaHEodaZYaOBVnb4OHUWNgdcSANSZYqmHDahBFo4Br9zo1BliqbcNqMEWDDt9ELDUwwbUYAvFwKusQJUbmNrZLPW1ATXQQgPwKrlSbmRqh7PUzwbUEAtNwKvmSrmxqR3P4r8NqIEVhsC3DnYVTRUWtkGdIBeSzHgDe3wvFxAMet3gFhLA66hEldSqRZQqUrKx+GkDarCEg+Ik7Cz1swE1KD5IaAvsWQ6lDjIWhpwaUlEX2HWBzwWKGwUZNSA+SWgL7KaVLqKD6jSpAXIpD9SA+CShAn+QOLVomrYGVrv3U8NtE+wMvKgP7FWCregz1CUvJVCytlHlY4ZdOBlPRoKpTCZcBt024Mvqoyp/1H7wQUKbYC/rcFUBatqIeenYBLoJ2KjfXwcJbYE9z7lVIWaxH3YZf7OI+sHOYs4GDJgfhUyoKB6UBVVesDHgNIUcdZCyCL9gZ6Dtbq0wcO4XOqFtsDP09GAz+PRgCp9hT4NPHdAs5f1GHdQsQmvFyXBwAcGQCzsLGoad4eQmvQUgCoadm9EuFEbUQeyIdKfEeeDJA4+lPKSugG1hYdVNXIAw7Ax+8QAngl150Gbdn342R5csybqnq0K+ZcS6gpIBc6B1UTYgiGqvQgGsqNApAl23LIw22bFTfDDsHoJNIFprLsVgF6nduyrqYBXwDLsF8LoqOgPRggKsy0Vh2C0Ag8UvGwiFgOkuZIvoSG5YFrYBx0DDiA3Y0Awbx8CWetiAXAEWtgHHQMOIDf4PIkAKCBAjLpsAAAAASUVORK5CYII=;" parent="17" vertex="1">
                    <mxGeometry x="3.75" y="2.45" width="106.25500967117988" height="85.0909090909091" as="geometry"/>
                </mxCell>
                <mxCell id="21" value="bintangsng31@gmail.com" style="text;html=1;strokeColor=none;fillColor=none;align=center;verticalAlign=middle;whiteSpace=wrap;rounded=0;shadow=0;comic=1;sketch=0;fontFamily=Tahoma;fontSize=16;fontColor=#FFFFFF;fontStyle=1" parent="17" vertex="1">
                    <mxGeometry x="119" y="18.47" width="150" height="30" as="geometry"/>
                </mxCell>
                <mxCell id="22" value="" style="group" parent="17" vertex="1" connectable="0">
                    <mxGeometry width="559" height="620" as="geometry"/>
                </mxCell>
                <mxCell id="23" value="+62 895 6671 2321" style="text;html=1;strokeColor=none;fillColor=none;align=center;verticalAlign=middle;whiteSpace=wrap;rounded=0;shadow=0;comic=1;sketch=0;fontFamily=Tahoma;fontSize=12;fontColor=#999999;" parent="22" vertex="1">
                    <mxGeometry x="86" y="41.94" width="110" height="25.53" as="geometry"/>
                </mxCell>
                <mxCell id="24" value="" style="group" parent="22" vertex="1" connectable="0">
                    <mxGeometry width="559" height="620" as="geometry"/>
                </mxCell>
                <mxCell id="25" value="" style="ellipse;whiteSpace=wrap;html=1;aspect=fixed;shadow=0;comic=1;sketch=0;fontFamily=Tahoma;fontSize=26;" parent="24" vertex="1">
                    <mxGeometry x="32.741523257795194" y="19.46808510638298" width="48.278529980657645" height="48.278529980657645" as="geometry"/>
                </mxCell>
                <mxCell id="32" value="" style="shape=image;verticalLabelPosition=bottom;labelBackgroundColor=default;verticalAlign=top;aspect=fixed;imageAspect=0;image=data:image/png,iVBORw0KGgoAAAANSUhEUgAAAOAAAADhCAYAAADRcblEAAAACXBIWXMAAAsTAAALEwEAmpwYAAAgAElEQVR4nO1de2wc1b2eJtChV4iqlFLV0FhCVftHSyhIlLY09KF7u1eNpbZ/RCmi4pYWWij30lC1tbxsdvfGdslDIjzcJiHhQtwA8VVISzAkUdQEmnj32OsldmJn7ST4EV+vkxCvYxs7ZvF6r76zM85m68fMembOOTPnj09+7OzMmXPOd87v/J6Kb1WZIiH7QM6BMiZ9IDtekk/OgVXs+kB2viSgnAOrJAHlJJALgeLFPmDeAAnZBz4P9wHzBkjIPvB5uA+YN0BC9oHPw33AvAESsg98Hu4D5g2QkH3g83AfMG+AhOwDn4f7gHkDJGQf+DzcB8wbICH7wOfhPmDeAAnZBz4P9wHzBkjIPvB5uA+YN0BC9oHPw33AvAESsg98Hu4D5g2QkH3g83AfMG+AhLE+yGazHzMC2Z9lQs0p5g2QmJlomans4rF05pp43+j1b58auvnl+NkvvdQ4cFvNkf6vrT/Ytww/9d+3RAe+g5/4/NDpoc8d7h7+JL479mHm47jP6MTkIknQMi7nGvMGeAkgAUgxns585uxo+paj/R/c/lYidfdLJPmjivruquXb2g+Vboj3KCFyXilvuKhURMYUf2RC8UfSSiCaMQxcj+/h+7hPmCSX/qm1aWVtoq68vnv1ay3n/+2N9sHbT5wb/yLaMjj20SdHJzJXs+4fnwfBvAFeIV1qfPKze9ouLF/1Zs8z39xy/B+lG+IJpTp2TgmTISUQHVeCZFIJkyklTLKAuqbRUmj3naLPCZJhkHxxVdN7d2w8Gvneiyf2oF2kd+Qb2HFBRinOlkkCikg2KvJ9mPmX1PjkDZuiye8/tuvU9u9uOd6thMmEEohmleBlgtlBNLOknCYn2uWPZD6/vnkEO3HFG12/fSV+7pbU2EfX430gxrLuX58LwbwBbgBIhx2uvn3wx08e6A0vfa5lv1IRSSqBaFonHGuymdwpc4TEzhwgya9vaTuwuaH/l60DY1+BuIr3Zd3nPpeAeQNEBibi26cvLoH4dtO65iTd5XKiJHMiWU7KEMFiMowz6rqDfY/vPnbhE8OXJqXWdZUkoLPnuXTmmraBsWXV+3v/cM/mY830PBWcJtwUa7I4sjsGohl1TeMAzo41R5KPQpmEfmG9IPoEBPMGiAIoJqA9fPDVzl1UvHThTlckGdNKiHT95rXTT5Oe4ZIPPsxcxXqsfAKBeQN4BrSXAyPpUqzySnVsSAmSjJdJNycZtTNj6YZ44wsk+QOciaXipkwSsBjiYeLARla5r+cpai7AKi+JZ5yMgeg4zBtYuCQRy+QOaIZ40PLBKK4pHZjvLoITMQtb51OH+u6HKUPaFsukCDqbNhMqdko8f/SUFDUtJmMgml5U2dQK7SnsipKIZfIMmH/Ow8SgLmBBMsl653AzIFV89ZmWDiiz5PmwzLtKGKzAEDXhGnbHxqPvQFRiPTk9ArjaTSlPREdW1ia2w/XN6+YLT5IP4iZsWJqjMutJ6UlQIlZEkqt2n17nZbGUeQOcRGr8o2vhn6muaUxJ4nFCxCDJQPyHNILjAOs5Igloo1lhxfbENurfKHc93nbDrOKPDMKYj3Hy0m7IvAFOaDj/3ND/CxofJ4nH+26YhdkCsYpeISHzBtgFDODxgbElv9rZuVEJkjFJPoF2wyAZq9zX80cEC7OeR5KARXYCHITv2Hg0jjMG60klUQQRA9E04hLhX+rm3ZB5A+xQtMAXEWcKueu5QCQNkTOIs3RrDKLryHfvjo6NsDNJ8rnJpY0kEf4FdzbWc0wScIZOgIgCW9KtNa2t0n/TpSQMksmfvdq5CQ4UrEljJZg3wAryQXVduiH+d0k+lxMxSCaR7gMZ5dxyLhSefMiXqa5pfB+eFawniIQjJMyWboi3xvpGv8B6/nmagDCuw6kXh3Q58b0nkpZuiCfgSyq6UzfzBhS788FYi8O5VLZ4l4RKmJwECVnPR08REDlH1h/s+6HUdLInAQ9QAiSJxVhUMwXzBpgBxI3N0eQKpFqXOx/7yc8LFlc1vfdm++C3RVTMCEU+amBH7QPp08l80nOYt7QLroeikZB5A4wAnUrJFyJdknzsJzynmFJCJAEXRJFIKAT5Xm+78GVaxITDna8glbu7kVfXgkcoYZItWRsjh7uGb2E9b11DQESvQ9vF4WDT1ApKkMRvf/roLsQaIrob5b/89d3l+UChE/3n6je7/2v1m92P5P2cRvCtngd1+Ou771+zr+e+8N6eFYXA//G5ds0DuD7vnkagP9PodY88Unfy93Dzu+3Zlj3YaTQlGHe2VyVMpuCUIUokBfMGzAX4/mFF42mgtd0udcfGo0+jKCa89ZE1O78Ipt0VbI1Wy11oewqvxTvC3xY7DN4dfcBjgLMSJBksiqhQxXoOC0tAdB717eRkcDXiDcMVCmW7CgnHur9YAH0AT6R7Nh/bRWtkcDJWqua29sCrnU/yniqfeQNmAnKD0KgGTtIEUnEzRLog+mEHcJp4PNeFR4Uk9AlEYxwVOCPhKMRznr1lmDdgpskG8QZlljkhHwYyvi+RutGpiQ+j8jtdw9fu60hdh+duiSSXYNcFsOPo0P8H4BrUh8f1O5rPfRrfRQkx7ABOkRRtuqqyqYMXp3gFY/dEdASGetbzWggCYqJQ/85AdJyTAcyUrI0dwJnHiUmMsyS8fEo3xP+q+CPtNEs33O2g8KDFMinSMwI5b/B5TjGUot8LkQQUEkgN70T+TfTRWydSd5Wsjb3LDQmDJLu4sulw28DYjaznN/cEhCGVDh4HYgzETpBP3/nsJ9/kop3NZ++j5haLJu+0icQfGcS9nRDF0FdYsLATsh5DNW8hxTkVCxzrOc4tAdE5S2ta/8LNyhkiXTVH+r/mlPgGtTlWajsWH9wT5gOnslCjz55v6P8JzmCsx1HV+yAQzfzu9a6HeMs9ygn5JhehPoNWeZX9YAVJ9rFdpx51csXE7g+x05b3CZMsdqTD3cOORZOD7NBC8qJIU3OL6pm6+NllrOc7dwTEuYEXB2u0Ac69UII4qWWkBAyRhF3vpFTHzrzz3sVPOTmuUAAtrmyK8TCuqgaMLU+5ZZg3ABo/2NZ4MbZDmYHdz2kVf8/gxE127oB0UXGYgAD6ElWRWI+rqvdFkGQf2tkZ4kUUZfpwTHCkI+elOtG0qKZpPZ0kIZJKKVWxg7acAYMke+tzLe+wWPnr2wfvVNc0DvC0Cyr+yCBqhPi8TkB4rkNtznpA8gn4rS3HX9CruTpJwulwq1zEB8p4ZS1DiHTBvMPCaA/lEurG80RAdU0j/EUbeRBFmT0YIgB1YeJE9KQEDJIsHJyhfGHhaQISvtQ4cNuiqtgeLfpjgpbKBvC7GeTS8Q9Bs7q9ceAuVi5ZeO7DOzs38aLdVi+PNU1zyDqSnslDMakhAuC8xdWg+CNZTFYMCis3LzwTk1b3gnn79MUlgO7l0tA1fAN+Avjf26eGbqbXnBq6GX/jc5z14A0DrScPti9qkuDkmKHmj3d5w0UoAFm68zF5KLwSblrXnORwQKbgTsWLn6VbQOM5/ZEMd+MdJlOwj7IURR1/IFZkqnjhTCTRCZivgGE9cd0C7My8+PaqhWMeiI7D4YJV37AJsK2IcLf76QSEOLdQAuK7EGNzcYJXAuIlkPt8clE+8L98zPd54TX5cXuFsDpW0AwgDvN23FDzULI21o6IDk8QcGVtoo4nxUshAfVyWMVOQCiX3kqk7n7m7b4/Vu3reW0mrK7v3lGxp2tr5b6ep/Lwx3w8eaA3XLWvpwJFSQD8nv83AO8hRK5X7+99BJHxCJcqwAP4DNfhu7hnwXPynz/dDlyL70MhBPIsVIGDMynPBFSCJAN7JQuFjKMPg3jH9UCUN0xBXCpmF0iNT3625kjy0Xs2H2umWkh/JDNnbhW2OWQyBq9BtHsSNkRUGS42zQP3BAyT7KLKptaBkXSpawkI8WtlbWI7Z/agOXdAowRExZ6VtYm/8ZiewaoJioj35dvadyJTgVnpgHcCqrld8BIkBtcSEGIZYtS4HoQiCAgfzq8+09LBo5rdhkmKmgx/R3Ui1xEwnEt171TEiOME1IzuGa4HwaQIivMesqF5qQw2iAQttpnYQtgjeScgfbcgmURqDSdTWDjyEEQWYIvnfgBMEhAaUy+WwsY7mwlUFoWAak4j+i7O864hIDRL9OzHod1vISIoVsmVtYm9XhA9/6mfgiQLNy6jEQUiEVAJRMehOXYNAWmYTZCkhOh82AFPDd1shICwGynVMVcqXYygZG3sPaN5VoQiYJhMQSPqlBhq683xEsgGzVNUtBlD/JwERPgQ52daGycpfr6PxdWIGCoSAVVNIwr3OeEJiF0CYR/CdLyJHRCrv8cJmNKrEc1HQuEIGM7l0HEigsTWmyOygJcUg4Y6XhKwKALONw8Q2SESAVVN0eREkRdblS+aV8iUSAQ0qoTBdXIHdDEBQySNgjp2u6fZ6wEfJkIV0zTjCyoJ2JgymrCYErAiMsZ6fFWTwPHJbidtW24K2RnOwiKYHhZIQGF2d0v7KbeoDsf6Rr9gpK+oHViwHVDFezqQ1t6Wm8KQKZLypRgCUvOKJKAhAooogqqaSeJ7L57YY6cYastNSe/IbTjEikjAfE+YefN4SgK6nYBZpTo2ZKcYastNqe2Po1yQNhLQy2aI4RPnxr/oZgKqWqwgbIJ2ZUiwxfiuaT/F6+zyhknY9yQBDRFwFNkNXE/AMJlCin27oiQsv2G8b/R6ERyvZyNgfh1AuQNaQ0BNCZMW9V2VIInbFaxr6c0wEIgKF9VBGQREWj9JwPknpVcIqGpGebu0oZbeDIfV5dvaD4kofkoC2ncGFJ6AwVy0vB3nQEtvhkhpeMlLArKfNLZOSK8RMEymyra27bEjQsLSm9Hy0oKEHs3Y0eUNkzjDmrADSi2oNwiYRW1BOyoqWXozzftl0gsElNEQOU8YI/NCdAKqWioOO8qVW3YjNOybW47/Q1Tx0ywBoZb2akAu3hmlBRATaWRuaGYIsQkYJFmUuLY6RMmyG0E+FtH7pVgt6PClyY/9uu5kJS9ltR3tp0A0s2r36XVGC79o8YBiEzBMsigkixSUXBIQ8rGoxtZi7IB0ZU+kbsTZwEu7oJa+LwlJwejccAsBS2gKe2sTNllyE0xWpDFXAlGxO7m8YdJMano46T68s/NxUR0PiuqjQHQccXJmzkJuIKCaixHsMnrudZSAED9RU0D0/JggoNniLChttbI2sUr03d/QzuePZJAHFdmxzcwP1xAwQJJ18bPLuCMgFBI/3dFxRPTogGIIqJ8HUVmXiqMCa4Fnn3jRjBIi58vru1cXU/DTDUoYNaeIGUMfWKkJteQmOJgufbalV/SzULEEBKAdq28fvPPeHR1+WmI6QJK0VoReYjpILtGy0TNjNA9zXTOch1SRGJ4Fhc8exjtcXdlEVtYmqmHjLdYh2TUEDJOpr29pO8AdAeGoigFj3UEsCVi4I7YPjC+uOdx/XR6uLUD+Z/90ze5jFz4xF2qOJFWrQO9X8Fz8H++A4wXeZyHzww12QPWyQb5L94ixgoiWELBtYGyZiDk/7CKghDsJqGKOVESSeoS8FfNkwZMFDdjc0P9L0TWgVlbIlXA3AT/4MHOVVZWEFzxZsBqgGqzoGtCZEvNKIlmzmLiKgAGShIjODQFhgL+/rrNWtAxodpWolnA5AZ+IjmyJJJfgHMjFGRCaMYRqiK4BNZsTRsKjO2CIpKv39/og+XFBQBii79h49B1JQElKTxAwSCaRdEw/B3JDQFd0rtwBbdnZXUXAMJlaWZuo02MDmZ8BtQpIrXIHlDugVwi4fFv7IW4ICD8/kdNQzLYD2rETeBXQGrqIgNlba1pbrUpTuOAbvPPexU8p1bFzkoDsJzqvcBsBv/pMSweOXtwQELXiJAHZT3Re4SYCqrmqST1Wpau3jICuWN3y7ICsJ60LCTjhljPgTeuak1ZFxltCQCVMhlh3jCQge6J5hIBZHLmM5sORBDTTuXIHlARcIyIBXRCKJAkod0BVxB1QK8Yyypo8koDsRU0PiaBDZtNySAIa3AGlHVASUDVCQJ52QFTKcYsZQq8PyHrXcBPctgPexJ0WtDo25BYC6ol5WU9aN8FNBFQ1OyA3BKQp56pjZ9xGQElCSUB1tgzZz7b0ckNAuOSUrI0RSUD2Ow2vcNMOqIRJ9rtbjndz4wkDp9Sb1jXvZd0xcgfknoBptxCwbGtbCze+oAjLuP3po7vkDsh+ovMKtxHwl6927i0mQbFtBLxn8zHXEZD1pHUTXEXAIMlW1HdX6akJmRMQK8HK2sR2SUD2E51XuIyAmfUH+35oVbnqBd8AuTFWvdnzjFuyoskdUBJQnWuO+COZl+Nnv8RNVjQ0ZMOh/6twQ6HKhRAQh3JkCK+Ln30UeVKBnc1n7yO9I98YT2c+Y9WKaSfw3nCxaj4z8u94jycP9IZrjiQfRV2IE+fGv1hsFLirUlL4IxOwfVtlqrJk4DDR3JIZuxgCQgxHeTZ4SKAfsEpSBKLj6prG95FDhPSO3Mb72fJo/we3l21tI9SzyR/R32MCzvYwPlfu63mqGPW7qwhYERnT88FYAcsGDglLvUZAXId3p5WhAtG5KsoCQ0jhb5X9yEpgAXmBJH+glDdc1Ns747sEotk7Nh6NY6f3LAHLGy5apYCxjIAo2+sGdzSzBIQ3BCakkfOvTkKIdqwJV7iI1LcP/piWIzMwfnjXezYfazZjB9MIKPwRRc25oSW4K0+GswG8A7xEQFyDMxK+Y9aRl6fzIBYRJBkyM3YgE879RncCtxBQ0XKCckdATCgYJ0XXhJohIHaAz69vHjG76EAU29F87tO8nAe3Nw7chXTrxWQGM+oP6RoCBqLjOEZwR0A0qHp/7yNuIaCRdz4+MLakmJLc6COUs+ZlF3xs16ntZsdNW3SGY32jX/AUAUPk/FuJ1N1W9r9lN3olfu4W0TWhZgj4Rvvg7UUSMFOxp2sr7KesyQf8dEfHkWIWTpwZX2+78GUju4EbCKjkAnHPtA6MfYVLAmJCiV4l1wwBsfoXuwP+5rXTT1upSSsWIM+vdnb+T5GSy/DhruFbTNSIF5qAqqaA6RmcuIlLAmIwF1c1CZ2iHgTcl0jdaOR9cQZUqmPjps+AgWgG5y5eRFCU2jJ7BgTMRIXToG3BCaiESXZlbeJvVkVBWE5A4N4dHRtFPgfqFXKNvOvwpcmPPfBq55Oz2f/mGEha4pg18XSARCVrY+2mtKCBaPbX/3tytdH3oMcT0QkYiGbhA2r12Fk6mKJ7xGCSmNmdaDaAEEkYsp/hDBGIpv313eWsSVcouazZ1/OA0YBZvMdVlU0dRt3ScP/nG/p/YnahUjkDtNd2+AlbOpjwe4TrlahiKHbvX9edrDQqZmAw6uJnly2ubIpBuTLnvZ+IjoB8PHrC4Dz6u9e7HlIqIsl5F5EQSZjxhIHb1oOvdu4SWTJScyL3oJUuaLYQEI681DNEVAKGCVytIvDsMfrOICHOOGVb26qUMJnASo/JRqH9jvJtW6ID3+FJ9JxJpF5/sG8ZFUfz2j79e4ikl29r34naGWbOr3BEF71+pBImU1hE7Di3W76S3l/XWSvqaqdNkgGYGIp595caB24rr+9ejfhIeEygL9Yd7Hscux4vhncjsXtPHeq7/2evdm7COwAwm7zZPvjtYqLAYTeD/UxoAgai6c3R5Ao7xtDyAaQdLvCBG50NBUOxnY3vYaeDuGJVHXEWwIICwuVQ/Mq/avfpdfOJ5yrngGhutf3PNgJiwCAvi7ziYRdEwmHWJBAdtGxBdUzoyllKmMD+12jmWMKUgAA17hZhpOYFOPPAxGBVGWIvAhIA7GaiHkdUfS4ESRZO93YoYGwj4KZo8vsimyO0jk+9RJI/Yj2RRQTEbkTSK0EyyXoc1YXOgzCZsjOY2pYBODuavkXxR08JTsAsPHtgZuDBbUwkIIWFspoIa47KByJerPZ+sZ2A0Pp978UTe0QfAN0BF1pRUZUpTgJ9BCWcC3QAWTr+QZKFVtvOsbdtIBD5Lbr8r5NwUWVTK3ZCeSacfcyh8YXHCxRYbiCfqoUfoVydnYuWbTeGUb4YZ2VezwFKgCQr3uj6LY+eLDxoO6m5wQV5gdQrU9DvsXvRtXVg3GADyh8QJUwy8JTBbggnZi+fDfHuKFKJZE40KZULpB01f7wD0fSfG/p/YXfUiq2DBLclJUTOsO5My4kYJKmlz7XshxMzglJBRhzUsVpCXY3fzRJUN3rT709kroZIB+Ae+u/638WAOgekM9cUnmdmy2+J6+FGhh0fbdLfC/+DV0zwrZ4HsRjRtIUukHLUwjEOkfNWlaFmRkBMJPgPum2ApgcJeTOD5BI0Zbc+13IBial+/nJH0y9e6ez6/d/e60SC2/lWUEx+pLfAd/Lx85c7juFeM+BgMUDOHvxEQOl8SgW0GQ7XeAdEzMMPEhWB8I40D06I5HKGunBc1ctpQ8qdiNm09eYYaBqi5JLacLMSUQcclzVirqxN7DUSPQ2TDSb3Fc7PC0Nm1s8CUaQU3GVkZZ82pOeINjX9bi4lnXolAYeRRsNu8jlCQC1n6DnWneokIRH9YGSnAWha/yIi0otunz8yaNTBAO8geiSDWsT43fZsyx6nzE62P8BNXhFGzw5Qx883gPic5pUJkmGn24iAWnh3zHdGnU7a+0TUdPpFUaEESQqOBE6QzxECAhhoDLrog4hFBLkhaRbpHMZwBpzGavK+UVMFJAOouZHISgmSUQ35v+vPSGkYNgD9Hrn24KwG5Lcxd36jsX1GHIxxjn9s16lHsXNecZ985OpHCK/tVsIk+/UtbQecNDU58hAAh1qRd0FM8Ht3dPiR3wSJdWsO91+Hn5uOJD8L4P/AXCFIusYRgO2s5kj/11DqSr9fzeH+a+fBdTMB389vC7AlklySD7QNzwLwXPjrYgc2ImohWFd/RmE7ET+I/62sTawC+VmPk7qQMQ5E0+gfJ72eHCMgyluZTf7DCyCC5YoyZq7OJ9FsmK0PCq/Ta8wVi9m+b+S+uMaMls9Ie2haiyC5xHq81GLGOEyyMC05na3OsQfhxar29aCOoHADgzwoegq+hayOZsi1kO8WszgU+w6Fiyx8Z1mPmVrMOFdExuBg4ST5HCUgAEOwaGdBXWkBAs41+cxO8IWSgwX5Cp9b+BlEWmiARRpf9XLRnL3w7HE1AYHw3p4VWuFKcQbIHxnEuUkXQecjgdN9ygIzLUB0bINklPV4qWbHN0gy9e2Dd7IYO8cHDq5MiyubDou0SmptTSFREVTUCE9C2A1U9IU742zvjeswyMBbJ1J36b/n/68oJFJ364CL2FyYvlb7XuH/9XcxYqTf03ZhOdoNVzyIbugbZIUTkHxZJJ5ilamcycqJwRNRI0pV+GGCHCcDWOlRqNKItwsmNjKLUTNB7vvvW4DUDBg2gMLvTJs9aAlqA2IY1PQ57x2SVEKkC9m+4agu0qKqXvZiOtk2MGaoHIErCKirteESJWreGG3gJrAbGlk5tQq0YzxPUN2JAMmVjeyCSMEofLrBIJl0yueTKwICsIPRjNKCmiWg0TUycHBCEMWdC+LYrc+1vIMdYT4Swt5Zvb/3DyL7+SphcpKF4oULAmKAkQBWtORNIBK8SIxUBsI7IqWBSLFyUEigfJoxb56Prr21prVVRElGCZMJp43uXBFQH0BNITPFXWTDzJhCklZUUJpv4LA75oue9LuXkeUaIXIebTcyOVHODTuJkffiaJGZ/Pbzbc+yJh9zAgJvn764xGiFIVuJFySXkPsF9qCStbE6Dbu1vw+UrI0RpSp2cM2+nvuMiJ4IXoVXPSJB8N2StbE38u47E3bn/f5SHp4vxOfXx5/J+/ul+a6f5brCZ78x/Z7VsXNou9GAYngJYSEtWRt7F95OGt7NBwz01G+UMREVza47MJIuZT33uSAg8NiuUytZ5RPRM5+hUCX8GtsHxhfrblqFwLnHzIEd1+v3w89C5N97ps/nun4+mL2+8D3hNAFlmZH3xHXztztzNYq/sK6epfgjEyiUw8Puxw0BcZ5aWtP6FxYDA/U7yKc7UdthXLfKjcwJ5LfZinedabd0Mv5RvXKsJ//1hfYNPOXyYd4AHdh94HHi9O4HsRPPno8odr67VcQRwTOHlqtmYL5QcoHSB1hrPQvBvAH5k1CrV37e0YEJkS6E7/A+cd0CWq7a4bAlJacEGuIxwTLzBsyQh6TaSbW9rhGDXVI/Ay2EiEZFvMLrC79r9H5mxMq52mzlOOJ+eja2/LMljhrwHnJa660Eomks7ryRjzsC6iS8/emj8JLJOElCaO6QhAiVnR7e2bkJmcBW13fvMGLvA+CSBvuZ/n3gVzs7N6Lk9cM7O/0A6g4C2t+PP1J38vcAfjcC7Vr/TMB9H9rZGcpH3rMo8p7nR7sAVIFCO7X20rbjbx36NYj0R/Y2I32BPnts16nt6EPcE0CSKpqy3mGbqKKd+4opLupJAgINXcM3QOXv+Dkhlz1sksIfySzf1n7ISFlpaAFpSTYtNUNeZrLM9P1mRmaBMJMprZjvXX6HisjYiu2JbUYUGDDB0HQbgaj+/rlnMjj3lW6I/92u2n6uJSCwvXHgLlYVdvQzA/J6ztdOiDXUL1JglyzDfRIiaSP+r/gcURYsU1QoYTIFex+vOx/3BMTEpirrikiSxWRDYKkRYy1KF4sYhLoQrTEi3+frF+QeZVklSfFHT0HpwnoeC0tAnYT++u77nQ7g1QjYXhhqVHiIh7GaRnUI5Ou54L4JkgxE0fmM9BBDWRFQCUTT0LbyqHQRioB0kn+Y+XjZ1rYqJ+MHMWlQnFNf6WfTTiLBrdtFz1lIOAZvkrlEUUgGNNbQ6XNfiJyHZ5UI5BOCgJSE6cw18H90Mvck/BaheZxpkmFwtQREQ14QPWcT0ZEDZrZFU4uQdzRXqK6v9vYAAAUgSURBVBKIIrr9MZHqODJvgGl3NSdJ+ER0BHZJkA0iFaI3kFIDigjskF4kX+F5EOktcN5D/wCHu4ZvgYgKLbLD5Bu/d0fHRiNaa57AvAGmSfhsy58ctRGGyQTOg4gBBBCwKnokuJUkhHM1+kTvHy33q7OG9mDOmcLOWu6SgHnijVIde8XJQeY5to01WPeLEiST39py/AXMC9Zkcv0OqAPaSboTMvKql+CjD5RAdBxHBNHETuEJCGDFg4uRiNnVJCzZ+bLUxUxAsdMVBASgFKE7oeBFQSQaTe58JPkfOzsfYJnNTBJQ6wSsgBgMp2MJJZzvAwXnzPKGi4isF1nszAfzBlgF3W1NKkjcuTgouaRPJ1FqTRQju6cIiEFB/QaesqxJWEa+DJJGIQ2+m8jnKgLqQGAttUV5yD/TzVAC0QzO+UjuxHpuSQIa7ASEoFD/UZRVljY7cc97AZKEO6BIrmVmwbwBdpopcFiXXiviurltbxy4i6cMZpKARXQCfBMXVcX2SKO9IOQLkhRSkhzuHjaUCkR0MG+A3cChHanoqKkiV0qL+SSTmF3kXH+w74duFjk9R8B8IqIYR+mGeKPcDflaBJQguYRU+Dg2uE3LKQlY0AlYXREzpvgjjnvtS8xQ8DRI4rTehuAuZZKAJndDnDHu/HPrfyPblyQGC3EzmoGmGu6EXtv18sG8AazNFZuiye+Xboj/FYd/SURHiDeOwGrkbBl1gS+nJKAVSprxj679z7++V4ZMWjSHpVTUWE+8IMlcXdlE4K3kVXHTNwOYN4AnQAnwu9e7HsK5hIdadm4ALVAaJHFUQxY1aNZnI5g3gDdALEImZVqzENm5JRGL2/H8kQlkpQ7v7VkBM5CXz3m+OcC8ATwD/ofwpllc2RTTSk1LrencxJuiC1Z17Azseeg/SbwyScCFEhFnFuTBpKkRc+aLCSmeXiFmonZEEsqVPW0XlnvRnucrEswbIBIQBIoCk1DYwFeRFh/xYJKm6SRM/kimdEO8B+fmtoGxG2FjlcQrkwR0goyYbCjKglAZGoMYIAgGzrieeEEyhsUHKQiRH1Uv7c16cfQJCuYNcIMtEeXUoF6nhn2YMgLRcRbluGwiHHa6NERMpP+ri59dhjqBeG9JvDJJQJ6gV4bd0Xzu09Ciwr+REvKJ6Ah2Ry2tAr9k0wmHBSREupb+qbWpor676tDpoc/hvSThyiyfM8wnrVuByQoxlfQMl7xAkj+A/+kdG48+TcXVEDlDJzlDkfUKsoVJsmRt7F2EAaGy7uZocgVKs9F089JbRbFznjCfqF4CSnphQkM9j10SIVI0fUZ5w0X4pNIKu4FoWqsqqyciuiLr9ExZumf5bOqKCre4L+6P51RExko3xBP37ujwQ6mE9uh13OUuV+bonGA+Kb0MXWSF2h7ucG+fvrgE5o41+3oe8Nd3l6M+OwqO4OwFFT98VkvWxg7ApQu2SShDAPwOozc+x3Wok4CM0agRX72/95HnG/p/gvsiOFkvpCJFyjLm4y8JyDk5dYJC4QFxFiRFgRp4llCMT95AMfbR9fg/iIXroJnUdzO5o5UxH0tJQA46WkL2gU/ugHISyIWgjKs+YN4ACdkHPg/3AfMGSMg+8Hm4D5g3QEL2gc/DfcC8ARKyD3we7gPmDZCQfeDzcB8wb4CE7AOfh/uAeQMkZB/4PNwHzBsgIfvA5+E+YN4ACdkHPg/3AfMGSMg+8Hm4D5g3QEL2gc/DfcC8ARKyD3we7oP/B4CSw0EgUdflAAAAAElFTkSuQmCC;" parent="24" vertex="1">
                    <mxGeometry x="31.71" y="17.22" width="52.55" height="52.78" as="geometry"/>
                </mxCell>
                <mxCell id="34" value="" style="group" parent="24" vertex="1" connectable="0">
                    <mxGeometry x="99" y="210" width="460" height="410" as="geometry"/>
                </mxCell>
                <mxCell id="37" value="" style="group;rotation=0;" parent="34" vertex="1" connectable="0">
                    <mxGeometry x="-10" y="340" width="190" height="120" as="geometry"/>
                </mxCell>
                <mxCell id="1IeDb5znmRSKNsiSBcxb-20" value="" style="rounded=1;whiteSpace=wrap;html=1;direction=north;fillColor=#f0a30a;fontColor=#000000;strokeColor=#BD7000;" parent="37" vertex="1">
                    <mxGeometry width="135" height="120.00000000000001" as="geometry"/>
                </mxCell>
                <mxCell id="AMFxu56TiPVlmdi-GPnY-24" value="&lt;font style=&quot;font-size: 19px; font-weight: normal;&quot;&gt;Peta Lokasi&lt;br&gt;&lt;/font&gt;" style="text;html=1;strokeColor=none;fillColor=none;align=center;verticalAlign=middle;whiteSpace=wrap;rounded=0;fontFamily=Tahoma;fontStyle=1;fontSize=26;" parent="37" vertex="1">
                    <mxGeometry x="-21" y="84.71" width="178.75" height="35.29" as="geometry"/>
                </mxCell>
                <mxCell id="105" value="" style="shape=image;verticalLabelPosition=bottom;labelBackgroundColor=default;verticalAlign=top;aspect=fixed;imageAspect=0;image=data:image/png,iVBORw0KGgoAAAANSUhEUgAAACAAAAAgEAQAAACJ4248AAAAIGNIUk0AAHomAACAhAAA+gAAAIDoAAB1MAAA6mAAADqYAAAXcJy6UTwAAAACYktHRAAAqo0jMgAAAAlwSFlzAAAAYAAAAGAA8GtCzwAAAAd0SU1FB+cFCQkGACv23WkAAAM1SURBVFjDrVbfK7thFD/valvLipQUlqZsyo0L5sKlTCu59WMXhLjwH+xi/gLkkht3ioREcUVJxm7mR42NkSFShhapOZ/vxWN82553715z6q239z3n8/mc85znPA+RDgMsFqC3F5ifB05PwcmkeMJh8a2nB7BY9GDqIB8YAOJxaFo8DvT1/R0xm83A7Kw2cabNzRVcDcBgAJaX9ZOnbWkJMBgKEOD3/548bT5fLg5FvfQ2GylnZ0RqZby+JgoGxbvLRWSzyf3e3ogcDkW5vdWZ/eSkNCFOJoG+vv9LK5aqv1/8k8WMj+skVxTg6kqCxOD2dvU4jwdgzo6LxXQKsNvl67m6qh27tiavQnW1zF+lQysq5Ojr69ry19akn5WqKh0CiovlIM/P2gISCT2YBl0gqK3VFuB0yr8/PWnHpnlQUgJ8fmYvZDQKNhpV49hkAp+fZ8elUmCVqqqL2N+XN+L0tGy6AQYDeGZG3oCBgC5ykc3QkOpw460tsNsNtlrF43YD29vq03Bw8BcCTCZxzBZq0SjYbNYtQJS1tVU+WPI1ZnBb26/If0T85ihO2+xsQeRCQGkpcH+vP/nHR3BZWcEChIiuLv3Zd3f/CfmPiJWV/MnzGdl5kVZUgDs6vt+RSGiTv76Cxd0A6OwEVM4VVVI2GsEjI8DBwfcOYLdbAI6OagsYHRW+Hs9XM7DAGh7ONUW/yNvbgWg0GzQWA4qKxMVjZ0e98QIBMRGtVvl9IhJR3ZaiXKmUOvjEhPBzOoH392yHjw+gvl74qNymAIhzQSxrhoDLy9ylTaXATU3Cd2ws+7/fL6rocuVMBAD44iKj9Gaz9toCQCgkesRkAk5OfgDDYbDZDDYagcPDvKAyxzN4by8/EeKaDW5uFpl+fgItLaIyPl9+GLu7kiWoqQEeHrSD39/BDoeI8XoBr1cIcjjkvZFp9/eA3a6yC8rLgcVF7QPo6Aj8c8cD22zA8bFGzRm8sAAuL89jANXVAVNTYvvlqAQ2NoDNzdyZx2ICq65OxqVoi3E6iRobCQ0NpDgcRFVVRJWVRCYTUUkJEUD08kL08UF0d0d0c0OIREgJhQjBoGKIRHLh/wPNPHryH8mbfAAAACV0RVh0ZGF0ZTpjcmVhdGUAMjAyMy0wNS0wOVQwOTowNjowMCswMDowMFyeMnkAAAAldEVYdGRhdGU6bW9kaWZ5ADIwMjMtMDUtMDlUMDk6MDY6MDArMDA6MDAtw4rFAAAAKHRFWHRkYXRlOnRpbWVzdGFtcAAyMDIzLTA1LTA5VDA5OjA2OjAwKzAwOjAwetarGgAAAABJRU5ErkJggg==;" parent="37" vertex="1">
                    <mxGeometry x="38.370000000000005" y="20" width="60" height="60" as="geometry"/>
                </mxCell>
                <mxCell id="90" value="" style="group" parent="34" vertex="1" connectable="0">
                    <mxGeometry x="-10" y="20" width="130" height="120" as="geometry"/>
                </mxCell>
                <mxCell id="AMFxu56TiPVlmdi-GPnY-17" value="" style="rounded=1;whiteSpace=wrap;html=1;direction=north;fillColor=#1ba1e2;fontColor=#ffffff;strokeColor=#006EAF;" parent="90" vertex="1">
                    <mxGeometry width="130" height="120" as="geometry"/>
                </mxCell>
                <mxCell id="AMFxu56TiPVlmdi-GPnY-21" value="&lt;font style=&quot;font-size: 19px; font-weight: normal;&quot;&gt;Jadwal&lt;/font&gt;" style="text;html=1;strokeColor=none;fillColor=none;align=center;verticalAlign=middle;whiteSpace=wrap;rounded=0;fontFamily=Tahoma;fontStyle=1;fontSize=26;" parent="90" vertex="1">
                    <mxGeometry x="10.833333333333336" y="77.64705882352942" width="108.33333333333336" height="35.29411764705882" as="geometry"/>
                </mxCell>
                <mxCell id="70" value="" style="shape=image;verticalLabelPosition=bottom;labelBackgroundColor=default;verticalAlign=top;aspect=fixed;imageAspect=0;image=data:image/png,iVBORw0KGgoAAAANSUhEUgAAACAAAAAgCAYAAABzenr0AAAABHNCSVQICAgIfAhkiAAAAAlwSFlzAAAOxAAADsQBlSsOGwAAABl0RVh0U29mdHdhcmUAd3d3Lmlua3NjYXBlLm9yZ5vuPBoAAAK5SURBVFiF5ZY9iFVHGIaf73rVeAv/t0kK0ySCpWslSMSYQiQYrCTZiIql6dKZIjFKUgumclUU0kjAQgRJNrFQSSHYKSgoGH8K0bhRrtmV3SfF+W72eD336gm7q5AXDnNm3vm+9505c2YG+kDdoo6q3/Xr1yP224zdWje2nOSIBW78h9hrGXu8X79mV9A84ENgFTAArElqqfp9TQ/Ls1ydsU+Ai8D5iBivcvyxet2Zxy11S0c3UnwncBholDw9AlrAPGASGK05A4sy3zjQBhaXxwvsjogjqO+pY+nuT3WX2kpjR7P9Zk1xSrN5Iustdaf6MNvH1PebwBc5yglgU0T8XlfsVRARbeCoehU4n5pfNoDN2edMhXi7q6yDytjUOJ3VjajjOSX7uzOoK9Qf1PV11dV1GftuBfdNav7dBOZm+4A6WJFrOIOquH5oZ+wydVkXN5Dl/FCtmXha0Xh5l5lFeSc8mc9sYCuwrdvAlYiYFQPqys77a/8Eb64BdZ/6rHSI/KI2khtU75e4+53fVA31bIl7ph6obQDYyPNrZB3F4QQwyNRxS7539om3gA9KXDNzVaLZiwB2AJ9mwklgJCKeJHcMmA+8k/U72UZEPFU3pegcYAz4sadKaaq+7mNmWqF+1RF9cxfh/8ZAz0WorgU+Z8rkhYg4ntxCYC9T16xHwIGI+Cv5IYq/Borr14mIuNBLqHIRqpd8HpMpjLrHF7EnuZY60cVd7sr97yJspsOo8DYMLKT4lQDOAY/z/SxwCVia9YfZRkS01WGK6z0UV73DlaNPN/fSzKGenaYZ6sHUHEUdycptdcEsiC9Q/0jN31CHSt/qJ/NKPkPiLfVkSW975Gb0M7Ah+90FTlFsrxPTpD2HYtv+BHg7234FPuo4W2xx2s0WRtQl3dPTUD9LIw9mQPRO5h6ydAT8A9HPaeH1FHOJAAAAAElFTkSuQmCC;imageBorder=none;imageBackground=none;" parent="90" vertex="1">
                    <mxGeometry x="35" y="17.65" width="60" height="60" as="geometry"/>
                </mxCell>
                <mxCell id="64" value="" style="shape=image;verticalLabelPosition=bottom;labelBackgroundColor=default;verticalAlign=top;aspect=fixed;imageAspect=0;image=data:image/png,iVBORw0KGgoAAAANSUhEUgAAA+gAAAGRCAYAAAD2EZnEAAAACXBIWXMAAAsTAAALEwEAmpwYAAAgAElEQVR4nOzdCZzdVN3/8YP6uG+P+rjwPO6PjwqKS2kyrdXiCm6PiuIuiMiqLJ1kWpe/FtfHDQTBTtIWgSoiZZNFUVFkFQVUwJZJppRCoXRyZ7rvy0z+r5N7b5LbfWZu7jkn+bxfr/MSO8vNnJucm29y8jtCAAAAJZae0fWkoV7rgJpvvTfyrC/UPPuHNd++tOZbf6351pLIs9bWfDtuZ6v/TmtJzbNvT17Ls38Y+fZJtV77PXJb5DaxOwAAAAAASmtw7uT9B72u90eePaPm2fMi314Y+fZwuwN4W0K8bz8aefY1Nd/6XtRrHbl89sQD4/lHPFZ1HwIAAAAAMCqrZ0359+SuuG9/J/KsG2uevV516B538+z18m+JPOvb8m77qvNf90x2CwAAAACAVlb6E54R9VofiXzbr3n2gsizR5QH6uLvssu7//+q+XZv5NmHD51tPV31+wAAAAAAqKCBWQe/rObbp9Y86/rIs7eoDsyqW+RZ2yPPvivy7dMH59gT4ljsp/o9AgAAAACUkAyckT9pcuRZZ0W+9YjqQKx7izz74ci3fzzgTZxEWAcAAAAAjJsskCbvCtd8637VodfUFvn20si3zo58ewphHQAAAAAwqiJvg559XOMZa+UBt0wt8uxQVrJfPmvSc9klAQAAAAA7iWeKxwz4Xe+o+fZ8ninvSFDf0ljK7QiWcAMAAAAAyPXJn1bzrNNqnv2A6rvLFW6LZcG96NypT2WXBAAAAICKGZpt/VfNs78f+fZqDQIqrX5XfVXNt743OHfy/qr3DwAAAABAwZbPOvg1Nd/6eeTbWwnGel4YaDxicMFQr3UABwQAAAAAlMzgrINfGfn2LyPfHlYdQGn7GNR9ezjyrF/Ueu1XqN5/AAAAAADj9OjcSS+OfNuPfGsbwdjMiwONiyrzozld/80BAQAAAACGefS8Kf9R8+1eprKXbur7ucv8Cc9RvX8BAAAAAPYi9if8W1IRPCk4pj5U0goJ6qvkWur9Zx/2BA4IAAAAANBQso65Zy8gFFfjwkDk2aFcR131fgcAAAAAaFg+23ppzbN/pzow0hQFdd++VtYa4IAAAAAAAEXi+Uc8tubZ3TXf3kA4rvoFAmudfLQhnikewwEJAAAAAB004He9NvKtv6kPhjSd+iDyrX/U/K43cjACAAAAQAeKwEW+9S2qs6sPwzpXe498+/R45tTHcUACAAAAQGHPmlu3qQ6ANDP6IPLsO2q99is4GAEAAACgjWp+1+drnr1edeijmdYH1rrIs4/mYAQAAACAcXrknInPrnn2FeqDHs3wPrh09ZyuZ3FAAgAAAMAY1GZNekPNsx/QINzRStAHkW8vHertsjgYAQAAAGAUar3WMTXP2qQ61NHK1gfWxsifeBQHIwAAAADsRf/Zhz0h8q2z1Qc5Wpn7IPJtP55/wOM5IAEAAABgFwbnTt6ftc3Vh9cKtb9E5058PgcjAAAAAOQM+F2vlc8IaxDaaFXqA896cPnsiQdyMAIAAABAPZy/I/Lt1crDGq2SfRB51tqab7+bgxEAAABApdV863ORb29VHdJo1e6DyLe2DXgTT1B9PAAAAACAEpFvfVN1MKPRBy37gGfNZDgAAAAAUBlxLPaLPPtMwjHhWNN94Fy5j6o+TgAAAACgUDL41Dz7HA1CGI0+2MOUd9uPZ4rHMBwAAAAAKKV4/hGPrfn2BQRDLg6YsA9Evv3LeObUx6k+bgAAAACgrWTQqXnWZapDF40+GOU+cCkhHQAAAEBpyKnCkW9fRDgmHBu6D1wqZ3+oPo4AAAAAoB0F4TwNQhaNPhjHPmD9jMJxAAAAAIwW+dbZBEMuDpRhH5ArD6g+ngAAAABgTCLf/o7qUEWjD9oc0r/BcAAAAADAKLXZ9rGEY8JxGfeByLdPUn18AQAAAMA+qfn2uyPf2qY6SNHog0ICumdtH/S63s9wAAAAAEBrtVmT3lDzrXWEY8JxmfeByLPWRr3W61QfbwAAAACwS4NzJ+8f+fZS1eGJRh90KKQvW/HTg1/IcAAAAABAK0vP6HpSzbP/STgmHFdpH4h86+9y31d9/AEAAABAquZZ56sOSzT6QM0+YP2coQAAAACAFiLf+iLhmHBc5X1gwJt4gurjEAAAAEDFDXgTJ0WevUV1QKLRByr3gci3t0a+PUX18QgAAACgoqJzJz5fFsoiHBOO2Qdk0Tj74eWzJj1X9XEJAAAAoGLiWOwX+dZvCGaEc/aB3D7g2b+Tx4bq4xMAAABAhdQ86zSCGeGcfWBX092tL6o+PgEAAABUxPLZEw+s+dZGwhkBnX1gF/uAZ20amGMfpPo4BQAAAFBy/Wcf9oSaZ91DMCOcsw/sYR/w7AWsjw4AAACgUJFnnUUwI5yzD+xLZXfrDIYjAAAAAIWI/EmTI98eJpwR0NkH9mnpteGB2VYXwxEAAACAtornH/B4OW2XYEY4Zx8YzfroVp98LIThCAAAAEDbRL59OsGMcM4+MKZ94GsMRQAAAADaYtCf9Kqab20mnBHQ2QdGvw9Enr1lqNc6gOEIAAAAwLjEsdiv5tt/IZgRztkHxrMPWLfIY4nhCAAAAMCYRb3WkQQzwjn7wPj3gcHZXZ9iKAIAAAAwJtG5U58aedYywhkBnX1g/PtA5FuPLJ930FMYjgAAAACMWuRZ3yaYEc7ZB9q3D0Se/Q2GIgAAAACjsuKnB7+w5tsbCGcEdPaBdu4D1sZH5056McMRAAAAgH0WedYlBDPCOftA+/eByLd/yVAEAAAAYJ/U/K43Rp49QjjTM6APXfiueMsjd8TD66N43V/OSv993e1nJf+25eG/Jd+jejtpu53mPhLNnvh6hiMAAAAAexX59rWEK30DpgziqZHhePC8t8SD501N/rtJfo/q7aTtsQ9+zVAEAAAAYI8GvYkHc/dc73C59s/fyPL55rVxbc7kpMn/bpLfo3o7aXvug6HeLovhCAAAAMBu1XzrDwQrzcPlnMnx+r+eG28Kr41X/frz6b+vuurY5N/k12qzJ6nfTtoe+yDyrN8yFAEAAADYpZo38S2EKt2DZVc8dOGh8YpLPhqvvPyopK265sSkNf+//Jr8Hvm96reXtseQ7k+azHAEAAAAYCfcPdcnTA7OfXO86spj4rU3fjvecPe8ePOSm+Ltqx+K4+Ht8T4b3p78jPzZDf+cl/yuVVd+Lvndqv8+WjOgW79hKAIAAADQYvmsg1/Ds+cqA/mUeNU1X4g3/H1uvPXRf8Qj27dkz5lvWRdvXX5PvHHh5fG6W34Qr77OiVdeeXRyt3zN76fHI1vWJ98j/zu5i37l0cn3rLvl+8nPbF1+dzyyJXs+Xf5u+Rob7poTr7rmpLg2ZwqBWdH7Lo+55bMnHshwBAAAACBV8+0LuKvZ+YCWPDd+35W5Am8j8bYV98cbF1war/njV+MVF31gr79jy8N/Tdrevm/oog/Ea67/SrxxwfzkNZpV30c2r0m2QW4L+4CCkO7bcxmKAAAAACQG507eP/LsLYSzzoUyuU755iU3Nqaib4u3PHRrvOZPXx/T+uVbHr49aaP9ucEL3pm8pnxtuQ2SnA7PGuqdDunW5po/4QUMRwAAAABEzbO/SzjvXCCT65ZvGwzqgXjxn+KheYeN6/eNNaC3XDCYd1iyLZLcNrmN7BOd2yci3/4OQxEAAABQcUvP6HpS5FsrCWOdC2Pr7+hNnwUf/Nlbx/372hHQkwsHP3trPLJtc7JtchvZJzoY0D1rhTwWVY8HAAAAABSK/IlHEcQ627avWpKE4C0P3tKW39eugJ78rgdvTrZt+6oHCegd3i8GPPvTDIYAAABAhdV861YCeudC2NBF/5tWU5fLno36d8yeFK+c/4l49e/ceN1tZ8Qb7/1lPLxhMGnyv9fddma85vc98cpLPxnX5kwe9e9fe+O30u2TReXYNzq3b0S+fZPq8QAAAACAIoP+pFextFpn75Kuvek7jWLtw/HQhYfu9ftXXPzheO0NM+ON//pVstTayLZN+7wMuvzeZHm2f/0q+R3yd+31AsKFh6bV3eW2EtA7u38MzbFfzYAIAAAAVFDk2WcSwDobwDYv/mMSfuU65Lv6uizOtvraL8Yb/jkv3r7ygbjdtq9dliypJpdbGzz/bbvcBrlt0ub7ryegd3j/qHn2D1WPCwAAAAA6LJ5/wONrnlUjoHcwfM2eFA9vWp2E33V/+XH273OmJIF5y9K/JIXjOkW+1paHbkteW25Dc3vkNHlJbqvcZvaRjob0wf6zD3sCAyIAAABQIZFnH07w6uzd0ZVXHJ2G45WXHxUPzn1zvO4vZ8XDG1eOOWTLgnNyCrtssrDbWMltkNsit0luW7qdVxxNQO/wfjLo2/+renwAAAAA0EGRb/2KgK5mebXk7vXmNend9LEZidffObu1ENycyfGGu+aM43fW75rLbWtiubXOt8izfsFgCAAAAFTEMn/Ck2u+tY6A3tng1Xy2ux02Lrx8t6+zqe/XbXud3T0rTys0oK9lTXQAAACgImq+dQQBq7Mhc8XFh8fx8Lb2pObhbfHgBe/c7WsNXfiuOB7e3rbXktvO/tLpu+j24arHCQAAAAAdUPOsywhcnQtbKy/7TDy8PmpjJfZH9/qa8nvaZXjdQPI3sM90MKD71q8YDAEAAICSWz7voKfUfHsDYaszQWvV1SfEI1s3xu00snVDXJvzpt2/7pwp8ci2dr/mxnjVVccT0jsV0j17vXwURfV4AQAAAKBAskI04bwzIWvo5+9tKbjWTutu+cFuX3fdrT8q5DVlATn5N7H/dCik99rvYTAEAAAASqzmW7MIWJ0JWBsXzI+LMrJtc7z6uu6dXnP1dU6ha6lv/Nd8AnqnArpv/UT1eAEAAACgQDXPfoCA3pmANZ71zffVlgdvTu6Yy7blwVsKf73hDUME9E4FdM9axGAIAAAAlNSgP+lVhPPOhKvBC94Rl5X829iPOrMfRXO6/lv1uAEAAACgADXfmkaw6kywGvrF++Kykn8b+1GHArrXdTKDIQAAAFBCNd+6jmBFQCegGxTQffta1eMGAAAAgDaLZ4rHRL69WnXgqErjDrr696AMLfLsVfLYZUAEAAAASiTqtV6nOmxUqRHQ1b8HZWnLZx38GtXjBwAAAIA2inz7JNVBo0qNgK7+PShLG/St4xkMAQAAgBKJfPsi1UGjSo2Arv49KE3z7Hmqxw8AAAAAbVTzrAeVB40KNQK6+vegRG0xgyEAAABQEtG5E5+vQcioVNtlQB/eHg9vXBGbItnW4e07/TvLrHV+fxqYYz9P9TgCAAAAoA0ir+sw1YG16gF967I746EL35V8bdXVJ8QjWzfEuhrZsj7ZxuTvuPDQeOuyu1q+TkDv/P4U+da7GAwBAACAEog8q0d1YK16QF9x8eEtX9/w97mxrjbcNadlW+W25xHQO78/Dfq2o3ocAQAAANAGNd/6uerAWu2APhIPnndIy9fX3fL9WFdy21rC4XmHJH9DEwFdyT51AYMhAAAAUAI1z7pHdWCt+h309bm70oPnvz3eNtQf62rbUJhsY3N75R31PAJ65/enyLf+oXocAQAAADBOsT/h3yLP3qI6sFat7apInAy+m5f8OR7etCrW3fDGlcm27upCAgFdxT5lbY5nTn0cAyIAAABgsOWzJx6oOqxWsbHMmvr3oGxt0J/0KtXjCQAAAIBxGPS63q86WFSxEdDVvwela732exgMAQAAAIPVfPsU5cGigo2Arv49KFuLfPsk1eMJAAAAgHGIPPtM1cGiio2Arv49KGH7AYMhAAAAYLCaZ1+hQbCoXCOgq38PStguVT2eAAAAABgHuTyTBsGico2Arv49KFuLfPtOBkMAAADAYJFnrVAdLKrYCOjq34MStkHV4wkAAACA8a2BPqJBsKhcI6Crfw/K1uSxzFroAAAAgKGicyc+X3WoqGojoKt/D8rYHj1vyn+oHlcAAAAAjMHyWQe/RnWgqGojoKt/D8rYhubYr2YwBAAAAAxU87umqg4UVW0EdPXvQRlb5NtTVI8rAAAAAMYg8u0Pqw4UVW0EdPXvQRnbgG99kMEQAAAAMFBttn2s6kBR1UZAV/8elLL1WseoHlcAAAAAjEHNs05THigq2gjo6t+DkrZTGAwBAAAAA0WePUODQFHJRkBX/x6UsUW+5aoeVwAAAACMQc23v6Y6UFS1EdDVvwclbV9lMAQAAAAMFPnWtzQIFJVsBHT170EZW+TZ31A9rgAAAAAYg5pnf191oKhqI6Crfw/K2azvMRgCAAAABoo86yz1gaKajYCu/j0oY4s8+0zV4woAAACAMYh862zVgaKqjYCu/j0oY5PHNIMhAAAAYKCaZ/9QdaCoaiOgq38PStp+oHpcAQAAADAGkW9/R4NAUclGQFf/HpSxycKPDIYAAACAgWqeNVN1oKhqI6Crfw9K2r6melwBAAAAMAaRb31Zg0BRyUZAV/8elLFFvjWdwRAAAAAwUM2zu1UHiqo2Arr696CUzbNOUz2uAAAAABiDyLdPVB4oKtoI6OrfgzK2Qd86nsEQAAAAMFDNtz+uOlBUtRHQ1b8H5WzWEarHFQAAAABjMOB3vUN9oKhmI6Crfw/K2AZ9660MhgAAAICBarMmvUF1oKhqI6Crfw/K2Abm2AepHlcAAAAAjMGKnx78QtWBoqpt6MJD4xbD2+KRzWuNbHLb8+Tfprp/q9oG507en8EQAAAAMNAyf8KTVQeKyrbZk+KRbZvSULvlwZvVb9MY2+YlN6Z/x8i2jcnfpnqbqtqWnD/1iarHFQAAAABjVPPtDapDRVXb5iU3lS6gb17yZ+XbU91mrWMgBAAAAAwW+XagPlhUs6369eflPeck2G5f83C84Z/zWtqqKz/X8sz6jl9fd9sZ2dcvPHSnr8u2+ndu+j2rf+fs8nvSKemzJ8Ub/nH+zl//xfvS37HyyqN3+vr21Uub98/jVVceo7xfq9oi316oejwBAAAAMA41z/6d6mBR5bb+Ti/eHRnaB8+b2vjernhrtKD1G0aG46F5765/fc7keGTrxp1+x6a+q9LXkv+9o5Et65KflV9fddVxO31dvqZ8bfl1uS1ym3Zn/R29yvuzyi3y7WsZDAEAAACD1Xy7V3WwqHpb/7dzdxt6N9zzi/T7Vl11/E5fX3fbj9Kvb3nkjp2+vnnxH9Ovy//eUX5q/cZ/zd/p66uu+UL6dbktuw3nd81R3o80+1zV4wkAAACAcYg8ewbBRn24W3fLD9Lp7i1GhpOp8GkIf+i2li9vHbg3C/p3zt45gD98e/azD9++i4B/Zv3rsyfFw+trrT/70G3pz668/DNxPLx9F9F8JF73l7OU9x9NroFuOwyGAAAAgMFqs7s+SrjRI+Ctvem7SSDf0bYV98e1OVPqQfnST+70PSsu/nDytVXXnLjTz+YDvPzvHcnft8u78yPDSShPfnbO5HjbYLjrcJ67g09T2weRb39Y9XgCAAAAYByGerssgpU+4XLNn76+yzvV8u5483s29V+3y2e/B897SzyyfWvL17avfCD9OfnfecMbV6bPl+84vX1T/2/3eGdeBvi1N35LeX/R8n3Q9UYGQwAAAMBgg3MnPy3y7BGCjj5hb831X4nj4W2tgXh4a7xy/ieSr6/45Qdbgvj2VQ+mP7t1+T2tP7Y+Sr8m/ztv8/1/2PX09uGt8YqLD6+/1iUfjUe2b9k5nN9wuvJ+omV9EPn28PJ5Bz1F9XgCAAAAYJxqnv0AYUevwLf6uu6dgnFSUX32pOTrG//1q5avrbysPh19wz8vbM3SW9anv1P+d56cUr+r6e0b7704De47Bn4Z3tf8YYby/qG19kHk2SEDIQAAAFACNd/+NYFHv9C3+renxiPbNrfk43V/+XHyNbl2eT5wb7h7XiPYT2sN1PFIPdTPnrSLZ9cP32l6+8jWDfHQvMOSf5ev1fKbtm9tWVedplEfeNZlqscRAAAAAG0Q+dY3lQcM2i77YNXVJyShOQ3J2zalwXr9nX52Y3vdQBLCB89/205BXP5b8u/5G+Hrlu9yertcl13++4qLPtCyrvrIto3x6mu/yPuk6X4a+fbpDIYAAABACdR86wjVAYO2+z6Qy6yNbFmXhev1tXjbYN9ORd+2rViU/PuOz68n/75iUevd8C3rk+/d8d/l75T/ng/t8rXzS73R9OuDgdkTP6R6HAEAAADQBoOzDn6l6oBB23MfrL35/1qD9Npl8ebFfyykyd+dJ1+b90fzfbTXfgWDIQAAAFACcSz2izxrhfKQQdt9QL9hZkto3hRcXVh/yd/dEtBvmMl7o/e+OSSPYdXjCAAAAIA2iXzrNxoEDRoBnX1glMdB5FtXMxACAAAAJVLz7a8SkPUNh9xBV/8e6Noiz56hevwAAAAA0EaDvfYhqoMGjYDOPjCG42C29WYGQwAAAKBElp7R9aTIs7cQkHS6UNAVr7vl+/H6v50bb77/+tbK7LX7kn8vosnfnSdfW/673Ba5Ter7hZb1gbV5yflTn6h6/AAAAADQZpFv/Y3wo0/4W3frj2LdyG1S3S+0XB941m0MhAAAAEAJRb79HcKPHgFw5fxPxCPbNse6Gdm+NV552WeU9w+t3geRb5+uetwAAAAAUAD5LCvBR334G5z75njbikWxrravfCAePG+q8n6i2fHAbKuLwRAAAAAooXjm1MdFnr2K4KP47vlln0mfBx/etKoeilctKeyZ8701GcgluS3Nf1t5OXfRNThOhuL5RzxW9bgBAAAAoCA1375Ug+BB8+149XVOetd69XXTlPWJfO1sOxzeG032z8i3f8lACAAAAJRYrdc6RnXwoNlxbc6UePvqh5JQvHX5Pcr7ZOuyv9fv5K95JB6cO0X59tDsOOq1jlQ9XgAAAAAo0ODcyftHnj1CAFIbAtf/9dz0rvWqa05UHkhXXXVcuj1y21RvT9Vb5NvDA3Ps5zEYAgAAACVX861bVQeQKrehee+OR7asS8LwloduVb49zSa3RRrZuiEe+vl7lW9PlVvkW39WPU4AAAAA6ICab5+iOoBUuW0Kr23cqx7Rqhjbyks/Gccjw8mWyW1UvT1VbpFvn8hgCAAAAFRAdO7E50eetV11CKliW3n5UWkI3rzo98q3Z8cmt6l58UBOe1e9PVVs8thkejsAAABQIZFn3ag6iJS9rbjoA+kyamUwsnltvOLiw5X3a+mbZ12venwAAAAA0EGRb5+kPIiUuA3OfXO8bbAvLpttKxbFg+dNVd6/pW6z7WMZDAEAAIAKWT5r0nMjz96iPIyU/jnz8tm86HfK+7e8zdr8yDkTn616fAAAAADQYTXPukx9IClfW3fbmXHZrbvtDOX9XMYWedbFDIQAAABABUWzJx6qOpCUr3XFa34/PV5z/VfStv6O3jTYDm8YbPmazk1ua9P6O73Wr/9+evK3qu/vcrUBb+LbVY8LAAAAABSIZ4rH1HxriepQUva25aHb0qC79oaZyrdnX9vaG05Pt3vLw39Tvj2lb579gDwmGQwBAACAiqr59teUB5MSt9W/OTkNuVsH7jXsrnNXvHX53en2r75umgbbVN4W+daXVY8HAAAAABQa6u36z8i3tqkOJ6Vsc6bE21c9WE+3I8PxyiuPVr9No2wrLz8yXbd9+5qH48G5U5RvUxmbPAYH507en8EQAAAAqLjIsy5RHVDK2Nbf/pP07vOm4Brl2zPWJrc9fRb99p8o354ytsi3L1I9DgAAAADQwFBvl6U6oBjbZk+KBy94x05txcWHxyNb1tVvnm/bFK+45GO7/D4Tmtx2+Tckf8uW9cnftqvvk32h/P0wtA3OsSeoHgcAAAAAaCLy7JtVhxQTm6xujqzSu+r3w8QWefafVB//AAAAADQy0Gt9QHVQMa2tuur4OB7eTj5vGhmOV13zBeXvi3Gt136P6uMfAAAAgEbiWOwXedZ9ysOKIU1O6d6+bjnhfAfD66N46MJDlb8/prTIt/pYWg0AAADATmq91jGqA4sZrSvevOQmwvluyHXfzVpOTl2Leq0jGYoAAAAA7CSef8RjI88OVYcW3dvq65x422DfTi1dUq1h+6olu/w+k5v8m1r/xgd3+X2yj1S/T7q3yLf645lTH8dQBAAAAGCX5B091cHF1Lap76o0uG5bsSiuzXmT8m1qe5szOd42GGTLx/X9Wv02mdp6rU8wDAEAAADYy110nkUfU8G4eCQrlnblMeoDYEFt5RWfTf7Gxh9LYbix9KNnL+DZcwAAAAB7VfPsj6kOgUa1OVPi7SsfSO8qb7z3YvXbVHCTf2M6zX31Q/Hg3Dcr3yaTWuTbH2YoAgAAALBX8s5ezbfvVh1iTGmDF7wzXn3tF9M2eN4h5f+bzzuk9W++4J3Kt8mUFvnW3+WqCQxFAAAAAPbJoG+9VXWQodEH5dwHuqYyDAEAAAAYlZpnX6E+zNDog1LtA/MZhgAAAACM2sCsg19W86xNGoQaGn1g/j7gWZuW99ovYSgCAAAAMCY13/qe8mBDow9KsA9EvvUthiEAAAAAYzY4d/LTIt9+VHW4odEHJu8DkW89Ep079akMRQAAAADGpeZbR6gOODT6wOR9YGD2xA8xDAEAAABoi5pvX6k65NDoAyP3Ac+6jGEIAAAAQNvU/AkviDx7lfKwQ6MPDNoHIt9ePdTb9Z8MRQAAAADaasCbeILqwEOjD4zaB2bbxzIMAQAAAGi7eKZ4TOTbNykPPTT6wIB9IPLtG+JY7MdQBAAAAKAQK3568Asj31qpOvzQ6AOd9wH5OMijcye9mGEIAAAAQKEGPPvTqgMQjT7Qeh/otT7BMAQAAACgIyLfvkh5CKLRB3ruAxcwDAEAAADomJX+hGfUfGuJBmGIRh/osw949gNDZ1tPZygCAAAA0FGRb0+JfHur8lBEow802Aciz94yMNvqYhgCAAAAoETNs05THYxo9IEO+0Dk2+pRRK8AACAASURBVCcxDAEAAABQqubbF6oORzT6QGk496xfMAwBAAAAUG75vIOeUvOtewnJhORK7gOe/c9l/oQnqz4OAQAAACARzen6b7n2s/KwRKMPOnnn3LdWRv7klzMMAAAAANBK5HUdFvnWNkIyIbkK+4AskDjQa79T9XEHAAAAALtU67WOUR2caPRBJ/aBAW/iCQwDAAAAALRW863vEZIJyWXeByLP+rbq4wwAAAAA9iqOxX6yqrXqEEWjDwoJ5771K7mPMxQAAAAAMMKS86c+MfLsmwnJhOQy7QORb/25/+zDnqD6+AIAAACAURk623p65Nt3qg5VNPqgTeH8b4NzJz+NYQAAAACAkVad/7pnRr71D0IyIdnsfcC695FzJj5b9fEEAAAAAOOyfNak50a+1ac+ZNHogzHdOe+Pzp34fIYBAAAAAKWw4qcHv7DmW0sIiFwkMGsfsJbIfVf18QMAAAAAbbXSn/AieTdSfeii0Qf7cOfcs0O5zzIMAAAAACilgTn282qedQ8BkYsEOu8DkW8vHJw7eX/VxwsAAAAAFGr1rCn/XvOtv6oOYTT6YDd3zu9a5k94DsMAAAAAgEpY6U94Rs23biUkE5J12gci375JLg+o+vgAAAAAgI7qP/uwJ0SedbHqUEajD5J9wLMuW3pG15MYBgAAAABUUhyL/SLfPp2QTEhWe+fcOjueKR6j+ngAAAAAAOUiz/pC5FnbCeoE9Q4H820D3sQTVO//AAAAAKCV2uyJ74s8ay0hnZDekXAu97Ve+z2q93sAAAAA0FJt9sT/qXn2AkI6Ib3YcG6Hy2dPPFD1/g4AAAAAWpNVtGu+dTkhnZBe0D5w6eDcyU9TvZ8DAAAAgDHF42q+fap8RpigTlBv05T27ZFnz5D7lur9GwAAAACMM+BNfHvk248S0gnp4ywG98igb71V9f4MAAAAAEZb5k94Ts23rySkE9LHtg9Ylz9yzsRnq96PAQAAAKA0ol7ryJpvrSOoE9T3MZhvlI9JqN5vAQAAAKCUBmcd/MrIt+8kpBPS91Kl/Q65IoDq/RUAAAAASi2eOfVx8s5ozbPXE9QJ6jveNY98+/TYn/BvqvdTAAAAAKiMgVkHv6zmWdcT0gnp9UJw9k1yhoXq/RIAAAAAKrwcm/W5yLdWEtSrGdQjz1oRzbY/y/JpAAAAAKCB1XO6nhX51tlyrWvVgZHWoWDu28M1z563fNak56re/wAAAAAAO4h6rddFvn0DIbncFwoiz/7TgN/1Wg4AAAAAANBc5NmH13x7seogSWt3H1j3D/jWB1XvXwAAAACAUYjnH/D4yLdPjHzrEYKy2RcLIs9+eMCbeIJ8TzkIAAAAAMBQS86f+sRkWTbfXq46aNJGGcx9+9Gab5/Sf/ZhT1C9HwEAAAAA2mSZP+HJkWf1ENTNCOaDvu3I94wDAAAAAABKSt6NrS/NZi9UHURpO/SBZy+IPPto7pgDAAAAQNXWUO+13yMrghOUFd8xr78H72YtcwAAAACouIE59kE1zz4n8uxVhPWOhfJVss9l36t+/wEAAAAAek5/P6LmWddHnj1CWC8kmN816NnHLZ930FNUv98AAAAAAAMM+pNeFfnWNyPfDgjq4y76Fsi+HJx18CtVv68AAAAAAIMtnz3xwMi3T488OySs72Mw96wHI986O/LtKarfPwAAAABACdX8rjfWPPv/1TzrtsizthPYm1PXZV9YtyZ943e9UfX7BAAAAACokNVzup5V8+yP1Tzr/MizllUtrNf/ZutntdldH109a8q/q34/AAAAAABIDM6dvL8sMpdM7fbsuyLfHlYdotvcFtc8e15S5G32xAN52wEAAAAARlh1/uueOdBrvzPyLbfm2xdGvvWPmm9t1iBo76VZm+vbal8YeVZP5Fvvkn+L6v4EAAAAAKBt4plTHzfUax3QuNM+vebbvTXfuq5eLb6D4d2zNjVe8zq5DfVtsY6Q2ya3kbccAAAAAFBZcSz2k9PkB/yu1w722odEvv3hAW/iCTXf/mrk2WdGvu3Xm/Wrmm/Pr/n2r+Wa7Unz7Svlv8mvpd/n2WfKn5W/Q/4u+TuXzzr4NTV/wgvka6n+ewEAAAAAAAAAAAAAAAAAAAAAAAAAAAAAAAAAAAAAAAAAAAAAAAAAAAAAAAAAAAAAAAAAAAAAAAAAAAAAAAAAAAAAAAAAAAAAAAAAAAAAAAAAAAAAAAAAAAAAAAAAAAAAAAAAAAAAAAAAAAAAAAAAAAAAAAAAAAAAAAAAAAAAAAAAAAAAAAAAAAAAAAAAAAAAAAAAAAAAAAAAAAAAAAAAAAAAAAAAAAAAAAAAAAAAAAAAAAAAAAAAAAAAAAAAAAAAAAAAAAAAAAAAAAAAAAAAAAAAAAAAAAAAAAAAAAAAAAAAAAAAAAAAAAAAAAAAAAAAAAAAAAAAAAAAAAAAAAAAAAAAAAAAAAAAAAAAAAAAAAAAAAAAAAAAAAAAAAAAAAAAAAAAAAAAAIDSifcTbnC56q0ASkseXzPjx6jeDAAwGmMpAKASuvsOFW4YC6dvgupNAUrHCe3k+HLDd6jeFAAwlhNMTMbS7v53qt4UAACK5YaX1gN64NHVQNuPrzmNgH5J5ft25p8fV/k+ADDGsTTw6+cq4Xy6EABQXqcsfp5ww62NALFO9PQ9TfUmAaVx0oKnCidc2zip3CKc+58rqswJzxMzFj9D9WYAMHAsdYM1jKXQh9N/tHDD77W9dYdfEU54iugOPyF6+t4qeha+onRXt2XYKKLvdGxfuvffO96/7qJJ2f7U/4aOvz7Gzw2mN8J5vXUHnzeyW7vv+x/hhMclze1/l9CdE74l3V4Vx65JevrfZ2xfueHxLceXG7qiypzgL8INr+J5/FHoDt6efs6euuSZxb05JeMG3237eZYTfFu4wWnC7f9wcs5TtnNmnbnhsS1jqRP2iCqr90d9vzzurn9TvTnCCb7e2J4KfcY5wW92+IAvrskr/G7YJ5zgIuEEJ4lpfa9NCkiZyl3w/I71neo2o+8lne/f4AvZNgSf7vjrY5zi/YQT9reOAcHfjOxWZ+GLhRMMN/6OQS0+sPakJ/hYdlGk71TVm6Otk/ufLpxgQ2OMWSqOiB8rTOKGd+0wVodGf6a2J6DL9/K7qjfFGG4wM/ucX/wi1ZtjDDfYXvw5sxybgpuEE35fdAcfFF+679mq/+zScsM7dsgr/dUeS8Mb0r6YtvRJqjdHOOFQ9r5URScD+q4HoIeEG54lpvV3CdMQ0AvuXwK60ZzgbbljfV022IevEyZywz/mLhh9QOhs5pInCidc2djWf6jeHG0lMyLSE7JvCpP0LHrjLo8vp+8QUVVZQB8Rbv8nVW+OEQjo+gb0nc6Xw23CCX4vnOAY4dz9lDbvCdXlhq/f5VgqZ/9WFQFds4DuBC9NpviNp8ln4E4LX5ZMCXWDNyVX/eRUdzf8aXKC6wSr9zAA3SWc4DPG3MVoCejBtePuO52biiV8COhmc4OLG+PKcMsdXSc8V5hIzuLIxsorhO6ccJbxF0WK5gZ/TfdRFbOExsMNenOh/CP1UJr8LRcJUfWAnnwmb0yqMmPPCOjjC+hO8Pe2nGN1B89Jzp2nh69OVmSQj4O5wQ+EE9zYEhqzz9GVwg1+JHr69mcXH6d6Ptl5LHWDX1a2bwnomgX0Tjx/J4OeGxwk3KBbOMHNuWmj+bvqC0RP+B5hUkA34YTdNAR0c8mTDTfY3DiRuC75Nze8t/Ght0rMXPZkYRq5zfkiMvJv1Nn00MqNq2eq3hztTF90YC7M/UGYRN49a+6LbnB7/d+CmxufRZsqOxW2JaAnffMIAWYvCOjjDejFP7Yln0VPagUE5wg3iHY4X94gnPD/qB8w1r5d9uTsxmHw1+Tf5GMF9f+/ubpjKVPcqxfQdySv/rnhN4QbPrqLK4Q/17oiKwG94P5lirux5AW47Fj+UPJv9Zk0zWP7KGH2klbyb/ii0J0bLGycaETaPzffaU54RjaVMfiYMElP3+ey/bD/6OTf5OyzLJieJqpop4DeCFDykQ/sGgFd/4Ced3L/E5LHN3auP/GocMLDO7otZeCGn81Naf/cLmbLTRNVREDXgOqA3iQ/QJO76o1CAFl7QHQHrxI6IqAX3L8EdGM5wX2NELs8DYbTFjwrubtX//dbhYnkYztZQL9T6E5WojXluflOmrng8cIJao33cSg56TWJvGtef0/XpM+iykI+cnZK/d8XiioH9Pr030W584hfqN40bRHQzQroLUVY+z6yUyFWOS1bLhmGfeOGt+1yLG3WcJHnMlVEQNeALgG9SZ7Eyw/T1jvpQ8IJbaEbAnrB/UtAN1JP+ObcyUJrNeX8sS2nGBsn3i+plJ3dvTxA6Oy0+16QFBaqb++VqjdHG/JOU/YZc5YwiVz9JPtsnNXytWQKbHrsvUlUt0jcI8mzvPmaN04wQ/XmaYmAbmhAb6hfmPtBS9E6+ZiorAOF0Tzm1NvyNSf4Sfq17mBK5bqSgK4B3QJ6k1w/vXm3rd4GkwIaOiGgF9y/BHQjueG8XCXll7d8TVaYzsLFj4WJusOv5Mal7wndyQKWzefmv9z/H6o3R6s+kS1Z7tMgLSeO/W9o+ZosBpidcF4gqhzQJVnLJgtSw8Lpf7/qTdQOAd3sgN4kK47L8+T8ObOs94Tdkxdn0+nti97Y+jVZKyu94HFh5bqRgK4BXQO65C6atMMV8AVarMfXREAvuH8J6MaRY4isnlw/Xq/fyx3oFUY+Gzq9/7+yuxXBI9qvOpFUpW0GOtZEF9PC/9Tu5HpftUy93M0jFs31fGXxqFOXPFNUc4r7svTf3NDNXbRYY+bMnQIR0Mfab/qNIXIlJjfsI6Tv62O14YpGX921m/78W2Pc2KhdPioaAV0DOgd0qad/aloNuj4YflvogoBecP8S0I3TUggu+OiuvyeYkZ1AGLpWsVyLNvsb3iV0f946vbPCmug7zIA4VpjEDY/MzUA5bq9ru8sxtOoBfefijkuYSZLvm2Bm2jczFr+o02+ZsXQM6NIpi5+XFQdNxoClyfLHaJUvBOeGx++ye+Tng0lFYduJgK4B3QO6JA+M7CDZok3ROAJ6wf1LQDdOcyk1WYBLBsPdnkCEWxvfd6MwkRN+PHchQv91p/PPJld6TXQ5gyMtHrZenNz/dGESN7ylse3rRE/f03b5PfLf03WTg7tFlewuoMsigPkK7/Lkk1UN6gjo5Qro6Syh3MpI8nNWLtWGTLqUWrhut58DstieE65tjBn3VKr7COgaMCGg19dObx5M8qTjZ0IHBPSC+5eAbhT5SEp2jP5gz98bXJ4ViwtfLUxTX3WiWTF7o/ZTiXv6Ds7dLajumujJjCzNPkf2lbwwndR1SE64Z+/xe91wbu74skTVA3p2Z3Fp7jj4qZJt1A0BvXwBXZrW39Uy+9QNvqR6k7TR0/fKdCyVs2v2pHX2jX7FqotCQNeACQFdkgUc8nfR5frpqhHQC+5fArpRZOBpFoeTH4B7/t7Dclf3fyhMJKu+Zn/DMcKU2Q1VXhNdFvsxtcq5vLCyr6FbnkhmQXSuqIrsLvmjuz2PkM/mZ/vAiaLqCOjlDOg7PU4WbBQ9C1+hepO04AY/2ufQLcfa7HvPE1VBQNeAKQFdcsLrcoNNt+rNIaAX3b8EdGPMWPyMZMrwvk5bT2bFhA/udTq8zvIhyAluFrqTY2aV10SX0xizcNYnTJJM0Q6HRjVtPb0gs4cpnFUL6FJPcETu7tnWpPp1lRHQyxvQ5bR2WQAtG/evFlVXf9ylNqpp6/L7TH0saqwI6BowKaD39L8vdyXrVtWbQ0Avun8J6MaQd6Kax2Z336f26Wec4Ot7LSinOye4L501oNsykHt69r+Ka6K3FE8LXWESuezoaAu/ueHJey2CVMWALrnhN7RewrWTCOjlDeiSXMM7GztGhHPfa0SV9QQfG3Xht5Y6WH0niCogoGvApIAur3w1n/uUa5p+6b5nK90eprgX3L8EdGPI6uCjXTqte9ELcyc5u1iSzQBuMD33YX+60J0bXpXeOazamuhu8Nf0bzetqnHzZGk0S6fJz3Mn2LTHZYTK+wz68j1/Y7yfcILLciH9X7stuld2BPRyB/SdZ59eIKrMDf846toxrcvH/l1UAQFdAyYFdMkNLs7ddXu32m1Z8PzctlyhdFvKiIBuhtYCZGeN6mfd4Nr0yr7b/3JhGlkLI1sTfXFy4q8zN/xQbqbDqaIq5NrX2Qnq5cIk8rnRdEr2KE+unfDn6d8tn78uu30O6PJ7736KcIJ/5sauq5JHb6qGgF7+gC4f48j28/X7fBG9bOQ5RlZo88LR/Ww4L3cXfYIoOwK6BowL6Llpe3KKrNJtIaAX27/cQTeCrCidFq9adOCofrY7+GAuOH1XmMgNf5uFoPDNQmfyWf/m83dVWhPdCc/Q5sLuaMkVEbKLKpPHUbW+V5TdaAK6JNf9doMB48eg8SCglz+gJzNGwn5jx8B2ccPvjblIqBO+Jdd/nig7AroGTAvoTjAxN6V0vtJtIaAX3L8EdO3l1wl1w9vGWMTm0fSk2sTq4knRKYMqZstZDtn2vl6UnbwoISvX10/Klooj4scKE7fdCRaMbd33MGz87WuSu8aVeAY9GNjnn5En6ulyVMlMnk+KKiGgVyCg7/A+V3GJQXluIc8x6sf5wjFe5AjSsVSe+5QZAV0DpgV0+ZxYdgXsr0q3hYBecP8S0LXnhsfmLpgdNbbfEXw3d+LwIWGaJESFg+kH98xlTxY66+5/Q6XWRHf7P5z7e78hTL34M9ZHEvJ1Enr6PifKbCwBPfm58Kjc3bFNlVrvmIBekYC+aJI2587KPweC08b0O5ywx6ilVceDgK4B0wK6JAtR7Uul1sK3gynuxfYvAV178uSk/oG3aszBtOW5sPA6YSInPDf78DfgDlzz2Vs53d3EWQtjqXMgC4s6wUuFSdzgD2lonLbgWWP6HbIgnhNuaRynt4syG2tA33GdeSdcltSXqAICejUCupytls52C9ZoXy+l3dzwd+lYOtYC061jabkvchDQNWBkQA/ubnyIblO7HQT0YvuXgK61aeHrcie057alsmoSoha+WJhcKM8Jfi90J+/GVmFN9Gnhfxq7UoC8mCCPh/q2XzSu3+WGl+be74NE+QN6NOqflY8+5Ktdy+A1bemTRNkR0KsR0FtXsoiTVVSqYkbfS9Kx1A1+Oa7fJR+tbfahPAcqKwK6BkwM6HIN9OY2y6uCqhDQC+5fArrW5HNs6Yd9/xvG9buc8OPGTkNucsJ70osM0/v/S+hM3kFo3gko8woU3eFXsundwceESZzgO9m2908d1+/q7js0Fzx/IspqPHfQpZP7n548699S56bkdxoJ6FUK6Bek+/b00BJV4Qbfyo7pvkPG97v635W72HmOKCsCugZMDOjNaX+yyQ9UZdvBHfRi+5eAri15Z8kJV7btBCVfXdwJHjaqkFeTG7q5D+7pQndueGW510TPVS52wiGjlhaqT0dd1nh/wnGHRLl8mBs+OO7HUcp8B73ptPBlWU2JZDyaIcqMgF6dgJ6/6NcdvF1UQVKINnik8V7dP/4LbvJzJbi/8ftWl3csDW/IZgpoMJPICYcan+X9ojJMDOhOcE22zWN8lqQdCOgF9y8BXVtu+NncB/3n2/Q7c8+A9r9fmOaUxc9LHrsZc5XYDuvu+99xF83RWX5ZHFm53iQtyw+Gblt+pxt8Lfc7jxRl1I6ALnX3vzM9lpPHbgwcj/YVAb1KAX2G0QVZx/s5J4u8tYMT/r9xF8fVHQFdA6bfQVd5ZYeAXnD/EtC1JZdUq384rW3bciNO/wG5wHi1MJHc7uzO20ShM1kcrrkGtCwaVzb56ZzT+l4rTPxclo8htGt2g3zsohkq3PAWUep10IPa+H9XeEruJHytmL7oQFFGBPTqBHQ3PNmoYqbtvKEnx1JZ5K3ttU3CW0UZEdA1YGRAD29pnMRvV/p8GAG94P4loGtJnqhmQdovpr5EsF3757h3xQkPN+r5NCc8o5RrostHn9xwvXEn0NKMxS/KBelLCpt9Nj18tSibdgZ0yQ3n5I7nxUpn7BWFgF6lgJ49hiU/q8ouf1EyqSdR0Fgqby6UDQFdAyYGdCcMxlUIpl0I6AX3LwFdS3K6cFq8qu/gwqbOyym5Jq+Jnjz3vODxQmfyzrKp08D3xA2PzZ2IHidM4oSn596Td7T1d8uK/dnvPlOUTbsDer02xs25femG0i1LSECvUEAPZmaPpvUdKsrOCb6e/b397yxw6vyPRdkQ0DVgYkBv3hlRvaYrAb3g/iWga0cW2nLDFY0PpXva/vvlIyuyiFX9+F5qZrG44GyjnvNzgr8bc0Fh9MsJrVdaSHQsxdyc4KHGtj+Q/P+iis+ZVjhPRUBPVzxoFIWqt5+KMiGgVyegO4GXXVxf9EZRZi2FMRlLR42ArgHTAvpp970g94zn+NaGHS8CesH9S0DXTnffp3J3uE8s5DWccFbuNQ4TppFLzmVX1n8tdOeEX8wV/PugKNMjGE5wvjCJE743t+98ufhKzuEnRCmLxIWDbf29cu14N1xX+NinAgG9OgHdDa7NjfXPEWXmBO/OjXNfKeg1vl3aZ/oJ6BowLaDnDzondJRuCwG94P4loGvHCW5M70zOWPyMQl5DXtnPApaZa3S7wd3GLGEm7xC6wWZjLiiM6rn64E3CJG54VbrfyIvRRUiWEQtG0inbZVJUQJfkxStZ0b35/vT0vVWUAQG9QgE9fCAtelh2zWVE5WoMRY6l2ZjwZ1EmBHQNmBbQ8x8mqk++COgF9y8BXSs9fa9MT+zd4GeFvpYb3pWeCMvjzDRy2bLsQuIpQndueGna3+2qdKuuMn3U+Fv6hEl6+vbPLe1V7IUpN/xj4zgeET0LXyFKN8U9HCrk97vhV3PH9VBygm46Ano1Aro8v08vzAU3izKTgTxd8jS8stDXcoLr07G0+77/EWVBQNeAaQG9WeXZCTYof36OgF5w/xLQteIGP8ouji2aVOhrOX0nFD7Vt0jyrnlycSEZq/4uTJpabfKa6C1V9Nu0fnintKytG7y70NfqCT6We79/IMqi6IAuV41xg4tz79MC0dP3NGEyAno1AnpP+J7cZ+oZoszklPb0WfvwPYW+lhN8NDce/FCUBQFdAyYFdHnSm95h0GAqJgG94P4loGujXs241hgr7u3wMln3K11OcbxT7JK/4b7XCJ3J4mFu+GgjsN0tTJU9Y2nWTICkOFy4pLHtD7a9ONyOTu5/QrragJxxUJbigIUH9GYhy3SGj+y/qwt/v4pEQK9GQJerNpSp1sgei8MFixvvzUOFF5rNnxvJ/y3NWBrekO4vcsxTzQmHGmN7v6gMkwK6E0zLTnj7j1a9OQT0ovuXgK6N/B23Tk3ZltPoi1puqhPyS1qZcGVd3kk1eU30/BRxN7hcmEQueZTtK1/v+LP6PcERogw6EdDT9ZWbF7SS1/s/YSoCelUCetgYGzcbP+tjT+RyatnFs5kdn10o76iXAQFdA6YE9PryM/elBS6KKlA1GtxBL7h/CejayJ5Z3dixcaK7b3IuMF4izH4e+lHtl4xz+g8wek10+ShEp6Y1tpsTXNY4vrYn4a8Tpoevzp3I/kGUq0jciuJfK7SFE2xKnz81tYozAb38Ad0JJubG9t+JMnPC+elY2r3ohR15ze7gVbmAfr0oAwK6BkwJ6E7fR3InE2cLHRDQC+5fAroW3P6XZ8XhwnkdfW35jGf9otwW7auh721aYdHPFbeDPNk0cqpevF8y9a2+7Q9rfzEk75TFz8vVK7hGUU2X4VIUPOtkQJfc4NO543tTEoRMQ0CvQEDPLV3qhB8XZSUfa5LnCvWccG1HX9sNb0kv1pViLGWKu3omBPT6Mx7Nu+dbksCgAwJ6wf1LQNeCnL6Z3Zl8s7Jq6KYV/crWT25eWLxY6E6u72zic4pO+JbcCeg3hUmcYEbW533/29nXDo/KBczvCNN1OqAnrxl+P7fvLUsetTAJAb3cAT25ABhsTC+8yvoTZeWEPbnP2w909LXd8Mjca39XmI6ArgETArobfEnL6pME9IL7l4CuxTRtJ1zeOP76Ol6sTa7R3ZxG6oSBkcXiZBX35uMBOjyasyfyMyDrb/WFOPeVG1yQ3gl2gpcKYyRVwRc19o9HkmJ9nTRz2ZOFE6xOH8Po9OsX9wz6yg4/fndN7kLH37QoqrSvCOjlDuj5WVxu8DVRWnIsbTxnLy+UqRhL3WBV4/WXJ+dOJiOga0D3gN7d/4akqEVzp9fpBJeAXnD/EtD1WrYq6FayDW7wy+wOfv9UYRo3PDk3C+BYofsUweZ0a1MqobdW/Dfr+T8neFvu+PqWkm1ww58aOWtCl4De3Aebj+PU2y+MuZhIQC9vQJczuNKVj4JaqYvDOX2H5C6SfVvNNoTn5saADwmTEdA1oHNA7w6ek3uucFi7Ss4E9IL7l4CunBNel1Z+lcejCj19b2098TVMMgug8VycfOZXZ7JCf9bXZqyJLi96mPp8ZXNNbfn5NqPvJeougqcntr8RJlMV0CX56F1zKaD6sfMlYQICejkDejL7rVFTpL4/nijKzAkuUj6WytVPss/P3wqTEdA1oGtAl3fK06mhHVx6ZjQI6AX3LwFdKfkhV78wpvj56dw0YDn9etqCZwnTZFW6R8S0Rf8tdOWGd+wQ0PVfE90Nbm+EsiGjnq+UF7yy2WHXKd2WdF3vYLuYsfhFwlQqA3p2MbFZ8G9YOP3vF7ojoJczoLcUKA1vMGZGx3gfhVNdpd4J78yO/4UvFqYioGtAx4Defd//tE4XC3wtBxcCesH9S0BXSk65zS6QvU2bOhQm3NXdUU//+7QvYtbT98rc+31/Nu25/w3CiKXhNFndY185oZPbJw5Xui1ueHzuwsw3hPFF4oJVWhRalEvCTl90oNAZAb18Ah46KwAAIABJREFUAb2n73O5lVdWmFWXYwycYFo2fvV/WO22hMdp/1m/LwjoGtApoCfFVvpOyBWtkYPf+cm/64iAXnD/EtCVkQVWZNGq+snuIuUXyOrHWvPO1AJhYn82i+054RLl/bkr8rm9ZjG76aFlxJrobvCjdDun9b1WmFXQqE+bgkKtz/GbtUydbgF9x2Wt3GBxcodPVwT0cgV0J/hMOvNNPn/e3f9OUXZusLBxrA0oH0vlc/5uuM78sZRl1tTTIaDLHThZ5zz4R+6kcGv9TpmGJ7JNBPSC+5eAroxc7im7SDZD6MAJrsid9L5JmMYJfpj1ad8hQr91xJc0tu+S1unCmq6JLk/E3CDS8iR5dMvC/Z/QgROelyvG+D5hIl0Cen31ixtaphirDg67Q0AvSUCXY3jw9dxjaSPJDa+y6w6m5HLD94QO3HBuduwb8JjLrhDQKxzQ5R0leWDJk1YneKj1ucfwLuGEttAdAb3g/iWgK5MtG7Q1WUdVB07w7lxAv0CYRk51zbb/Z0Incn37LEy8d6epejpWpJXblG3zccIkTvhz7WoSuIsm5d7vq4SJsotKqzV5LjZ7VETeVdcRAd38gN7Tt/8OS/0Na79iSLs4wYXajaXT+rtyn/VXCxMR0DUL6LLAidM3oa2tfnXrHcLt/6Rwg+mNJV1uS6ZRtoZyuSMvrFfh1fiu+W4Durz7FPjGNyf8otAFAV2N6f3/lTv5uEzoIplp07iY5wQbxKlLnilM0yzCJp9Nde5+itBFcvwnY3CUrh8rC3U2x2kd10TPTkjXJ1O0TSGLHGaff38UOnHDf6VTY6eF/ylMo1NATy/KBWu0rqRNQDc3oNdnEZ3Wso/Jz5ae4AhRBfIcIBtL/yR04ob3mj2WMsVdr4CupMnnXINzkmceTZMP6KVpwbVCFwR0NeQ0ueb+0N13qNCJE56e21e/IEzjBCfl7nJ8RuhAVj6XVa939bx5c+ka3dZET+4Ypev7ni9Mkl/Krif4mNBJd9+puRP9/ydMo1tAl+TjAum043BrciNEJwR08wL6tKVPSm6muOGDO5zD3ZsU+6yKeh/oucRmy5KlwdeEaQjoGlAd0OX6wHJHkBVtZfV2kxDQC+5fprirvUsdLtGuQKNcAqp5YmTCEmA7ko8RNZeDcYLrhQ5k1dt0PO6b0PI1WWAou6AwTegiX9VfztIySXqXOqhptyxcfrkiHY//fX8GfY3QSX32YPOcZ0icFr5M6IKAbkZAl5/NyWzUcE5Smb31XHpdUitGx1ohRXLCexp//6B2Y6mcKZUt/fageWMpd9D1Cujy7pQ8yNvbvpOsxyjvcjjBjVll6N02Of3909odbHsN6MG1ycm36e2kBU8VuiCgq33OW9c7aG7423QbjZx5E17SOLEbFt2LXqh6c5Lp6/UxbOFOX5MnFW6wVK8LIklBu/7GPtAnTNLynHfwI6GjbNaEfjNoTA3okhvOy13sWpBUe9YBAV2/gC73Dfl4hCzWKpfqcoLfJ4UPd57xuDGpbWDiFOrxknWqsnOVM4SO3PAXuffqMGESAnpFi8TJECjXVU6m0gZ/SO6i7zzwDCQBTdfKpxJF4gruX+6gK6uULqcPy2nEOsoXB5N3E8y+CPJl9XdMm+Nv8KU9L7+myZro+QrobugKk8jigPW+HhHdwauEjuQU7CxI6lODwvSAPnPJE4Ub3J47x7lai7tqBPSx9ltzJteaZDbU+Jrcb+8SbhjuOojv1B5Ibqh9uf8/RFXlK6XrOpbK1Vqy4/1yYRICugZ0WGYtKfQQHpl8YDWfK8x26kXaLlNAQC+4fwnoHXXafS/InuvVsChY6xJGy9OpfbrciRrVVMV0JpHaO8CyaNXe7ub3LHxFEijr4/HZQjVZwV+3FQb2hSy6J4sb1vvxJqGtlhkKW5PPOVPoHNDTMTZ4WKsl9gjo4wzonWjB5mzsSGa2TBZVJouCyuKg9c+um4W2TB5LmeKung4BvWV7Fr64PiU+XNsyQMkp8vIERycE9IL7l4DeUd3hV3ZaaktXcr3TbHw4XphGnphnfa1uScnkkaJ9qIDrhrc0vm9Q6XOO+RMz4+5I5AoEyse4dCYfT8u2ddczK7QuEheuFbqSdR7SytNyJkXfp5RuDwF9nFPcw21Jkc3xNDdY3Ahy8i76n5Olw+TU9u7g88nngxxz3fCzuWPyH8mF3qqS67vrVmx13+pPqJ0xNxoEdA3oFtBb76qftcNVygeFGxwkdEFAL7h/CegdU3/WeHHjw3+p9h/+cr3T9K5ueJcwjZySp3p95NY+/Owev9cJjtFiTXS5tm9zO3rC9wiTOME/G9u+IpnurLP6Z9vWdBabKUufmhDQJVm9v3nsyUJSTjBR2bYQ0A2p4p7cjb3V6FVM2sUJ/t44zlcmFe11Jmd5NcdSJ7jfnLGUO+jq6RrQm3oWvVE44Z25k9m12hRbIKAX3L8E9I5pqdYdni5M+wCR44Rp0um44QolRTGbJ+Zy6uTeHhOQX0/vXIdXCVWaz/DKacK6X0TKkwEsO7FW/5jAvpAzFLJnPN8uTGBKQJfc4Fu5MXeZspofBHRzlllzw9fn7tyv1Grpy47OQEnvnv9EmEDW8sgucL9DmICArgHdA7qUTO8J/NyH2TbRExyherMI6EX3LwG9Y5xwfiM8bE+WMjNBd/iJXOjpFaZxwuOyMa3vI5198Xi/5M5o/STnolFWoVazJrrTf0Du/f6WMIkTzM7e6/teI8wrZvgrYdZFr3XChFlLzaKc9XaHkruBBHSz1kF3g3Ny4+DPRNU4gZf+/dP6XitMIG8qZsf5JcIEBHQNmBDQ88/wZUWstiR3/VTiDnrB/UtA7wgZtpqVvOV4YAo5TViuKVw/UVkjnLufIkwia2pkz6JerXC5r32bkSRX3lC5Jrpclqz+2sPCCV4qTCFnHzRrqsgAaQo5Q8EJHkqLVHUHzxG6MymgpyvapGs5Ny6WdXgKLAHdrICePP4ZRLkaBtUpGCePF/lZX//bbxdGPUIoH9FtZBcTqu8T0DVgUkCXZHEdeYLW/BBW+Uw6Ab3g/iWgd4QT9uTulB2VjAOmtPydyZ6+zwnTZGtOd/autBv+tPG6j+7zVPHkjl+4pLGf3CM6Xbm/eVIqlyUySf65eSc8xbDj64e5bXeE7kwL6NKMvpcIJ6gpK8pHQDcroEvyc7qKBePytVC6+05VPj6OprnBD4xaHpSArgHTAvqO1XBl5UtVyywR0AvuXwJ6Z6Y6y7VXO7VcTJHNoCvqTW7/u3Lbf1rnwm442HjNH43qZ93wG0rWRHfCw3Nj/seFSfI1VExuThhoX+DIxIAuucGbklkK9cA3LLr7/rfjtShkM+XxpqoH9PojSjdVrmCc7GvV42B7Wqj/WEqROPVMDOg7L1N0npJtIKAX3L8E9MI5fYdo8GHVvmbKM2mt1fOXNk70/tmR13SDD+T67PWj+tnTwpcpWRPdCa5pjPVDSgrqjauokwbHRbuaE75FmBHQ1wuT7w7KRyKmLzqwI69LQDcwoFewYJycLat6/Gtn6+mfKnRGQNeAqQF95p8fJ9zgr+m2dwdTOr4NBPSC+5eA3rEp1sljI8HXkvWPTWuyUI5pVV3znODb2Qd3Bx7ZccNLG69375h+3glu7Oia6LK6dbP2iCkV0Hd+lEDum99WfqyMqYWzcsHx50JnJgd0KVlaNh0LFosv3ffs4l+TO+hGBvSqFYzL/61O8B0zz1Vynwdu+AuhMwK6BkwN6JKcYpmtk35b54urJGvFNgeMKzr62lVAQC+WPPmTa/DWP9z/IEwli8M1C8eYsC7qjnoWviJbEzk8o/ACQ833XNYeGAu5Znon10SXz+R28gJGu8xc9mThBKsb236HMJV8JMIJlzc+5zaJaQueJXRlekCXNx6c4Pe5CyI3JP1fJAK6uQG9KgXj5Ge6G6xqHBN3ClMlNxbDR80YS5nirp7JAV2SV/TTD7P+93f0tQnoBfcvd9AL7t/TsulWGixb2K6lV9zwSGEaN7ylcfKxPPkQL7xgWbB9zOsuJ5V0ZYHOTqyJnquRoPJEePwXMo4VJmt9pOwUof066MEGYaqkoFSuLoicwVAkArq5Ab0qBePkZ3p2PBwnTOYG381m/vadKnRFQNeA6QFdPnOaHbi/7uhrE9AL7l8CesH9u7DxoR51ZKpykZy+CbkwdIsw+/nT9xb2OmlhoXHOmHCC8ztSfb4nfLOxJ2b5gmWqCpm2y7RF/53VHgj/JXRVhoAu9fS9Mr1jWD9eTyzstQjoZgd0eRHTCW8tdcG47O8zfyx1+1+ezZgLFghdEdA1YHpAl+T0webJYifXaiWgF9y/BPTCyJoNWfD5vigDefcgm01zgDDJyf1PT0JFffsvKeQ1nIUvzhV4+/S4fpcscNOJNdHd4IJ0yrLsI1NMD1+d65/ZogzyJ2zuoklCR2UJ6FJ3/zuz2gvyQljwtkJeh4BueEBv3KjK6nSsEafd9wJRFt3Bq3IXB+eIMnDDP+Xuouv5WAIBXQNlCOhO+P9yJ0PHdOx1CegF9y8BvTBOcGH63Jp8BroM5F2m7C76mcI0bjgvfTatiLHYDb+a3oWQz+2P+65NcH+ha6LLOyUymNf75HxhElnMLvtMmijKoDv8RO5vOl/vWQvBRlEG8uJXdiF1KFlFod0I6OYH9DIXjHPCH6d/1/TQEmUglwrN3qsLhI4I6BooQ0DvDt6u5G4FAb3g/iWgF2LG4mekd2vlIFzOv2tIzFzyRGHqOOaGx7f997thX2OMvLAtv88Jvl7omujp8/LJScybhCnkfueGKwq9eKGCXN5OVu5vBmBZoEo3ZQvokjynyc5v7kvGuXYioJcjoMsZRs0CZPLCu+5LIo52zCnTWCofKXSCWjpW6Zi9COgaKENAl3eDsuk9/+jY6xLQC+5fAnox/RqenAWr8BOiTLIp0Qb+bbIgWrC4cdL3l7b+ankXNwv/72jP71z44vryfMnvPEu0mxvc3jgxCzq+Qsd4OMFncoHqJFEm+WXAdPzbyhjQkyr66dKG8ni4rq2FwAjo5QjoOxemvLfQgqOd0N33qdI+W5+fGaDj30ZA10AZArokiy00n9Xq1KBEQC+4fwnohZBXok29y7w38k5rdiJr3uwAN/xGdoHhvv9p/5Tr4JH2ntynz9K1d010WUMgex/HthycKs1CfHI2R7vvdqo2fdGBuYD+T6HvM+ibRJnIQoxu+GDumPi/tv1uAnp5AnrZCsa54Z/TsVTHGTvt+oxzg7uFbgjoGihLQG8putChQnEE9IL7l4DedtP6u4x+Tnt01elH2hpyO8EJXpqr8Prt9q29GgwUUhAwf7e4nWuiu8GPGtu7LRlnzaq+PVK650B3XZ1ev+fry3gHvWla+Lq0JkO9uNSn2vJ7CeglCuglKhgnP7uzz0I9a16Mlxvepu3z9QR0DZQnoF+a/h1ySZiOvOaC5+dOVK7oyGtWCQG9/ZzwvOwDYdGBoozcoNvoCvXZHdiHxMz4MeP+fXLZtnRs7HutaKdpS58knGB1W9dElxcU5Hrw9RPMy4VJnPAM7Sudj1dP3+eU1Hyp8h30JnkRrPlYifwbndAe/+8MZqbv54zFL2rLdlaBrgG9LAXjnOCH2lc6Hy+n/+jcBW69KtQT0DVQloCeL6TS03dwR16TgF5w/3IHvYAiMuuNXSt8X8kZNG6w2dg13vPPEbZjaSU3uLjQ+hxuODd9vOiUxc9rw+/7UDaWh+8RRhY00nh923bUfJF35nRcl7jsAX3H4oxOuEz09O0/rt9HQC9fQJfTwZuzppKZZIYFXPmZLT+7yz6Wzlz25NwFbs3G0tyymvJCvGpOONQY8/pFZZQnoP+k0IrCu0JAL7h/Cejt7c/w+NzV2iNFmTnhr7KT2L6PCJOctOCpyYd1OyquJxdlgo2FrlfeHUzJ3a3pHvfvc4JrGtv7cFufly9aT/Cx3B2fU0WZuUFvbiw5Vug3xX2zKK3kOeP5uf6/Y1wn0AT08gV0yQmPyo3L/zBsLD0it+2niTJzwlm5C27HCV0Q0DVQmoAe/jw7oPtf3pHXJKAX3L8E9LZygr83TihWJ1duy0xWKs/uQv9emEY+c1ff/vVJYB/vFLqin+WWldbr2/uvcf0euY3N5yed8JvCxDoo8u7ttAXPEmXm9E1oCYi6qERAbzxaIvs9O7GfP+aVDgjo5Qzo9VVBbjKyYJwTXJ8ex52qKaW2tkTzOL5T6IKAroHSBPTGXRfZvtz/Hx15TQJ6wf1LQC/mhDo4R5SevMsU3N84gRpOiq+ZpKd/au5D+6g2FM/8bVu3b+fX+Wo2LX3RG8f+e4IvGfmeybonaXG48BeiCuRduU7PWtubqgR0qXvRC7NaDcnf/KUx/R4CekkDejIuvz7bznBlshqA7k4LX5ars3CRqNLNk/F+frYTAV0D5Qnozcqy6zq2Zi4BveD+JaC3jRN4uRO5g0QVOOGXc3fRvyNMXRNdhuyxmN7/X+mJTtFrwidhIT2p+snY/+YwbPzNfxQmccPvZSdY/VNFFbjBibmLSLOEVs+gh1tEFchChM16G8lFrf73j/53UCSutAF9x8c/TSgY5wbfzT2edoioAqfvhNx71Ct0QEDXQBkCuqx0nBVa6Nx0OwJ6wf1LQG9/UafgdlEV9eNza+OEfbk47q5/EyZJT5yDkTHdTXaCGY2fX9ORRxrc4A+Nvh5KCqaNVk/45lzg+7gwRbKMXfhoY7uDjl0gVk2u8S7XJ24+NiPHGdWqFtB3Xupw3ahXaiCglzug14vDPpp9loRvEbqqr+CxrLEvh5UaS5sFfJ1w7bgea2sXAroGyhDQ5XJRKq4QEtAL7l8Cels4wTG5O8nHiCpxwl9n03CDDwqTzOh7SXpXWk4hHy35PHgnx0S3/5O5gH34OJ67XyFmLnmiMIXb/+Hc3+2IKsneszipd6BaFQP6jktSyZk3X7rv2fv8swT0cgd0kwrG5VfwcENXVIn8nE5nYfV9TvXmENB1UIaAng8gRU/lzCOgF9y/BPS2kCcQzSuzOi3j0Qk9/e/LXZz4jTBNWnhMLi0yirsJ8pngTk8TlKHaDVaNaU30fOV6NzxLmEQWIWyGQhOe8WwnN3hT7vj6i+rNqWxAr88izOrwOMHN+7y8JAG9/AHdlIJxTnhdZcdSuRRe9v6on+nIHXQNlCGgu8HVjZ16+6iuHLdnCm3zA/GKjr1uVRDQ29GHB2n3bFMnyTsFTvBQ9ozmwhcLk8jl8NL3b9Gkff45Jzyj8Tc/lJy8d4ob+GOqGi+X6mr+nbKqrSlmLH5RrgjTr0QVucFCbd67qgZ0SV58TWfNJH1w3j79HAG9AgFdFrLse226QoZ87Om0+14gdCLrmDT71A0vEVUk13zPZhC8Xu22sA66eqYHdFkIKTtBuq6jr01AL7h/uYPehj48J3cndYKoIjf8Ru6k9XRhEvnseLN+gCz0t68XJbJnDr8rOmlaf9eY1kTPinzqs2TXvnCDb+UeoXi7qCInmJZ7z89WvC3N/WirqKJkNYFwRe79OHGvP0NAr0ZA37FgnHw8RdfPablMahXJNd+z92eMxVbbhICuAdMDujzhTg/q/nd19LUJ6AX3LwF9/GvlNqYcy2U8qkreNU+f5Q6Wavv83e644dzGxYWV+/RsthwHm2Pi9PDVHdnGltcP+xqvf+8+fb/cxuzE7HhhinxBI7mkX1UKGu1IrlOcVhIPVybjjipVD+iSvFCU3ikNt4qevrfu8fsJ6NUJ6KcueaZwg4G0YJycVq3PTLeH0xoKnZz1pRM5A1ibsZQ76OqZHNDlFJ30mcfg7o6fIBHQC+5fAvr/b+9cQ60qwjA8/Qqi/lQWFHSTJKJAii6CURmB2t0su9+hkAzda7Z2ArtbFoXlj6iICjOtLKwIregKQVR017Nn9kmL8pKFmiV6NPPEN2uvNbPOdZ999prLWu8D688+4vr2zNqz5p355v1Y29KjAxI+eZ5ti19857GQqIjxxqr65UP++0i+1PieX1mJb0D3+CZrumqDq+3KcTgUKrULR1yDuihwsdRoi2s8SHH/l5UZ891JVRV4ffTQ1SJkjzqyAYor0H01jMt4xcgOVma4WGK87691FgcEugeELNDpnIp+kCfYvz/OoOfbvhDoIyKSnwUpfPIgqk01JgBvstCg8l3xhOqdoUvqpWZrM5gLqrXD9FnCIVKe413ojV6mXA4F9UUiBn07z+li11ZP+j91FgcEuoY8R/T8qFOVcuoPCPRyCXQfDeMSHykaS+n9UWZIy5hmj87iwA66e0IV6NlyDIvdxACBnm/7QqC3TFQ/3vh9PMfKDtVAT1L7QpwEUJm1ZszXaPcySW3tqI+yGmMmDrmiEcefg7pJU+k7fYZ7PAuFjKGReMN1OO7p2Uel+aeps+I4J2FAoPca8+THhhB7u9/UYQj0kgl0NT6PNcavrU4d02fJw9MjGTBbThZQupweUyMg0D0gRIFOZlfpLpH4VZ2BcwEEes7tC4HeMpFcYOwYn9bObgkWLh41Fi2GX1fcFzPMwczXkpJfNBl3SVVMa6omui4NJYM6w22KGi4mug7HCyryLqNNHnMSAwR6llmrDsxM9iP5cJ82g0Avn0DvbSBLNbjdxTHX2DGe5CwOn6A0f/2bfdxRDB+lMbg8C5+gjuokJWfLQmgCfaY8xtgJ26Vcg10BgZ5z+0KgtwQZienB7Pt2d0uwVDrHqN29uF1+Ds6Ihov3B+3T2JNjT9Nn1fN/BrcMulhA8aY7J7LKQizdx+UvwT1HeWH2J2VOzKjv684kTuyxfm9fiTpPYJH82zAGuzrzdwj0cgp0HwzjaOykMdRFSVCfibXFbrdjKQS6e0IS6FTTWTs97mVR/Ua38SDFPd/2hUBvrd3qVxmrr7e3u1uCJhKfOKv60M5+7a9GaiSjxkTnL09WvJ8aNC2fjNWaSdv3jaqcbOw8zXUdjleQv0NqECim2b8/BPoA7TLJEJQ7M1lVEOjlFOgElzcY75QflCeI1fuLicbu+d1W7+07XC435nFXWL8/BLoHhCLQY8fc7Vqc125zHRIEet7tC4HeWrsl5w7FDrVKDjS0e6QnBK8H1TQkukl8xy/sBX3+HolvG9/rWeYDkTjFELKVvufspAzy3GEycaKFBTo/CTRUIUFP+D+03jQQ6AOTLIjFz+761IcDAr28Al15R6RmsvYN48i/I8l4oWNcoP+FYBLLtoFA9wDfBTo5j5ITsK5j3O20jIsJdtBzbl8I9OG3WX10msbNxYt5dEvQUOo1l5uDdd/m4plG325SJlD9mQJW5RnMF2hXJo7rx8znFKOOdzILM/XwLdfheAelqKbp/2Ivq64+1ur9IdAHQS2KLTYWKL9m96zfDwK9zAKdFn5rJ+qjKWKbtXfiHWsO1WOpY88UH3E+liLF3T2+CnQ651eRV6qVXnPV1yenXwj0nNsXAn1ERmg+/VZ8ghb89CR1DgsJ3jVOx16/QH8u5zc+X+uV2RqXXMdbO1l/Lp5vtP9vXtThbcUIzWx/oOHyPmMXfb4bkzjxH7pkwCycL4zx72UI9JILdCISC41n4gXrGR2UIQv66Rd5r6F/HrHaRBDoHuCbQKeSPNXaTcqpT7/k6eF8RTmS+gQEes7tC4E+7N8O7azGK66r8+qW4KEdA53S1+WVoG0GLmuZFP14pT325ojk/cy3MVKX0FmoPqvWDjCOKz3AQiE2NFob5MKCTaLVRxoZb79nMj1yvzcE+pBQajsX6wxBlhge9rA5a46w0U2FoEgC3bphXKYs4zrrZ99DgX6PeizdNGjJ0nYDge4BPgh0NcGsncUi8XTqPq2FuWDV+vnMRyDQc25fCPRhURWXGZOuWXl1SyHg4nOjrSawkEh3HkS3WrSk+NOdiM4xzDeSUmo0ttMEoyJuSXc5qSpHKFTq5xrvJb8WQnwjkisNM8ZLHZjE7bV2zxBR/hBiR2auBYFeXoFORPJ6Y+H6m1wXICviHONe4SzSuoDLFUYW2lRr94VAL6lAn75qfzZbnsq4mKkMgiLxR58XBe2gkxGczdX34QKBnnP7QqC3VoZL7GR3dh6UV7cUgkjcnMnOCQkyJtOTw+lpujgtOvgICTRTrKUiSn7AQoLLZenCAu0Sgyb7XL5rrakg0JuHjhCmfiUQ6KzsAr23YVyeFWC4fDUdS+fUjsrtPkUgklOMzYT3LN4XddC9EuhcPtE4y9i+S5XaURPIZfHLM0nB7e8S3XGZFnFREPUQTYFOaTqRfK3wFy2uuBDo9BJ0/d3zvEZqAEI7kToVaknb+qCo0HOsawN3s4o4mIW4Q6mc28W2VKz7CO2a68yoxDSuRwmEUIh+OoRFcldj4rrSdTjeQwvrScqszUk4BPpw22seBHqLFE6gK+E8Nv1eXGxV41676aiPSsdSm4t3RRlLI3F0qQU6l/84n6/ne3UMJNAdXOos1CLG5XXBlYTKCPSSXDZ9ADI76AW/ZtVPH2FbPZT+X9Xa2W3rgyKTOqIr0RWxkKAa0+bzQxMen7MmTBOi+NqsHPVDgYvZRuyXuA4nCMjUKH0+xYN27plmZ/RYuV/oqOOFRu16nEEvt0C3YRiXMQ6VU9r+/xcRbQJLfTKv5AK9p9AXaXIrAp3MgSK5hXG5QRkbxR2+SLmGVsTFwae2QKDn3L4Q6E1BBivxbyw+GhKa6ZkXdbplLah2I3Ebj61J/MuZz1S7Tsq+H8STLKzUz9i0NJIbvT525RPkh5CkUFMFFhtGUBDowyc2bYwzWyDQm6eoAj1Xwzg1lgqMpcOEMiz1cZQNdsZSCHTmXKADAAAID3V8KKCdCC6+M15EY12HAwBoQJsldPwQAh0AAAAAAIAWUUabjXTxGfV9vW9HqiwQx/ul61AAAL2o1s9UWYEAAAAAAACAFqHUVNpJDwEyHOJyN+PyVtehAAAAAAAAAAAA7SWSVca7xgXTrFz5UD4mAAAAEUlEQVQsDc4MFAAAAACA2eF/vbnER11C4ScAAAAASUVORK5CYII=;" parent="24" vertex="1">
                    <mxGeometry x="139" y="90" width="249.38" height="100" as="geometry"/>
                </mxCell>
                <mxCell id="31" value="" style="group" parent="1" vertex="1" connectable="0">
                    <mxGeometry x="600" y="153.75" width="40" height="40" as="geometry"/>
                </mxCell>
                <mxCell id="30" value="" style="rounded=1;whiteSpace=wrap;html=1;arcSize=50;fillColor=#FFFFFF;" parent="31" vertex="1">
                    <mxGeometry x="1" y="1" width="38" height="38" as="geometry"/>
                </mxCell>
                <mxCell id="29" value="" style="shape=image;verticalLabelPosition=bottom;labelBackgroundColor=default;verticalAlign=top;aspect=fixed;imageAspect=0;image=data:image/png,iVBORw0KGgoAAAANSUhEUgAAAgAAAAIACAYAAAD0eNT6AAAABHNCSVQICAgIfAhkiAAAAAlwSFlzAAAN1wAADdcBQiibeAAAABl0RVh0U29mdHdhcmUAd3d3Lmlua3NjYXBlLm9yZ5vuPBoAACAASURBVHic7N13vJxVtf/xzzcJvXcFlYB0pBfpVVERlKaolKsUleoPxYIoVlAUG4pcBERp0g0iRUBAehMELiWAEBSQYmgJoYRk/f7YO+TkcMrMnJlZ+3lmvV+v8yKXS87+es4zs9bsZz97y8wIIZRN0tzAIsN8LQDMAcze52u4/xvg9T5frzXwf78ITBzqy8ymdOLnEEJoH0UDEIIfSbMB7wCWBsbmfy4NvAtYjJnFfU6niK16lZkNwbPAv4DH8teE/M/HzWyqV8AQel00ACF0kCSRCvoKvLXIjwWWBEY5xfM2HXiSmQ1B3+bgQeAxizeoEDomGoAQ2kTS24D39PtaFZjXM1eFTQbuBf6v75eZPeWaKoSaiAYghCZJWgBYnVmL/HtIU/Wh8yaSmoG+zcHdZvaia6oQKiYagBCGkKfwVwA26vO1MiDPXOEtDLgfuLHP14NxCyGEwUUDEEIfkuYB1mNmsd8QWNg1VGjVc8BNzGwIbjOzl30jhVCOaABCT5O0GLA1sDGp4K8OjHENFTrlDeBuUjNwA/BXM3vWN1IIfqIBCD0lP3a3MbAN8AFgLWI6v1cZcCfwF+By4IZ4LDH0kmgAQu1JWoGZBX8LYlV+GNhk4BpyQ2BmD/rGCaGzogEItSNpQWArUsHfhvS8fQjNmkCaGfgLcJWZveAbJ4T2igYg1IKkRYEdgF1I9/TjPn5opzeAvwLnAePM7L/OeUIYsWgAQmXlBXw7kYr+FkTRD93xBulWwXnABbGQMFRVNAChUiQtQSr6HwM2A0b7Jgo9bhpwLXAuqRl42jlPCA2LBiAUT9LbgZ1Jn/Q3pXf3zg9lmw5cR5oZON/M/uOcJ4QhRQMQipQf19sO2Bv4IPFJP1TLNOAy4GTgz/F4YShRNAChKJJWIRX9PUjH4YZQdc8CpwEnm9l93mFCmCEagOBO0vzArqTC/17nOCF00i2kWYGzzewl7zCht0UDENxI2oxU9HcB5naOE0I3TSGtFTjZzK71DhN6UzQAoavyp/19gP2A5ZzjhFCCh4HjgZNiViB0UzQAoSskjQUOJhX/+VzDhFCmScBJwLFmNsE5S+gB0QCEjpK0AfBF0rP7sZI/hOFNAy4AfmpmN3uHCfUVDUBoO0mjSQX/EGBD5zghVNlNwM9ImwxN8w4T6iUagNA2kuYjTfEfTBzAE0I7TQCOJa0TmOScJdRENABhxCQtDhwKfA6Y3zlOCHX2EnACcIyZPeMdJlRbNAChZfkwni8DBxCP8YXQTVOA44Afx2FEoVXRAISm5aN3ZxT+eZzjhNDLXmZmIxBHFIemRAMQGiZpEdJU/4HAvM5xQggzTQZ+Rbo1MNE7TKiGaADCsCQtTCr8BxGFP4SSTQZ+SWoEnvMOE8oWDUAYVC78XySt6o/Ne0KojkmkpwZ+Go1AGEw0AOEtJM1O+rT/TWAB5zhhpinAROC/ff75337/7nngtfz1er+vgf4dwOz9vuYY5N/NASwELAIs2uefi/b7d7EgtBwvAt8Dfmlmrw/3H4feEg1AmIWkHYAfE/v0d9urwGOk570f7ffPJ4GJZvaKU7amSJqL1AgsSdoPYpl+/1wamNMnXc96GPiymY3zDhLKEQ1AAEDSmsBPgS29s9TYK8C9wD3AP5lZ5B8FnrIeeTFKEvA2UkMwoyl4N7AasCowl1u4+rsa+KKZ/cM7SPAXDUCPk/Q24PvAZ4BRznHqZAJwd7+vh2M716HlbaSXA1bv9zXWMVbdTAdOAb5hZk95hwl+ogHoUZLmJO3VfxixwG8kjPSp/kbgH6RCf08c69pe+Rjp1UjNwJrARqTZAnnmqrhJwA+An5nZq95hQvdFA9CDJO0KHE26Fxua8wpwG3A9cANwo5m94BupN0lakNQIbAxsAqxH3D5oxWPAV83sbO8gobuiAeghklYi7SO+mXeWCnmGVOhvIBX9O8xsqm+kMBBJswFrk5qBjfPX4q6hquVa4HNm9oB3kNAd0QD0gPxY31eBw0mPcoXBvUp6I7wUuNTMxjvnCSMgaUXgQ/lrM+Lpg+G8BhwJHB2PDdZfNAA1J2kj4ERgFe8sBXuEXPCBq81sinOe0AGS5iY95TKjIVjWN1HR7gP2NbMbvYOEzokGoKbyoqkfAPsRC6X66/sp/xIze9A5T3AgaQVSI7AtMTswEAOOBw6LRa31FA1ADUn6KOmEsKW8sxTkZeAi4Gzg8viUH/rKswPbALsC2xOnXPb1BHCAmV3oHSS0VzQANSLp7aSDQHb2zlKIV4BLSEX/4ij6oRG5Gfgw8PH8z3iyIDkfOMjM/uMdJLRHNAA1kHdW+yzp0b5e37v/NeAyUtG/yMwmO+cJFSZpXtKMwK7AB4lFtC+SFhT/pld2rqyzaAAqTtKSpF29tvHO4mgacDlwFjAu7leGTsjranYAPkF6vY32TeTqcuAzZvakd5DQumgAKkzSzqTn+hfxzuJkAnAycIqZPeGcJfQQSUuRts/em97dpngiad+A872DhNZEA1BBkuYjnfX9aecoHl4HLgROAq6IacjgKd9+ez+wD/BR0tHJveZ3wMFmNsk7SGhONAAVI2lj4DTSKWq9ZDyp6P/ezJ71DhNCf5IWA/6H1Ays6Byn2x4F9jCzG7yDhMZFA1AReZvTbwFfo3fuPb4GnAOcaGbXeYcJoVGSNgX2JT1J0CsLB6cBPwS+E9tlV0M0ABWQtzM9HVjXO0uXPAf8GviVmT3tHSaEVklaAjgQ2B9Y2DlOt9wO7B7baJcvGoDCSdoPOAaY2ztLF/wT+BlpUV88sx9qI+8t8BnSEdzvdo7TDVOAQ83seO8gYXDRABQqP3L0O2BH5yjdcBOpyRlnZtO9w4TQKZJGkR4lPBTY0DlON/wR+HQ8mlumaAAKJGkV4ALqvZBoOjAOOMbMbvIOE0K3SdqQ1AjsAIxyjtNJ44GdzOw+7yBhVtEAFEbSx0nPts/rnaVDpgGnAkea2T+9w4TgTdK7SUd170l9F/hOBvY2s3O8g4SZ6tx1VoqkMZJ+QtrCto7FfzpwJrCyme0VxT+ExMz+aWZ7ASuTXiN1vA02L3C2pJ9IGuMdJiQxA1CAvFL4HNKRpHVjpPuAR5jZvd5hQiidpFWB75LW/9TxKO9rgY/HEz7+ogFwJmkj4FxgSe8sHXAx8E0zu9M7SAhVI2kt4HukEwnr5kngY2Z2o3eQXha3ABxJOhC4hvoV/yuBDc1suyj+IbTGzO40s+1ITwtc6Z2nzZYErpF0gHeQXhYzAA4kzQX8BtjdO0ub3Ql80cyu8Q4SQt1I2gL4KbCWc5R2Ox34rJm94h2k10QD0GX5fv9FwHreWdroadIq5lPiOf4QOifvI/AZ4EhgCec47XQbsH2sC+iuaAC6KC/uuRhY2jtLm7wO/Bz4fpwEFkL35I3CDgf+H/U5gfAx4MOxWLh7ogHoEknvA84DFvDO0ibjSFt9xuN8ITjJewgcQ9pMqA5eBHYxs7qteShSLALsAkl7A5dSj+J/D7C1me0YxT8EX3kPgR2BrUmvzapbALg0v2eGDosGoIOUHEU6x77qm19MBPYD1jKzq7zDhBBmyq/JtUiv0YnOcUZqDHCSpKMk1XEfhGLELYAOkTQn8HvSeeBVdxbwBTN7xjtICGFokhYHfgF8wjtLG5wD/I+ZveodpI6iAegASYsBF1L9077+DexvZn/2DhJCaI6k7YBfA+/0zjJCNwEfNbNnvYPUTdwCaDNJKwI3U+3ib6Q3jlWj+IdQTfm1uyrptVzlT3obAjfn99bQRjED0EaS1ict9lvYO8sIPADsY2Y3eAcJIbSHpI1Ja5FW8s4yAs8BHzKzW72D1EXMALSJpM1I23VWtfhPJe07vmYU/xDqJb+m1yS9xqc6x2nVwsCV+b02tEHMALSBpA+QTrybyztLi24H9jKzOjxGFEIYgqTVgN8C63pnadErwI5m9hfvIFUXMwAjJGlH4E9Us/hPB34AbBTFP4TekF/rG5Fe+1Xcunsu4E/5vTeMQMwAjICk3YDfUc1n/P8N7GFmf/MOEkLwIWlz4DSq+aTAG8CnzewM7yBVFTMALZL0WeBUqln8zwXWiOIfQm/L7wFrkN4TqmYMcGp+Lw4tiAagBZIOAU6gej+/yaR7/R83s+e9w4QQ/JnZ82b2cWAv0ntElYwCTsjvyaFJcQugSZK+CXzXO0cLbgM+ZWYPewcJIZRJ0nLAmVTzuPIjzOx73iGqpGqfYF1JOprqFf/pwFGkhX5R/EMIg8rvERuR3jOqtkDwu/k9OjQoZgAalC+sr3jnaNJE4JNmdoV3kBBCtUh6P/AHYBHvLE36kZl91TtEFcQMQAPytH/Viv/twNpR/EMIrcjvHWuT3kuq5Cv5PTsMIxqAYeTFJVWb9j8R2MTM/uUdJIRQXfk9ZBPSe0qVfDcWBg4vbgEMIT9ecoJ3jia8ChxgZr/1DhJCqBdJewHHAXN6Z2nC58zsN94hShUNwCDyJj+nUp1ZkgnAzmZ2h3eQEEI9SVobOB8Y6xylUdOBPWOzoIFVpbh1Vd5i8ndU5+fzF2CdKP4hhE7K7zHrkN5zqmAU8LvYNnhgVSlwXZMP9jmL6uzw931gWzN7zjtICKH+8nvNtqT3nioYA5yV39tDH3ELoI98zORlVONgn6nA3mZ2mneQEEJvkrQHcDIwm3eWBrwCfNDMrvUOUopoADJJ6wNXAvN5Z2nAC8BOZna1d5AQQm+TtCVwAbCgd5YGTALeZ2a3egcpQTQAgKQVgRuBhb2zNOAx0pT/fd5BQjkkzQ+smL+WJDWy/b/mH+DfQXpT7P/10gD/7klgPDDezF7qxv+uUA2SVgEuAZb2ztKA50g7o473DuKt5xsASYsBNwPLemdpwN+B7czsKe8gofskjQGWIRX5FZhZ8FcE3tblOE+Rm4H89WD+56Nm9kaXs4QCSHob8GfSIsHSPQJsYGbPegfx1NMNgKQ5gauADb2zNODPwCfM7GXvIKE7JC0BbAlsBWwMLE/591qnAg8BN5BeW1eb2dO+kUK3SJqHtIh6O+8sDbgJ2MrMXvUO4qVnGwBJIl2oH/fO0oBfAweb2TTvIKFzJC0EbE4q+FsBq/omapt7Sc3AVcDf4ijqepM0GjgW2N87SwPOIX2w6slC2MsNwFHAYd45hmHAV8zsGO8gof3yDNQWzCz4a1H/R3OnA3cysyG4ppc/gdWZpEOBHwHyzjKMH5jZ171DeOjJBkDS3sBJ3jmGMR3YN7b1rZc887QJsCfwMWAB30TuXgTOJe26eX2vfhKrq7x98ImU39juY2Yne4fotp5rACS9D7iUsjf6eQPYw8zO8g4S2kPS8sAewO6khXzhrR4FTgdOM7OHvMOE9pD0CeA0yn/P/ZCZXekdpJt6qgGQtCppcVLJn7peA3Y1swu9g4SRkbQwsCvp0/4GznGq5mbSrMDZsctl9Un6KHA2MId3liG8CGxsZvd6B+mWnmkA8orqWyj7OdUpwI5mdrl3kNC6vKPkF0groWd3jlN1r5OegPlF7OBWbZK2Af4IzO2dZQiPAe/tlSdXeqIBkDQX8DdgPe8sQ5hEesY/3uQqStL7gW8Cm3pnqanrgO+Z2RXeQUJrcnP8Z8recfU2YHMze8U7SKeVvjCjXX5D2cX/edL2lFH8K0jS9pJuAS4nin8nbQpcLukWSdt7hwnNy+9x7yO955VqPVLNqL3azwBIOhD4pXeOITwDbGNmd3kHCY2TNArYGTgcWMM5Tq+6CzgSON/MpnuHCY2TtAapYV7cO8sQDjSz47xDdFKtGwBJGwHXUO7uac8AW5jZ/d5BQmPyJiefBL4OrOwcJyT3A0cBf4jNsqpD0sqk9+dSm4CppPfnG72DdEptG4C86O8O0sEoJXoe2DI++VeHpC2A44BVnKOEgd0HHGBm13gHCY3JMwFXAwt5ZxnEk8DadV0UWMs1APnQlHMot/hPIp1LHcW/AiS9TdLppDeqKP7lWgW4WtLp+WCaULj8HvhB0ntiiZYEzsk1pXZq2QAARwObeYcYxBTSav84j7pwkkZLOgh4ANjNO09o2G7AA5IOyrdsQsHye+F2pPfGEm1Gqim1U7tbAJI+TtpwokSvAR+J5/zLJ2kD0iFMa3lnCSNyJ7C/md3sHSQMLe8T8CfK3SxoVzM7xztEO9WqAZC0Cmmzn3m9swzgDWCX2OGvbJIWAX4I7E35h5iExhhwMvA1M5voHSYMLu8YeB5lbhs8mbRJ0H3eQdqlNg2ApPmBW4EVvbMMYDqwW+ztXzZJnyQ9MrqId5bQEROBg8zsD95BwuDy2QFnUOYt6vHA+mb2kneQdijxB9yq31Fm8TfSqX5R/AslaS5JvwHOJIp/nS0CnCnpN3l30FCg/F65L+m9szQrkmpNLdSiAZC0H7Cjd45BfCWO9C2XpJVIt4329c4SumZf4Jb8uw8Fyu+ZX/HOMYgdc82pvMrfApC0Iul5/xIPmPi1mR3gHSIMTNIewPHAPN5ZgouXgf3M7DTvIGFgko4D9vfOMYAppP0BxnsHGYlKNwCSZgNuBNb1zjKAPwM7xM5k5ZE0N+le/17eWUIRfktaG1DqY2g9Kz/GOY70mGBpbgc2MrOp3kFaVfVbAN+izOL/d+ATUfzLk58UuZUo/mGmvYBb87URCpLfQz9Bek8tzbqkGlRZlZ0BkLQx6Yjf0jb6eAzYwMye8g4SZiVpN9IpXyXeLgr+pgCfNbMzvIOEWeWdHW8GlvbO0s800tHBN3gHaUUlZwAkzQecRnnF/wVg2yj+5ZH0FeB0oviHwc0NnJ6vlVCQ/J66Lek9tiSjgdNyTaqcSjYAwLHAMt4h+pkK7FSnTSLqQMlPqOlWnqEjjpb0E0mxEVRB8nvrTqT32pIsQ6pJlVO5WwCSdibtFFWaPWM1cVnyItHfArt7ZwmVdDqwV5UXedVRfnrnVO8cA9jFzM73DtGMSjUAkpYE7qa8zVq+b2bf9A4RZsor/c8DPuSdJVTapaQ39nhCoCCSvgd8wztHPxOB1c3sSe8gjapMA5Cn4y4DtvHO0s9fSPf9p3sHCUnez//PwAbeWUIt3Ew6wTPOESiEpFHAJcAHvLP0cznpqPdKFNYqNQCfA/7XO0c/E4B1zOw57yAhkfROUlO2sncWJ5NJ+5XP+HqcdNb6JOClPn+e8QUwX7+v+fv8+R2k7U9nfJV40FY33A98wMz+7R0kJJIWJj0eONY5Sn+fN7MTvEM0ohINgKS3k16AC3hn6eNVYGMzu8M7SEgkrQD8lVS06s6Au4DrSa+N8cADZvZEJweVtBSwEqkZWBnYBFiD3jg58XFgazN70DtISCStDdwAzOmdpY8XgZXN7D/eQYZTlQbgPGBn7xz97B17/Jcjrw+5kfKeE26n+4CrgauAa0qZecqfxLYAtgK2BOq8oc5jpN3fKnOft+4k7UU67rkk55vZLt4hhlN8A5DPhx7nnaOfE83ss94hQiJpQeA64D3eWdrsFdK1fxFwdVX2l8ibtmwJbA/sANTt5L3/AzY1s9KeSe9Z+TTP0g702sHMLvQOMZSiGwBJ85M+9SzlnaWP24FNzOw17yAhHeVLWniziXeWNjHSDpenAueZ2aRh/vui5Q1SdgH2BDanPrcKrge2MbNXvIMEkDQH6XdS0tbwTwCrmNlL3kEGU3oDUNpJUBNJJ0D9yztIePOgkD+SPmlW3YOkon+6mT3mHaYTJC1N2pNhT2AF5zjtcBGwY5z5UQZJ7yKdDFvSY+JFnwhbbAMgaSNSR1fKJ4bppMc7rvAOEhJJvwU+451jhK4AjjSzv3kH6SZJmwOHA+/3zjJCp5hZHCxVCEnvJz0uXsout0aaMb7RO8hASvkhzULS7MCJlFP8AX4Yxb8ckn5ItYv/RcB7zWybXiv+AGb2NzPbBngv6WdRVZ/J12IoQH6PLun3IeDEXNOKU2QDAHyVslYS30bFj32sE0mHkK6RqpkOnAusaWYfMbNbvQN5M7NbzewjwJqkn00VN9T6ar4mQxm+RXrPLsUqFPp+VdwtAEkrAf8A5vDOkk0G1jKzh72DhDefCvkjZc0ONeJPwFfN7AHvICXLr/+jgY94Z2mSkdYDFL3qu1dIWg64k3I2rnqN1PgX9fovcQbgBMop/gAHR/EvQ15EdgrVKv4TgI+Y2UdLe/GXyMweMLOPkhqACc5xmiHglHyNBmf5Pftg7xx9zEGqbUUpqgGQtCuwmXeOPs41s1O8Q4Q3T/Y7C1jIO0uDXgeOIj0GVOV73C7yz2wV0s/wdec4jVoIOCtfq8FZfu8+1ztHH5vlGleMYm4BSJoTeIBydnL7N7CGmT3vHSSApB8Dh3rnaNBVwP5mNt47SB1IWhH4NWmnwSo4xsy+7B0igKSFSFtmv9M7S/YYsJKZveodBMqaATiEcor/dGCPKP5lkPRh4EveORowGfi0mW0dxb99zGy8mW0NfJr0My7dl/I1G5zl9/A9KGdx6dKkWleEImYA8tahD5JOHyvBD8zs694hAkh6B2lRaEmbewzkLuDjcVBMZ+UDn84hHUBUsomkRV+PewcJIOko4DDvHNkkYIUStvYuZQbg+5RT/G8nHvkrQt7p7w+UX/z/F9ggin/n5Z/xBpR3NHh/iwB/yNdw8Pct0nt7CeYj1Tx37jMAktYknelcQjMyFVjHzO7xDhJA0pFAyTMxLwH7mtk53kF6kaSPkzYMm987yxCOMrPDvUMEkLQaqdaUsEhzOqnW/MMzRAlF96eUkQPSbn9R/AsgaSvKmbIbyJ2kcyGi+DvJP/u1Sb+LUh2Wr+XgLL+3l7JL4ChS7XPlOgMgaQfSpi4leIB0zy5O+XOWT/a6B1jeO8sgLgd2NrMqLEirPUnzAucD23hnGcRDwGrx3uIvv7f8A1jJO0u2o5m5HXfv9sk77438Y6/x+zFgn3iBFuOrlFv8/wBsF8W/HPl3sR3pd1Oi5Sl0K9hek9/j9yG955fgx57nBHhOvR8ELOc4fl/Hm9kN3iECSFqWcqf+jwV2M7Op3kHCrPLvZDfS76hEh+VrOzjL7/XHe+fIliPVQhcutwAkLQw8AizQ9cHf6t/AqmY2yTtIAEkXA9t65xjA183sB94hwvAkHUbaQbA0l5hZ7A9QAEnzAfdSxgZBLwLLmtlz3R7Yawbgi5RR/CHt2BbFvwCSdqS84j+ddHsoin9F5N/VPpSz+csM2+ZrPDjL7/n7e+fIFiDVxK7r+gxA/vQ/gTKe+z/LzD7pHSKApHmA+ymjI+9rPzMr/ZnzMABJn6ecqd4Z/g2sbGYvewcJIOkPwCe8c5A2Bxrb7VkAjxmAQymj+E8EvuAdIrzpCMor/t+O4l9d+Xf3be8c/byTdK2HMnyBVAu8zYfDWSddnQGQtAjp038JZzTHJ7tCSFqF9GhOCRt0zHC8mZUyRRhGQNKvgf28c/QxlfTI8X3eQUJRM0WTSbMAXWtIuj0DcChlFP97SDuIhTIcS1nF/zzgQO8QoW0OJP1OSzEb5T6t0ItOJNUEb/PS5VmArs0ASFoUeJQyGoCtzewq7xABJG0MXO+do4+rgG1jT4h6yRvAXEJZRwpvEo8flyHv1vhX7xykWYBlzOy/3RismzMAX6aM4j8uin9RvukdoI8HSDtzRfGvmfw73ZH0Oy5FSdd+T8s1wW1Hvj7mJdXKrujKDICkxUif/ufp+GBDex1Yxcz+6ZwjAJLWBW7zzpG9Arw3zoKot3wgzC3AXN5ZsvXMrJRT6nqapHcD9wFuO/NlL5NmAZ7t9EDdmgH4Mv7FH+DnUfyL8g3vAH0cHMW//vLv+GDvHH2U9Broabk2/Nw7B6lWdmUWoOMzAJIWJ336n7ujAw3vaWAFM3vJOUfgzU9idwHyzgKcbmZ7eIcI3SPpNGB37xykPenXiOazDHmHwIeAJZyjTCHNAjzTyUG6MQNwKP7FH+DwKP5FOZwyiv8DlPWIWOiO/ShjPYBIr4VQgLxDYAm/j7npwhMBHZ0ByN3U48D8HRukMXcC65pZaVuD9iRJK5LutXkeRgVx37+nFbQeYDppbdJ45xwBkDQKuB1YyznKS8A7OrlVfaffgPfBv/gDfDGKf1G+jn/xB/hKFP/elX/3X/HOQXotfN07REhyrXDZm7+f+Uk1tGM6NgMgaTTwMDC2IwM07koze79zhpBJWgZ4EBjjHOUO0grsaAx7WP60dxuwtnOUN0hrlB51zhEySVcA73OOMQFYzsymdeKbd/JT2E74F3+IZ21Lsw/+xd9Ip0BG8e9x+RrYn3RNeBpDhz/thaaVUDvGkmppR3SyATikg9+7UReb2c3eIUIiSZSx8vokM7vFO0QoQ74WTvLOAeyeXyOhALl2XOydgw7W0o7cApC0AXBT279xcwxYx8zudM4RMklbAFc7x5gIrNjNAzdC+fJBZeOBRZyjbGlm1zhnCJmktYC/4//E0oad+DDbqRmAEhZQ/DGKf3H29A4AfC2Kf+gvXxNf885BGa+RkOUa8kfvHHSoprZ9BkDSWNLiv9Ft/cbNmQ6sbmb3OmYIfUiai7QZ03yOMW4FNrBunoEdKiNPv98MrO8YYxKwhJm94pgh9CFpVeBufJ9cmkZaDDihnd+0E/+DDsa3+AOcFcW/ODvgW/wBjojiHwaTr40jnGPMR3qthELkWnKWc4zRdGAL67bOAEian7Txj+cb/TRgZTN7yDFD6EfSpcAHHSPcbmbrOY4fKkLSbcC6jhEuM7MPOY4f+pG0PHA/vh9uJ5E2BmrbjrbtngHYB/9PeadG8S+LpLcB3nsxHOU8fqgO72vl/fk1EwqRa8qpzjHmo82Pira7AfDeU306cKRzhvBWn8K3c76XMs76DtUwjnTNeBlNes2EshxJqjGe2lpj29YASNoMWK5d369F4+K43yJ5n7R3VNz7D43K14r3LID3ayb0k2uL9weJ5XKtbYt2zgDs3cbv1apjvAOEWUl6O7CmY4SHgbMdMf/VHQAAIABJREFUxw/VdDbp2vGyZn7thLKUUGPaVmvb0gDkxX+7tON7jcBNZua9+VB4q62cxz+mU/toh/rK14z3m733ayf0k2uMd53ZJdfcEWvXDMCupPOLPXm/WMPAPN/EXgH+4Dh+qLY/kK4hL9EAlMm71sxNqrkj1q4GwHv6v4R7M2Fgnm9i49r5yEzoLfna8XxfiQagTONINcdTW2ruiBsASasA721DlpH4WZzsVp589O9Yxwjej+2E6vu949hj82soFCTXmp85x3hvrr0j0o4ZAO9P/88BpzhnCAPz/ATzH+AKx/FDPVxJupa8xCxAmU4h1R5PI669I2oAJM2G/+MqvzazKc4ZwsA837zOiMV/YaTyNXSGY4RoAAqUa86vnWPskWtwy0Y6A7AdsNgIv8dIvAb8ynH8MLQtHceO6f/QLp7XkudrKAztV6Qa5GUxUg1u2UgbAO/p/3PM7GnnDGEAklYCvJ5jvsvM7nEaO9RMvpbuchr+7fm1FAqTa885zjFGVINbbgDyJhWeh7sAnOg8fhic59TlZY5jh3ryvKbiNkC5vGvQB0eyYdRIZgB2xnd/9/Fmdp3j+GFonmeqX+04dqgnz2vK87UUhpBr0HjHCKNJtbglI2kAvHf+O8l5/DC0FZ3GnQpc7zR2qK/rSdeWB6/XUmiMdy1quRarlTNSJC0BPEn7TxNs1Oukc5GfdRo/DEPSc8BCDkNfb2abOowbak7SdcAmDkM/b2YLO4wbGiBpMeBxYHanCNOBJVtZD9dqAd9pBH+3HS6M4l+u/ILwKP4Q0/+hc7yurYXyayoUKNeiCx0jjCLV5Jb+Yis+1uLfaxfvKZcwNM8py6scxw715nltxW2AsnnXpJZqctMNQO5E23YecQsmEDu8lc7rzepV/E/qCvV1E+ka8xANQNmuINUmL5u1MkvUygzATviu/j/ZWlm4ELrJ683qLjPz3Jgj1Fi+trz2A4gGoGC5Jp3sGGE0LdwGaKUB8Fz9P43Y978KvN6sHnAaN/QOr2ssGoDynUKqUV6ars1NNQCSFgW2aHaQNrrczJ5wHD80xuvNyvN53NAbvK6xaAAKl2vT5Y4Rtsg1umHNzgDsAIxp8u+001mOY4cGSBoDLOs0fMwAhE7zusaWza+tUDbPGjWGVKMb1mwD4Dn9/xowznH80JhlgBGdUDUCMQMQOs3rGpuN9NoKZRuH7wFBTdXohhsASQsCWzcdp30uM7OXHMcPjWlqCqqNpgEPO40desfD+N3n9XpthQblGuV5bsTWuVY3pJkZgK3wnf4/23Hs0Lj5nMZ91Mxedxo79Ih8jT3qNLzXays0x7NWjaGJw6OaaQA+0HyWtnkFuMhx/NC4+Z3Gjen/0C1e11o0ANVwEalmeWm4VjfTAGzTQpB2udjMJjuOHxrn9Sb1jNO4ofd4XWtezXVoQq5VlzhGaLhWN9QASFoBGNtqmjY4x3Hs0ByvBmCS07ih93hdazEDUB2etwHG5po9rEZnADw//b8MXOw4fmhONACh7qIBCMO5mFS7vDRUsxttADzv/19kZlMcxw/NiQYg1F00AGFIuWZ5rltrqGYP2wBImg3f3f9i9X+1RAMQ6i4agNAIz9q1Ra7dQ2pkBmBjYN6R52nJq/hurRiaFw1AqLtoAEIjLsfv9Mh5SbV7SI00AJ73/6+N6f/KiQYg1F00AGFYuXZd6xhh2NrdSAPgef//UsexQ2u8ZoviMdHQLV7XmtdrK7TO83HAYWv3kA2ApMWAtdoWp3meP7zQGq8pL6/zB0Lv8brWvF5boXWeH2LXyjV8UMPNAGwNqH15mvKImT3oNHZo3QtO48b0aOgWr2vN67UVWpRr2CNOw4thzu8ZrgEYdhFBB8X0fzU97zRu7JIWusXrWvN6bYWR8axlQ9bw4RqAjdoYpFnRAFRTzACEuosZgNAMz1o2ZA0ftAGQNA+wetvjNOZV4GqnscPIRAMQ6i4agNCMq/Fbv7F6ruUDGmoGYD38jv+Nx/+qy2uaMhqA0C1e11rcAqgg58cBx5Bq+YCGagBi+j+0ImYAQt3FDEBolucTbYPW8mgAQrt5vUnFIsDQLV7XWjQA1XWZ49jNNQCSBGzYsThDe8bMxjuNHUbOa5pyWadxQ+/xutbiFkBF5Zr2jNPwG+aa/haDzQCsACzcuTxDusFp3NAeXp9SVnQaN/Qer2stZgCqzau2LUyq6W8xWAPgOf0fDUC1eb1JLShpcaexQ4/I19iCTsNHA1BtnrVtwJpeYgNwvePYYeReBKY7jb2S07ihd3hdY9NJr61QXZ61rRINwCvAHU5jhzYwMwNecho+bgOETvO6xl7Kr61QXXeQapyHxhoASQsAK3c8zsBuM7OpTmOH9vFa7BINQOg0r2vM6zUV2iTXttuchl851/ZZDDQDsDp+BwDF9H893OM0btwCCJ3mdY15vaZCe3nVODHAzr4DNQDv6XyWQcUCwHq402lcz2s39Aava8zrNRXay7PGveXaLakBMOBGp7FDe/3DadylJS3tNHaouXxteV1fXq+p0F43kmqdh4YagFW7EGQg95pZPOZSD56fVrZyHDvUm+e1FTMANZBr3L1Ow7+ltpc0AxCf/mvCzJ4EnnUafkuncUP9eV1bz+bXVKgHr1o39AyApLcBi3QtzqxiiqtevD6xxAxA6BSvays+/deLV61bJNf4N/WfAfBcRHW349ih/bwu8qUkDbjtZQitytfUUk7Dx4ejevGsdbPU+JIagHjMpV48P7XEbYDQbp7XVMwA1ItnrSuyAZhgZl67x4XO8PzUErcBQrt5XlMxA1AjudZNcBq+yAYgpv/r50FgitPY20qa22nsUDP5WtrWafgppNdSqBevmjdwA5DPC/Z6BDAagJoxs+n4/V7nBXZ0GjvUz46ka8rD3fm1FOrF671x1VzrgVlnAJbG8SJ3Gjd0lue9yz0dxw714nktxf3/evL8cPTmZlZ9GwDPldPRANTT3x3Hfp+kJR3HDzWQr6H3OUbwfA2FzvGseW/W+v4zAB5eAR52Gjt01iWkc8w9jAJ2cxo71MduDH5seqdNBy52Gjt01sP4HQ084AzA2O7nANIWwNOcxg4dZGb/wXeHx7gNEEbK8xq60cyechw/dEiueV5bAo+d8YcSZgDi+f96O99x7PdIWstx/FBh+drx3BvlPMexQ+d51b4BZwC8GoB/Oo0buuN8/E6/AjjQcexQbZ7XjgEXOI4fOs+r9hV1C2CC07ihC8zs38BtjhH2iCOCQ7PyNbOHY4Rb82sn1NcEp3HHzvjDKABJswFeK6YfdRo3dI/nVOZswFccxw/V9BXSteMlpv/rz6v2LZlrPjIzJC0DPOIVJi8WCzUlaVl8b/W8BiwT11lohKS3k96c53CMsayZxYejGsvXmdcxz8ua2aMzbgF4TZG+CsQq15ozs0fw3c98DuBQx/FDtRyKb/G/I4p/T3iKVAM9LA0z1wCMdQrxmJl5LhAL3eM9pfk5SYs6ZwiFy9fI55xjeL9WQhfk2veY0/BjYWYD4DUDMMFp3NB9no8DAswDHOKcIZTvENK14sn7tRK6Z4LTuLPMAHg1ADHN1SPM7AH8Nr6Y4RBJY50zhELla8O7SbzHzOL0v97hVQNnaQDe5RRigtO4wYf3J5u5gGOdM4RyHUu6RjzF9H9vmeA07rtgZgOwmFOImAHoLafhdzbADNtL2s45QyhMvia2d44xjfQaCb3DqwYuBjMbgEWcQkxwGjc4MLOHKWN3s2MleX/SC4XI10IJM0Pnxur/njPBadxFwL8B8HoGMvj5oXcAYBngMO8QoRiHka4Jb0d7Bwhd51UDFwEQMDfwslOIuc3M60jE4ETSFfiesQ5pc6D35FmJ0KMkLQf8H77P/QP8xcw+6JwhdFmefZriNPw8o/D79D8lin/PKuGTzhzAyZJGewcJPvLv/mT8iz+UMTMWuizXQK8GYBHPBmCi07jBmZldCfzdOwewGfAd7xDBzXdI14C3W83sGu8QwY1XLXRtAP7rNG4oQwmzAACHSdrGO0Torvw7L2UdSHz6721etTBmAIKb84ES7r+PAk6T5HUaZuiy/Ls+jVmPQ/cyHhjnHSK4ihmA0FvMbDrwY+8c2eLAmbEeoP7y7/hM0u+8BD+K81B6Xk/OAEQDEH5POadBbk6sB+gF3yH9rkvwBHC6d4jgricbgLgF0OPM7DXg5945+jhM0s7eIUJn5N9tKff9AX5mZq97hwju4hZA6FnHAy96h8hGAWdIKuUTYmiT/Ds9gzLu+wM8D5zgHSIUwXUGYAGnwWMGIGBmLwHf987RxxzAhZJW9w4S2iP/Li+kjOf9Z/iumU32DhGK4FULFxiF34vieadxQ3l+DtzlHaKPBYDL4ujg6su/w8vw+6AzkDuAX3qHCMXwqoVzjAJmdxr8NadxQ2HM7A3gc/ifFNjX24G/SFrUO0hoTf7d/YX0uyzFdOBzZjbNO0gohlctnD0agFAEM7sF+F/vHP2sAFwsaT7vIKE5+Xd2Mel3WJLjzOx27xChKD3ZAMTq19DfYcB/vEP0sz5wjaQlvIOExuTf1TWk311JngS+4R0iFMerFs7uuQYgGoAwi7wg8AveOQawNnCDpHd7BwlDy7+jG0i/s9J8IV/jIfTlVQtd1wBEAxDewszOJU3dlubdwI2SSiwsAci/mxtJv6vSXGxm53mHCEVynQGIBiCU5gD8jsgcyuKk2wHv8w4SZpV/J9dQzha/fU0BDvQOEYrVkw1ALAIMAzKzx4Bve+cYxHykhYGf8g4Skvy7uJj0uynRd8xsgneIUCzXRYCxBiCU6GeUtTdAX7OTdgz8laSSNpfpKZLmkPQr0g5/Xh9khnMP8FPvEKFosQYghL4K3RugvwOIxYEu+iz2O8A7yxCM9Mz/G95BQtF68hZANABhSHlvgO965xjGOsDfJe3iHaRX5J/130k/+5J9z8xu8g4RiufWAAh4A/A4B31M7IYVhiNJwB+Bj3pnacBxwJfyKYehzfLtlp9Q9qf+GS4CPmpm5h0klE3SaFId7rZpng3A7GY21WHcUDF5V7dbgJW9szTgLuDzZnazd5A6kbQBaafINbyzNGA8sH488x8aIWk2fGYBpo1yGhhgXqdxQ8WY2STSDMAL3lkasAZpv4ATJXkdtV0bkhaRdCLp+f4qFP+XgB2i+IcmeNXC16MBCJVgZg8Bu1H2osAZBOwDPCjps/k2RmiCks8CD5J+llX4GRqwu5k94B0kVEo0ACEMx8wuoVp7qS8MnADcLKn0BWvFyD+rm0k/u4Wd4zTj22Z2kXeIUDmuDYDXgqVoAELTzOwHQNW2VF0fuFXSmZJW9Q5TKkmrSjoTuJXyDvIZzoXA97xDhEryqoWvxQxAqKJPkzZYqZJRwCeBeyRdEDMCM0laR9IFpN/pJ0k/qyq5H9gjVvyHFvXkLYB5nMYNFWdmLwM7AM95Z2mBgB2B2yVdImkj70BeJG0k6RLgdtLPpAr3+ft7kbTob5J3kFBZXrUw1gCEajKzR4BPAFXeS+JDpJ0Er5b0SUlzeQfqNElz5f+tV5N28vuQd6YRmA7sZmYPegcJlRZrAEJolpldAexNNZ4MGMoWwJnAU5JOlrR5nZ4cyCv6N5d0MvAU6X/rFr6pRsyA/cysxKOrQ7W4rQEYQ8wAhAozs99Lmgqcis+GVu00P7BX/npM0unAqVX9hClpBWBPYHdgaec47TQd2MfMTvEOEmrBbQYgGoBQeWZ2Zm4CzgTGeOdpk6WBw4HDJY0H/gpcBVxtZkWufZC0MLAlsBWwNbCib6KOmAZ82sxO9w4SaiMagBBGwszOzU3A2ZR7NGyrVsxf+wPTJf2DmQ3B9WY22SOUpHmBTZhZ8Nekeiv4m/EGaaOfs72DhFpxbQC81gDEUwChrcxsnKSdSfsEzOGdp0NGAWvnry8DJukJ0o554/M/Z/x5wkgP3MoHlYwlNSAr5K8Zf16Kaq7cb8VU4BNmdoF3kFA7XrXwtTGkx1g8xAxAaDsz+7OkjwLjgDm983SBgHfkr636/f9el/Q0MCl/vdTnzzO+AObr9zV/nz8vQf1mVJr1GvCx2OUvdIhXLXxxDDDRafBoAEJHmNlfJH2YdCTr3N55HM0OvNM7RMW9CuxoZpd5Bwm15VULJ44iGoBQQ2Z2FekZc5f746EWpgDbR/EPHRYNQAjtZmbXAh8gTX2H0IyXgW3N7ErvIKH2erIBiEWAoePM7EZgU+Cf3llCZUwANjezv3kHCT3BqxbGDECoPzO7G1iHdGJbCEO5GFjbzP7uHST0jJ6cAYgGIHSNmb1oZjsAX6Xa5weEzphG2nhpezN73jtM6CnRAITQDWb2I9KmNU97ZwnFeAbYxsyOiiN9gwO3BkCkx6Redgowbz7aNYSukvR20q6Bm3pnCa6uB3Y1sye9g4TeI2ke/J5UmmeUmU0hPevq4d1O44YeZ2b/IW2c8xPvLMHNT4Eto/gHR1418FUzmzJj326v2wDRAAQ3ZvaGmR0K7Ew8KthLXgJ2NrMvmdkb3mFCT1vOadyJMPPgjmgAQs/K+7uvC9zjnSV03N3AurGnfyiEVw2cpQF41ilENADBXT7G9qPEwtResASwt6TlvYOEgN8MwLMwswH4l1MIr//xISBpLUknAY8DPwaWcY4UOm8J0qOgD0q6WtJuknrh0KhQJq8a+C+Y2QA85hQiZgBCV0maTdInJd0A3AHsDczlHCv42AI4HXhS0rGSVnfOE3qPVwPwGPg3AO+SNJvT2KGHSFpS0ndIne+ZwEbOkUI5FgIOAu6SdIuk/4n3pdBpkuYgHePtYZYGYIJTiNHAWKexQw+QtKmks0kX/BHA25wjhbKtD/wOeFTSlyTN55wn1NcyzKzB3TYB/GcAIG4DhDaTNLekz0q6C7gW+DgwxjlWqJalgGOAf0v6Yd44KoR28lwDN8sMwOPAdKcg0QCEtpC0jKSfAk8AJwBxTzeM1AKkRYMTJJ0kaSXvQKE2vGrfdFLNTw2AmU0FvHbDigYgjIikxST9EhgPHAIs6Bwp1M/spAWj90kaJ2kN70Ch8rxmAJ7MNX+W+w8TfLLEo4ChNXmq/xvAP4EDgVi4FTpNpD0j7pR0pqT4ABNa5VX7Jsz4Q98GIB4FDJUgabSkfYGHge8BsVArdJuATwL3SzpOUiwuDc3yqn1v1voSGoBlJclp7FAxkj5C2rL3N0AszAreZgP2B/4p6UhJC3gHCuWT5PkE3IANwITu5wBgTmBJp7FDRUjaQNK1wIXAyt55QuhnbuDrwCOSvhy7C4ZhLI3fLcsJM/5QwgwAxDqAMAhJy0s6D7gJ2NQ7TwjDWBj4EWmx4PbeYUKxPG99DzgD8KBDkBliHUCYhaTFJR0H3Ec6rjeEKlkG+JOkiyQt6x0mFMfzQ++btb7/DMDk7mcBogEImaR5JB1BWtm/P7GBT6i27YB7JX0rbguEPrwagMkMNANgZgbc65GIuAUQgDxl+hDwHeJo3lAfcwLfJjUCH3bOEsrg9aH33lzrgbfuQ/x/XQ4zQ+yu1cMkzS/pZOBPxMr+UF/LAn+WdKGksc5Zgi+vhcyz1PhSGoD3SJrfaezgSNKWwN3AXt5ZQuiSjwD3SPq8d5DQfZIWAZZ3Gr7IBmAUsIHT2MGBpLkk/Rz4K+mRmBB6ybzA8ZKukPQu7zChqzYmbSTlYZYa33+BlVcDALAJcLnj+KFLJK0PnAqs6J2lZgyYQlroM+Nr0jD/N6SdFOfN/xzuz7N3539Kz3gfaTbgi2Z2sneY0BUbO449S41Xn/UA6V9I/wUW6Wai7Goz28ph3NAlkmYDjgAOA0Y7x6kiI53i9TBpsWTff/4LmGxmHT3VU9LspGZgQdI97RX6fC1P2t0sfretuRTY18ye8A4SOkfS9fg0ARPNbNFZsgzQAFwDbN7FUDNMARYwszccxg4dJuk9pE/9a3lnKdyMIt+/wD8EPGJmrzhmG1ZuEPo2Bsv3+XPs+Dm8F4AvmNmp3kFC+0maA3gRmMNh+L+Z2RZ9/8VAz1jfi08DMDewNnCrw9ihQySNAr5EOrTH46Iv3VTg78B1+esGM3vON1LrzOx14IH8NQtJ85Bu+2wIbEF6n1msm/kqYEHg9/nMi73M7CXvQKGt1sXvffAtj/kP1AB4rgPYmGgAaiMflfp7fO95lWYycDMzC/7NpX+qbxczexm4I38dByBpFVIzsAWpIVjcKV5pdgbWlLSLmf3DO0xom2Lu/8PAtwA2Ba7tVqJ+LjCz2Pa1BvIjTscA83hncfYscD2p2F8P3Bm3uQYnaWVmbQiW8MxTgFdJtwR+4x0kjJykPwFeZ0RsZmbXzZJngAZgAeB5fB5TeNrM4lztCpM0N3A6sKN3FkePAecAZ5vZ373DVJmklUjNwNbAh4G5XAP5OQP4XJ5FCRWUj71/Fp9F9gYsZGYvzpKpfwMAIOleYJUuBetvBTN7yGnsMAKSliLt5re2dxYHjwPnkor+Ld5h6kjSfMBOwO7AVrx1H5O6ux/Yxczu8w4Smpeb2fudhr/PzFbt/y8HewHd2OEwQ4n7xRUkaR3S+o1eKv5PAb8iHVP8LjP7YhT/zjGzSWb2ezN7P/AO0uLSO51jddPKwK2S9vAOElqyiePYA9b0EhsAzx9SaIGknUjrRnrhMa9ngf8FtgSWMrODzOx6G2gqLXSMmf3HzH5qZmsDqwJH0eeUsxqbBzhV0k/yEzahOjw/3A5Y0we7BbAiAzzG0yXjzSwOB6oISYcBR+K3tWU3GHAx6dP+lWY2zTlPGEC+x7oJ6RbBx4CFfBN13EXAp8zM6xj30ARJD+F38u1KZja+/78crAEQ8F9g4S4EG8hiZvZfp7FDA/KGLycCe3pn6aAppMcYf25mD3qHCY3L1+e2wBdIiwjr6h/A9mb2uHeQMDhJiwNPOw3/HLDoQLOUA04h5f/wpk6nGkKsAyiYpEWBK6lv8f8PcDjwTjPbP4p/9ZjZ62Y2zsy2JG08dCFpJqdu1iStC1jXO0gYkmdNu2mwW5RD3UOKdQDhLfJz2reQFr7VzT9ITc3SZnZUlXfkCzOZ2c1mtgOwGnAaULd9GN4O/C2vxQllKm4BIEQDEJog6f2kmaFlvbO0kZHupW5lZmuZ2WlmNtU7VGg/M7vXzPYk3Yc9DqjTDoxzA+dJ+pp3kDCg4hYAwiBrAODNfbtfYODtgjttKulgoDq9QCtN0v7AL/C5HjphKnAy8LOY4u9N+b7sF4ADgAWc47TTCcD+nT4ZMjRG0lykA4Bmcxj+DWDBwTaQGnQGIP+FuzuVahizAes5jR36kDRa0rGkT0x1Kf4XAKua2X5R/HuXmT1jZocD7wK+ht8irXb7HOlRwbq8XqtufXyKP8DdQ+0eOdxzpJ63Ad7nOHbgzW19LwIO8s7SJrcAm5rZzrHbZJjBzF4ys6OBsaTZgDo8gbQbcG5+GiL42tpx7CFr+HANwA1tDNKsjzmO3fNy8f8z8CHvLG3wKPAJM9vAzK73DhPKZGavmtmvgRWA44GqT6HvAPwpv5aDH89aNmQNH3QNAICkxUjTYl6bvLzHzN5yhnHorPyGcTHVf376BeD7wK/M7DXvMKFa8vbWxwHv9c4yQtcBHzazSd5Beo2kVRngGN4uMWAJM3t2sP9gyBmA/Bc999qOWYAuq0nxfx34OfBuM/tJFP/QinyS44bAvlT7tsCmwF8leW3s1ss8a9idQxV/aOw0rb+0KUwrdnEcu+fkJz8uodrF/zxgFTM7JJ7jDyNlyUnAiqTV9VW9LbAecI2kJbyD9BjPGjZs7W6kAbi8DUFatWreeCZ0WC7+FwObe2dp0RPAB83sY2b2T+8woV7M7Dkz+zzpdsCt3nlatBoxE9A1uXa95QjeLhq2djfSANwAeB42EbcBOqzPJ/+qFv/TSOtFPGerQg8ws9tJtwU+C0x0jtOKVYFLJc3rHaQHeNauyTSwiH/YBiDvinZNGwK1Km4DdFB+I7gU2Mw7SwueAXY0sz3N7AXvMKE3mNl0MzuRdFvgN1TvjIH1SU8HzOEdpOY8a9c1jexo2uh50p6frFbLxxOHNsvF/xKqua//eaTNfMZ5Bwm9ycwmmtnngO2o3iLBLYFzYrOgzsg1azXHCA3V7EYbAM91ABC3Adour/a/lOoV/+dIZ6B/LI6MDiUws0tIp/Jd552lSR8BTsnHv4f28q5ZDdXshhqAvF3qhJGkGaG4DdBGkkYBZ1C9Q5cuId3r/4N3kBD6MrMnSJ+qj6RaTwrsDvzSO0QNedasCY1ucd7oDAD4zgKsIWl5x/Hr5hjSLmFVMQnYx8w+bGb/8Q4TwkDMbJqZfQP4IGl9SlUcIOn73iHqIteqNRwjNFyrm2kAvFdYe0+p1IKkA4BDvHM04XZgNTM72TtICI0wsytIBeBq7yxNOFzSod4hasK7VjVcq4fcCniW/1BaEHgWvxPh7jSztZ3GrgVJ2wJ/AkZ7Z2nQ6cC+Zvaqd5AQmpVvtX0TOILmPmx52iea7ZGRdAewltPwbwCLNfpUVMMXZf6Gf201VRusJendjuNXmqQ1gbOpRvGfDnzZzPaI4h+qKj8u+B3SaXBVuXV1vKSq7gfiLtcor+IP8NdmHolutis9r8n/vt1iMWALJC1FOtmvCpt/vEA6uOQY7yAhtIOZXUN6SsD7aapGzEY6Rnhp7yAV5V2jmqrRzTYA40hTDF68761UTn7W/2JgKe8sDXgAWN/MLvMOEkI7mdkzpMWB3/XO0oDFgHFxjHBLPGvUG6Qa3bCmGoD83PU1zfydNltH0jKO41eKpNGkaX/PFamNuhh4r5k95B0khE7IBwt9i7SN8DTvPMNYE/itd4gqybVpHccI1zS7N0orC1PiNkB1HAts6x2iAT8APmJmL3kHCaHT8jbCOwOlr2/ZVdJh3iEqxLs2NV2bG34K4M2/IC1GWtDitZjsbjOrwidaV5IOpPx9wItPAAAgAElEQVQNPl4B9jKzs7yDhNBtkjYBLgIW9M4yhOmk5vxi7yClk3QXsLrT8NOAt5vZs838paZnAPIA1zb799po9VilOjRJ6wA/8c4xjP8AG0fxD73KzK4nbcX9hHeWIYwCzojzWIaWa5JX8Qe4ttniD60/m3pui3+vXb7gPH6xJM1Puu8/u3eWITwBbGFmd3oHCcGTmf0fsBFpAWypFgAulLSAd5CCedeklmpy07cAACQtATyJ3+YW04DlzGyC0/jFknQOZT8t8S9gSzN7xDtICKWQtAjpUd0NvLMM4RJgezOr0lkHHSdpLPAwfrfFpwNLmtnTzf7Flgp4Hsjz5KvRwIGO4xdJ0n6UXfwfBTaL4h/CrMxsImnDoJLvtW8LfM07RIEOxHeDtetaKf4wsk/w3k8D7C1pHucMxZC0BvBT7xxDeIhU/B/zDhJCicxsCumQrt85RxnKtyWt5x2iFLkG7e0co+VaPJIG4Hx8n2VdEPgfx/GLkTf7OQeY0zvLIB4ANjezx72DhFAyM3vDzD4DHO2dZRCzkRYFxoev5H/wfYpjGqkWt6TlBiAfy+q9Y9tBkuScoQQnACt4hxjEvaQFf1XZCz0Ed2b2NeA73jkGsTzwM+8Q3nLtOcg5xmUjeW8d6SI+71OjVgK2cc7gStI+wKe8cwziLlLxb+n+VAi9zMy+DRznnWMQ+0rawTuEs21INcjTiGpwS08BvPmXpdlIj3QtNpIQI3SpmVVht7u2k/Qe4FZgLu8sA/g7sI2ZPecdJISqykcKnwns6p1lAP8FVu/V2T1JlwAfcozwLLCUmU1t9RuMaAYgD3zaSL5HG3ywFzepkDQn6b5/icX/duB9UfxDGJn8yN0elHmS4KLA73rxNmyuOR90jnHaSIo/tOc5fu/bACXch/FwBLCyd4gBTCAd59vwmdQhhMHlN/mdgFu8swxgG/w3wfFwEKn2eBpx7R3RLYA3v4l0M/DeEX+j1k0G3mFmLzpm6BpJq5Om2Md4Z+nnRWAjM7vPO0gIdZM3C7qO8hr/14D1zOwe7yDdkHdEfByY1zHGLWY24k2j2rWTn/cswLz4P4vZFfme4ImUV/zfAHaJ4h9CZ+TNgrYB/u2dpZ85SI8GzuEdpEv2xrf4Q5tqbrsagLOBKW36Xq06MBfHujsIWN87xAA+b2ZXeocIoc7yXhrbkBbglWQ14MveITot1xjvXWinkGruiLWlYOZz3L13BlwG+Ihzho6S9C7g+945BnC0mXnPAoXQE8zsAdK2vJO9s/TzdUnLeIfosI+Qao2n83LNHbF2fmIuoQDUfTHK8fhPPfV3LnCYd4gQeomZ3QZ8Ehj5Iq72mQv4pXeIDiuhxrSt1rZlEeCb30x6CFiubd+wNWuY2d3OGdpO0idJzwOX5GbSyX6vegcJoRdJ+h7wDe8c/exoZuO8Q7RbXnx9l3OMh81s+XZ9s3bfMz++zd+vFYd4B2g3SQsDP/fO0c+jwEej+Ifg6lvAFd4h+vlFTc8KKKG2tLXGtnsGYH7S4xHzte2bNm8asJqZ3e+Yoa0knQJ82jtHHy+QHverzc84hKqStChwB/BO7yx9HJ3PM6gFSSsD9+B77O8k0uPubbn/D22eAcjBTmrn92zBaOCHzhnaRtLWlFX8pwMfi+IfQhnM7L/Ax4DXvbP08UVJq3iHaKMf4Fv8AU5qZ/GHNs8AAEgaCzyM/w9rMzO7zjnDiEgaQzpNr6ST/r5vZt/0DhFCmJWkA4Bfeefo429mtoV3iJGStAlpAyZP04DlzGxCO79p25+bzwEvaPf3bcGPvAO0wT6UVfxvptwjSkPoaWZ2HHCGd44+Npe0u3eINiihllzQ7uIPHZgBAJC0AXBT279x83Yxs/O9Q7QiL6J5GHibd5ZsErCmmT3iHSSEMDBJc5PODHiPd5bsaWDFqm7TLmknoIQasqGZ3dzub9qRnfNy0BIagKPyNHoVfZFyij/A/lH8QyibmU0Bdgbaeq94BJYAvuodohW5dhzlnQO4qRPFHzrUAGQ/6+D3btQKwL7eIZqVV/WWtK3mGWZ2uneIEMLwzOxBYC/vHH0cLGkJ7xAt2Aco4aj5jtXSjtwCAJA0mjSFPbYjAzTuadLiidK2zRyUpF8AB3vnyB4lTf2X8okihNCAwh4f/oWZ/T/vEI0q6BbsBFL9mtaJb96xGYAc+NhOff8mLAEc6h2iUXkv7c9758jeAHaL4h9CJX0ReMo7RPZ5SSXtUzCcL+Ff/AGO7VTxhw7OAABImo+0MdD8HRukMZNJXdTTzjmGJekM4FPeObIjzOx73iFCCK0paBEbwIlm9lnvEMORtDjp07/nhnaQ1nG8w8wmdWqAjh6fm4Of0MkxGjQvacvMoklai3TARwmuo4wFMCGEFpnZBZTTAHxGkvdZMY04Av/iD3BCJ4s/dHgGAN7sph4F5u7oQMN7A1g1L5ApkqS/kM769vYC6VClf3kHCSGMTF6Adz+wkHcW0oLiYvcGyA3KfcBszlGmAMvY/2/vzqPsqqo8jn83Ms+DIIOSSGxmFRQZwtAyKMpMGAQbBBpkCtiLNEgLtG2rEKYVFIEAEqXF1g6QxJElaRENkjCpgBAGSSAKYTJpQgYg0+4/zilSFJWkhvfuvsPvs9ZbVUBS91fFq7v3Pfeec9xfaedB2joCAJC/gWvbfZweWJG0nGMp5SV/y1D8AYap+IvUQ771WYaNbACONbPtokMswyXEF3+Aa9td/KGAEQAAM9uQNApQhh2iBrt7GdYoeAczuw/YJToHaRGR3byIN4aIFMbMfgXsH50DGOfuQ6JDdGVmO5POf9Hmkq7+X233gdo+AgCQv5EyjAJAOZZ1fAcz25NyFP/FwFkq/iK1dBrpgehoh5vZTtEhulGW2nBtEcUfCmoAsisox5tvDzM7NDpEF/8aHSD7nrs/FB1CRFrP3acBX4nOkX0tOkBnZnYg8I/ROUg18oqiDlbILYC3D2Y2HCjDHtFPAB9u5/zKnjKzLYEnAQuO8hqwZVGdp4gUz8wMmADsERzFgW3d/cngHJjZCsAjlGP/hEvdvbAmrcgRAIArKccowDaU56GYc4gv/pDm/Kv4i9RYvr03lHS7L5JRntVOz6YcxX8OqUYWptARAAAzu4RyDEO9SZrqFjYtMK/5/1dgtagM2Z+BHcswIiIi7WdmPwCOD44xj7TQzf9FBTCzQcCjxE9TBxju7hcUecCiRwAgdThtXdygh1YFvpeHf6KcSXzxBzhbxV+kUb4KzA/OsDqBm7Xl2yGjKEfxn03BV/8Q0AC4+0zKsUcAwO6k4Z/CmdmqpKG4aKPd/XfRIUSkOO7+HHBddA7grMAt24dSjgf/IK35P7PogxZ+CwDAzNYHpgLrFH7wd5sHfMTdpxR5UDP7InBjkcfsxlxga3d/PjiHiBQs34KcQvxeLUe7+21FHjBvuvZnyrE2zSxgi4gGIGT4O3+jZdlkZnVgVB4OKkQ+1rCijrcMl6j4izSTu/+dgGHnbhS6TXA+/95EOYo/wDciij8EjQAAmNnKwONAWTaHGOruhQyJmdlBwM+LONYyTAO2cve3gnOISJC87/0U0rbpkXZ29weLOJCZnQ6MLOJYPfAMaY+akOcxwh6Ay9/weVHH78ZlZjawoGOdW9BxluUKFX+RZnP3ucDXo3NQ0CiAmQ2gPCv+AZwXVfwhcATg7QBmvwH2Dg2xxF3uvl87D2Bm/wBE70j4CjDQ3d8IziEiwcxsJdLiaIMCYywgnZOmt/MgZjYe+FQ7j9ELd7v7PpEBIqfAdRhG/KIUHfbND+e10xfa/PV74tsq/iIC4O4LgAuDY6wEnNrOA+Rze1mK/2JK8BxY+AgAgJndBJwcnSN7Hdje3f/W6i+cHz6ZCgxs9dfuhdeBzd19VmAGESmRfG56CPhYYIwp7t6WZ8LM7APAY8TPeOgwyt1PiQ5RhhEAgIsox+JAkN4g7ZqetyexxR/gehV/EeksLxFc2CY0SzHIzHZr09e+kfIU/9mkmheuFA2Au78EDI/O0clnzOykNnzd6OH/t4CrgjOISDndDrwQnKHlyxPnc/lnWv11+2F4rnnhSnELAN5eGe9JYEB0luw10vSMljyUkr+/l4hd/Oh6dz8j8PgiUmJmdgFwcWCEGcAm+bmEfjOzzUjTzcuw6Byk6ddbu/ub0UGgJCMAAPkHcn50jk7WBW5o4dc7lNg34SLih/hEpNxuJG2UFmUD4LMt/Ho3UJ7iD3B+WYo/lKgBAHD30aS9qsviIDM7rkVfK3rnrVvdfWpwBhEpsbw64I+CY7TknGtmXwAObMXXapEJucaVRmluAXQws62Bh4FVorNkM0nbBvd5yVwz24h0by1q0wtI38OjgccXkQows4+SzsFR3gQ27s/Dyvmp/0eA9VqWqn/eAnZw9yejg3RWqhEAgPwDirwH1dX6wFgz609D8nlii/8dKv4i0hPu/gjw28AIqwJH9vUv53P1WMpT/AEuLlvxhxI2ANllwOToEJ18Ari2H38/evi/DBt+iEh1RG/Z3p/bACOBnVoVpAUmk2pa6ZTuFkAHMxsM/B4obJe+Hjjd3Xv1YKCZbUt6CjXKNOCDXtb/0SJSOmb2HtJGNQODIjgwoLcLspnZGUAhm7r1kAN7uPvE6CDdKesIAPkHVpYdmzpc3YeFKg5tS5Keu0XFX0R6w90XAdcERjDgmF79hXTR+O32xOmzkWUt/lDiEQAAM1ubNHyyWXSWTqYDH+/pQg5mNoG0AmCUrdw9evMhEakYM1sXeB5YIyjC79z9kz35g2a2CfAHYJO2JuqdF4Bt3f316CBLU9oRAID8gxsanaOLTYHb8g5ay5R/gdq1tGVP3K/iLyJ94e6vAT8JjLB7vghcpnwuvp1yFX+AoWUu/lDyBgDA3X8KjInO0cUe9GxJ3U8R+/T/DwKPLSLVFzlvfUWgJ9uzfwsY3OYsvTUm165SK30DkJ0NlG0Dm6FmdsJy/swBhSTp3nxif3lFpPruJC2LHmWZa/jndf7PLChLT80i1azSq0QD4O4vUq5lgjtcb2Yf7+4/5O01IzeguMPdZwQeX0Qqzt3nE3sbYKnLApvZTpTrif8O5+eaVXqVaACyG4Hx0SG6WJW0SNB7u/lvOwIbF5ynMw3/i0grRI4kvt/Mtu/6L81sQ9JiP6sWH2mZxtO+7eRbrjINQJ7KdhJpt6gy2RwYnefNdhY5/D8T+GXg8UWkPn5N7Hn3HaMA+Vw7GvhATJylmgGcVKVp15VpAADy1rynRefoxj68e6WnVu5o1Vuj89CdiEi/uPtC0tV2lK63Ui8H9o4IshyntWr7+KKUeh2ApTGz7wMnRufoxjHuPtrM1gdeAbqOChRlN3e/L+jYIlIzZrYvaSQgwnxgA3efY2bHEr9bYXdudveTokP0VlUbgLVIOz19MDpLF3NJ8/63A34clOEv7r5l0LFFpIbysPt0YKOgCIcBzwKTgNWDMizNs6TdVmdHB+mtSt0C6JB/0McDi6KzdLEGMA44NjDDLwKPLSI1lJcGvj0wwudJ59ayFf9FwPFVLP5Q0QYAwN3vBS6NztGNQcAhgcePGqYTkXqLnA1wNLBF4PGX5tJciyqpkrcAOuQlICdSrq0fIy0E1nP3OdFBRKRezGwF4EXibgOUzUPAYHdfEB2kryo7AgCQf/DHAfOis5TE/Sr+ItIO7r4YmBCdoyTmAcdVufhDxRsAAHd/Cjg3OkdJ3BUdQERq7XfRAUri3Fx7Kq3yDQCAu48kPSDSdGoARKSd1ADAuFxzKq/SzwB0lreNfADYKjpLkHmk+/9aAEhE2iLvcfIqsEF0liBPATuXfZvfnqrFCABA/h8yBGjqPfB7VPxFpJ3yMrf3ROcIMgcYUpfiDzVqAADcfTJwcnSOIBr+F5EiNPU2wMm5xtRGrRoAAHe/FRgRnSOAGgARKUITG4ARubbUSm2eAejMzFYkFcS9orMUZCawYZ6mIyLSNnk9gBnAutFZCjIB2DdvilQrtRsBgLd3rzqatHZ1E9yt4i8iRcjnmt9H5yjIdODoOhZ/qGkDAODuLwNHAZVeqKGHNPwvIkVqwm2ABcBRuZbUUm0bAAB3nwgMi85RgIeiA4hIozShATgn15DaquUzAF2Z2S2kJYPryIG1tQSwiBQlP2c1B1glOkub/NDdj48O0W61HgHo5FTgwegQbfI3FX8RKVK+J/6X6Bxt8iCpZtReIxoAd38DOBiYFp2lDR6PDiAijfREdIA2mAYcnGtG7TWiAYC3Hwo8EJgVnaXFarUwhYhURt0agFnAgXV+6K+rxjQAAO7+OHAkUKcpHWoARCRCnc49C4Ejc41ojEY1AADu/mvg9OgcLdSoN6yIlEadRgBOz7WhURrXAAC4+yhgeHSOFqnTL6GIVMfTQB0WIBuea0LjNGIaYHfytpb/Q1oxsKqed/cPRIcQkWYys2eAQdE5+uFW4BhvaCFs5AgAvL2t5QnApOgs/VCne3AiUj1VHoGcBJzQ1OIPDW4AANz9TeBQYGp0lj7S/X8RiVTVBmAqcGiuAY3V6AYAwN1fBQ4g7ahXNRoBEJFIVWwAZgIH5HN/ozW+AQBw96eAzwKzo7P0khoAEYlUtQZgNvDZfM5vPDUAmbs/ABwEVGkFqI9GBxCRRtslOkAvvAEclM/1QoNnASyNme0P/AxYOTpLD40Czmr6vSwRKY6ZrQ7cQHU2WZsPHOLud0YHKRM1AN0ws8NJ00NWjM7SQw+TVrGaEh1EROrNzLYCbge2j87SQwuBo919XHSQstEtgG7kN8qJVGeRix2AP5jZYdFBRKS+zOwo0m55VSn+i4ETVfy7pwZgKdz9v4EzonP0wjrAODO7Iu/VLSLSEma2kpl9izQyulZ0nl44I5/LpRu6BbAcZnYOMCI6Ry/dQ1rdanp0EBGpNjN7P6nw7xadpZeGuftV0SHKTCMAy5HfQF+NztFLewJ/NLO9o4OISHWZ2X7AH6le8f+qiv/yqQHoAXf/BnB5dI5eeh/wv2Z2Qd73QESkRyz5d+BOYMPoPL10eT5ny3LoFkAvmNllwJejc/TBL4EvuHsVVzsUkQKZ2QbALaTF0armcnc/PzpEVagB6KXcFX89OkcfTCNNFXwoOoiIlJOZ7QzcBmwenaUPvqor/97RLYBeym+wYdE5+mAAcK+ZVWlmg4gUxMzOJD1AXMXiP0zFv/c0AtBHZnYqMJJqNlE/Ak5197nRQUQklpmtAdwIfD46Sx8sJk31uzE6SBWpAegHM/sn4Gaqs2JgZ1NITcBvooOISAwz24dU/AdFZ+mDhaRFfjTPv4+qePVaGvmNdzRpnemqGQTcZWajzGy96DAiUhwzW8/MRgF3Uc3iP5+0vK+Kfz9oBKAF8gZC44DVorP00cvA2e5+W3QQEWmvvJzvd0hThavoDeBwbezTf2oAWsTM9gJ+QbWWyezqZ8CZ7v5CdBARaS0z2wy4DjgkOks/zCZt6TshOkgd6BZAi+Q35H5AlefaHwJMNrPTtXiQSD3kRX1OByZT7eI/E9hPxb91NALQYnmrzDuALaKz9NM9wBfd/anoICLSN/l89F3S8uBVNhU4QOej1tIIQIvlN+iuwKToLP20J/CImV1oZitFhxGRnsu7910IPEL1i/8kYFcV/9bTCECbmNmqwH+RZglU3Z+BU9z9geggIrJseTW/m4APR2dpgVuBE9z9zeggdaQRgDbJb9hjgOHRWVrgw8AkM7sqLxoiIiVjZmuY2VWkK+Y6FP/hpG3NVfzbRCMABTCzk4HrqeaCQV09B5zm7uOjg4hIYmafBm4ABgZHaYWFwOnuPio6SN2pAShI3lf7dmCd6Cwt8iPgQnd/LjqISFOZ2UDgYqq5jG93ZpE2Lft1dJAmUANQIDPbjrQ174DoLC0yn7SM6Dfd/eXoMCJNYWbvAy4CTgVWDo7TKtOAA9398eggTaEGoGD5F/fnwCeis7TQXOBq0l7cr0WHEakrM1sX+DLwJaBOz+M8CBysC4liqQEIYGarka6cj4vO0mKvAZcD33b3edFhROrCzFYH/oVU/NcNjtNqPyRtTPZGdJCmUQMQyMzOAkYAdZtn/xLpvuSN7l7FjZJESsHMViYN818IbBwcp9UWAOe4+7XRQZpKDUAwMxsM3AZsGp2lDZ4Dvgbc4u6LY6OIVIeZrQAcT/r9GRgapj2mA0e5+8ToIE2mBqAE8nMBtwJ7RWdpk8nARe4+LjqISNmZ2eHAN4Fto7O0yQTSVr663x9MCwGVQP5F2Jd0O6COtgXGmtkDeTqkiHRhZvuZ2QPAWOpb/EcA+6r4l4NGAErGzI4GRgFrRmdpo7uBC9z9vuggItHMbFfgEmDv6CxtNAc42d1vjQ4iS6gBKCEz25Z0FbBVdJY2+zkwwt1/Gx1EpGhm9klgGHBwcJR2ewoY4u6To4PIO6kBKCkzWxu4GTg8OEoRHgOuJT0sODc6jEi75L00jgeGAtsHxynCOOBEd389Ooi8mxqAkjOzM4ArgdWjsxRgFqnpuc7dnw7OItIyZrYlcCZwIvVZDnxZ5gHnuvvI6CCydGoAKsDMtiItlrFTdJaCODAeuAa4Q1MIpYryVL4DgLOATwMWm6gwDwHHuftT0UFk2dQAVISZrQT8B/BvwHuC4xTpWeA64HvuPjM6jMjymNn6wD+Trvg/GBynSIuAS4H/dPcF0WFk+dQAVIyZ7Q7cQrNOLABvAD8GrnH3P0WHEenKzHYkXe0fC6wWHKdozwLHu/u90UGk59QAVJCZrUXafOfE4ChRJpJuD9yuKw2JlEfmjiQV/sHBcaLcDHzJ3WdHB5HeUQNQYWZ2BHADsEF0liAvkTZVusHdp0eHkeYws02B00jr9Ndtjf6emgGc5u5jooNI36gBqLh8Ivo+6SGjploE3AOMAca5+wvBeaSGzGwz0rTcI4A9adazOF2NB05S411tagBqwMyMdCVyGc2YYrQsDtxPagbGuvvU4DxSYWa2BTCEVPR3oTlP8i/NLOB80k6fKh4VpwagRsxsE+A7pJOVJA+TmoEx7v5EdBgpPzPbhvQ7dASwQ3CcMhkDnO3uL0YHkdZQA1BDZnYoaWW9zaKzlMwTLBkZ0EwCeVt+gr/jSn+b4Dhl8wIw1N1/Gh1EWksNQE3lpYSHA2egYcvuPEseGQDu13Bms+TbZruw5Eq/adNqe8KBkcBXtJRvPakBqDkzGwx8l/puL9oKL5DWLB8D3OPui4LzSBuY2XtID+8dQXqYTyNkSzcZ+KK7T4wOIu2jBqABzGxl0oM7FwKrBMcpu9eB+0hrDUwkjQ7o6qeC8ijYLqT5+YOBXYG1Q0OV31vAxcBl7j4/Ooy0lxqABjGzrUnrBuwVnaVCFpN2K5wITAImuvszsZGkO2b2IVKh3y1/3B5YITRUtUwgzet/MjqIFEMNQAOZ2edIUwYHRGepqFfIzUB+PeTub8ZGahYzW5W0OVbH1f1uwEahoaprGnC+u4+ODiLFUgPQUPkEeg7wFWCt4DhVtwD4I0sagklajKi18iI8HVf2g4GPASuFhqq+2aQHha9SA9tMagAazsw2Br4JnISGS1vpr6RRgqeAKR0vd38pNFXJ5ffjoE6vrUiFf/PIXDWzmLR66EV6PzabGgABwMx2AEYAe0dnqbl5LGkIpnb6fAowre6bG+XNcwbwziK/RafPV49L1wh3A8Pc/eHoIBJPDYC8g5kdBlwBfCg6SwMtIo0cTOnymkoaPajEbmt5t8quhb3jtTnNXkM/yjPAee7+k+ggUh5qAORd8rTBs4F/R3sLlMkM0lrsc4E5XT729XOANYE18quvn3d8XIfm7k5ZRrOAbwDf0bQ+6UoNgCyVma0PDAO+hB4UFKmS2cDVwAh3nxkdRspJDYAsV24EziWNCqwZHEdElm4OaUOwK1X4ZXnUAEiPmdkGpEbgLNQIiJTJHOAaUuGfER1GqkENgPSamb0XOA8YSrrvKyIx5pJ2/rzC3f8eHUaqRQ2A9JmZbciSRkDTt0SKM48lhf/V6DBSTWoApN/MbCPSrYHT0GYrIu30Omk/jyvd/ZXoMFJtagCkZfL871NIswYGxqYRqZXnSE/131SV9SCk/NQASMvlfdeHkPYa2C04jkiVTQKuAsa6+6LoMFIvagCkrcxsV9JaAkPQCnAiPbEIGEuaw39fdBipLzUAUggzG0i6NXAKWlRIpDuzgZuAq939ueAs0gBqAKRQZrY2qQk4A+03IAJpnf6RpPv7r0eHkeZQAyBhzGwv4GTgSDSNUJplHnA7MMrdJ0SHkWZSAyDh8qjA50jNwC7BcUTa6X5gFDBaV/sSTQ2AlIqZbUtqBI4HNgyOI9IKrwK3kK72J0eHEemgBkBKycxWAg4iNQOfQTMIpFoWAb8iXe3/wt0XBOcReRc1AFJ6ZrYJcATpWYE9gRViE4l0azFwD+ne/hh3fzE4j8gyqQGQSjGz95HWFDgK2AuNDEisRcAE4DbSYj0vB+cR6TE1AFJZeTOiIaSRgU8CK4YGkqZYCPyWdKU/VpvxSFWpAZBayFsUH0ZqBvZFzYC01kLgLlLR/4m23pU6UAMgtWNm6wL7APsDn0YbE0nfPAeMB+4EfuPur8XGEWktNQBSe2a2JakR2J90q2DN0EBSVnNIQ/t3AuPd/enYOCLtpQZAGiVPL9ydJQ3BjoCFhpIoDvyJXPCBezVdT5pEDYA0Wn6QcF9SUzAY+Ah6fqCuFgKPAhOBe4G79ACfNJkaAJFOzGwN4BOkZmAwsBuwfmgo6auZwCRSwZ8IPOjuc2MjiZSHGgCRZTAzA7ZkSUMwGNgG3TYoGweeYEmxnwg87TrBiSyVGgCRXjKzdUi3CrbPr+3yxw0iczXIDOAx4PH88THgUXefFZpKpGLUAIi0iJltzJKmoHNzoFkHfTOHdxb5x4DH3P2l0FQiNaEGQKSN8i2EAaTbCANIaxIM6PT5pjR3b4PFwHTSfAhMi7AAAABtSURBVPtp+dXx+dPANA3hi7SPGgCRQHla4vt5d3OwOWk75A3ya9WgiH31JmmofgZpO9y/8u4i/7ym3YnEUQMgUgFmtjpLmoGlvdYBVgFW7vRa3j8DzO/0eqsH/zyLJcW925e7z2vHz0FEWuf/AZV7Nj53ZWs4AAAAAElFTkSuQmCC;" parent="31" vertex="1">
                    <mxGeometry width="40" height="40" as="geometry"/>
                </mxCell>
                <mxCell id="35" value="" style="group" parent="1" vertex="1" connectable="0">
                    <mxGeometry x="480" y="360" width="130" height="120" as="geometry"/>
                </mxCell>
                <mxCell id="1IeDb5znmRSKNsiSBcxb-19" value="" style="rounded=1;whiteSpace=wrap;html=1;direction=north;fillColor=#f0a30a;strokeColor=#BD7000;fontColor=#000000;arcSize=6;" parent="35" vertex="1">
                    <mxGeometry width="130" height="120.00000000000003" as="geometry"/>
                </mxCell>
                <mxCell id="AMFxu56TiPVlmdi-GPnY-23" value="&lt;span style=&quot;font-size: 19px; font-weight: 400;&quot;&gt;Pesan Tiket&lt;/span&gt;" style="text;html=1;strokeColor=none;fillColor=none;align=center;verticalAlign=middle;whiteSpace=wrap;rounded=0;fontFamily=Tahoma;fontStyle=1;fontSize=26;" parent="35" vertex="1">
                    <mxGeometry x="10.83333333333333" y="77.64705882352943" width="108.33333333333331" height="35.294117647058826" as="geometry"/>
                </mxCell>
                <mxCell id="93" value="" style="shape=image;verticalLabelPosition=bottom;labelBackgroundColor=default;verticalAlign=top;aspect=fixed;imageAspect=0;image=data:image/png,iVBORw0KGgoAAAANSUhEUgAAACAAAAAgEAQAAACJ4248AAAAIGNIUk0AAHomAACAhAAA+gAAAIDoAAB1MAAA6mAAADqYAAAXcJy6UTwAAAACYktHRAAAqo0jMgAAAAlwSFlzAAAAYAAAAGAA8GtCzwAAAAd0SU1FB+cFCQkBB/rT3g0AAAHzSURBVFjDxZa/TgJBEMa/NZZAYYOdVjwACZBAQZAKfYPjAaQ1mJwQCgwJ5OKb3AtYaEWhtbwH4SJYmFzms5hwh4r8UVymIruz8/tm2J0bYIdGub6m3N3tMuZ28LnZFkG2Wkp+fSXHY/09GOwBXiqR2aw1EV/humYMORrpuutahQMAJZ/X9acn0hircN1zHN3zPOtw3b+40Jfg+9bhAEBJJskgIMOQrFbjs8aQrkvp93cGpxQKZLn83bfRUN8wpPg+6XmU5+e4T2wpYvltPz4mg4Aym5Gnp98rcXmplVi00Sh6opuKWH3hmk3y9vbHs5JIkOfnZL1OyeX0b1joE+tERO1VZrNlpY79UinK4yNZqaxPqFjUZEhKp/NnuAat19X34cE6PA7uOJRUSs+fnFiFfwZ1u+TbG3l2Zh2usKsrfR2FgnV4HCud3ht8L2X/NRzAIXB0BAAw7+/AdEoaA+ZyQCYDM5mAw6E5mE43h5dKwP09kEwC7bY52GAoofT72u3G43iYmFsQkI3GpvAoc7Za25UtEjEfJjxPPyRhqGurRfwJ/lmE6y5OMmS1qiKCgJJI/Bt8tTDf1+C1mnW4QjxPAY6zB7gx0TAh+bxVuIJubhTy8jK/G9bgwNcnms1ahS8XYRkeiWCvFw+Vq9vrP1dit5l/AJ+Kl+v5IG1yAAAAJXRFWHRkYXRlOmNyZWF0ZQAyMDIzLTA1LTA5VDA5OjAxOjA3KzAwOjAwe+UXjgAAACV0RVh0ZGF0ZTptb2RpZnkAMjAyMy0wNS0wOVQwOTowMTowNyswMDowMAq4rzIAAAAodEVYdGRhdGU6dGltZXN0YW1wADIwMjMtMDUtMDlUMDk6MDE6MDcrMDA6MDBdrY7tAAAAAElFTkSuQmCC;" parent="35" vertex="1">
                    <mxGeometry x="30" y="10" width="70" height="70" as="geometry"/>
                </mxCell>
                <mxCell id="39" value="" style="group" parent="1" vertex="1" connectable="0">
                    <mxGeometry x="475" y="680" width="170" height="120" as="geometry"/>
                </mxCell>
                <mxCell id="1IeDb5znmRSKNsiSBcxb-21" value="" style="rounded=1;whiteSpace=wrap;html=1;direction=north;fillColor=#1ba1e2;fontColor=#ffffff;strokeColor=#006EAF;" parent="39" vertex="1">
                    <mxGeometry width="130" height="120.00000000000001" as="geometry"/>
                </mxCell>
                <mxCell id="AMFxu56TiPVlmdi-GPnY-26" value="&lt;font style=&quot;font-weight: normal;&quot;&gt;&lt;font style=&quot;font-size: 16px;&quot;&gt;Status Perjalanan&lt;/font&gt;&lt;br&gt;&lt;/font&gt;" style="text;html=1;strokeColor=none;fillColor=none;align=center;verticalAlign=middle;whiteSpace=wrap;rounded=0;fontFamily=Tahoma;fontStyle=1;fontSize=26;" parent="39" vertex="1">
                    <mxGeometry x="-13.999999999999998" y="90" width="159.17" height="22.35" as="geometry"/>
                </mxCell>
                <mxCell id="106" value="" style="shape=image;verticalLabelPosition=bottom;labelBackgroundColor=default;verticalAlign=top;aspect=fixed;imageAspect=0;image=data:image/png,iVBORw0KGgoAAAANSUhEUgAAACAAAAAgEAQAAACJ4248AAAAIGNIUk0AAHomAACAhAAA+gAAAIDoAAB1MAAA6mAAADqYAAAXcJy6UTwAAAACYktHRAAAqo0jMgAAAAlwSFlzAAAAYAAAAGAA8GtCzwAAAAd0SU1FB+cFCQkHDtVVwS8AAAVHSURBVFjDrVdrSFRdFF17NF+Tg5aPgkSIUirUHyommaXSA8wEo36VCSIaRj+yIsKQQBIjIijCCM0KUpPsYdNolGQESmqIGKFUPhI1S+2F4uus78f5/HyUw4x+BwbunXPuXuustc/e9wILDNJopLp3jxwdpV1jfJysqqJyd8diB2k0krW15MgImZJi17PK2Zl89Ig8csSW9Y5/gru5AZWV4IcPkM5Oe8mLYWyMbGkBV660Zb3hT/AnT8CODkhaGqDUomW0cfxHgDQaAYsF/PgRkpYmMhecLCsjh4as/tSOHfYScJwBf/oUbG+HpKfPB9cMkpMhbm7W5R8etpsA6eCgPXd3B8rLwdhYKgDi5ARERgJ37ujoXl7AqlULhyKpRkbEMDZmpwJRUWBQENDcDJw8OTM1OQlcvy5SU6Pvz5wBIiKsRpOsLKC21j4CNJkgdXUie/dajS2ZmfbKa6MCCw9tz86dIhYLVUICZONGa6vBu3fF0NOzaAKkCGgyieHHD9JgAAoLAW9vwGKB+PgAnp5Wo4nJtEQF/P0h9fVUiYlARgbo5wdJSAAAkcLCv+5bOTlB1q8HPDzA8XGt2iIJiHR2kqmpwIsXYEMDJD5eZGREA2VnA8HBc3fs6gps2QL09QHfvwO+voDRCAwNASUli1AAEDGbyfBwoKtrGlyPqiqgrU1f798P2b0byMsDzp8HQkIADw+gtxdobwcOHoSkp1M9eyaGN2+sMqBKSCAfP7ZVMqo9e8ieHqqoKLK0lPzyhayooPr9mywpIQcHyfx8MjGR7O8nAwMXTYAqPJzUdUC35qEh3Z5jY8mmJrKggHRzo/L1Jfv79TovL9Ji0WQyMsjXr63hz2tGq1eTOTmkgwMZGgqprAQvXdKzhw6BeXnA/ftAXBzY2SmSkTHXJkAM374BBQXAgQM6Fzw8qKKjbVKAdHGhev5c9/P+fnKmOFGtWUO+fEnu3atl37BhZk4rQBUQQFZWkm1tVBcv6lhnz1JduGCzBaSrK1lcPBtc/3/1KjkxQW7bRvb2zo3h66vnBgbIrCwqJydyxQptWVISWVFhkwUAIDI6KpKSIjI3L0SOHtVZrunMfWpwUHfTnz/BtjYxjI+Dk5OAoyM4MQE4OtpMYO6uHRzIxMRppQAHB9DFBXBzo/Lzm/F9clIkMRHIzITk55PV1UByMtDaCgkIALq6bExCEdLDQ18bDEBREZierlG8vcGWFl0Zy8ogszvnNJHqajAkBDSbIZcvA7dvA0lJgMViUw5Q+fvrZIqIIG/e1Enk6jpD0NOT7OsjIyPJri4yK0sTnR3PyYksKiJfvdL+v3tntTz/mYTx8bqo1NTod8TpddnZuhZ0d5OtrZpEUxPZ2KiPbmoqmZur5x88oIqO1kWpqooqJIQU+Rv+AqU4LAzo7v5rKWZ5OSQsDCgtBU+cgIyPA9u3A+vWAT09wOHDQHAwxGwGHj7U12/fAteukceOicxLYHtL8YxSMTFU9fXakooKqhs3SLOZHB7WdeLWLaqvX8lPn8jNm/U3xpUr85UQql27gFOnxBAXZy8JTWTtWjA0FOLpCfb2Ag0NkNOndYfctw9oaAA3bYJ0dYGBgZDGRmBGiX+zvrkZeP8e/PVrMSTmerhsGRgVBcTEAAMDkJoaYGwMCA8Hly8HqqtnkxC9C09PYOtW0Nl56QSmpsCGBjF8/qwt9vHRJMrLRc6dozKZgOpqoK5ODMePLxnPJpuUj48+OTk5+t5kIjs6qIKCHJca3CZRDAMDVLGxkJoaKmdnoLgYnJqC2Pf69j8pYTbrU5KbCwD/ADR9rsOCGW/aAAAAJXRFWHRkYXRlOmNyZWF0ZQAyMDIzLTA1LTA5VDA5OjA3OjE0KzAwOjAwi7l9ygAAACV0RVh0ZGF0ZTptb2RpZnkAMjAyMy0wNS0wOVQwOTowNzoxNCswMDowMPrkxXYAAAAodEVYdGRhdGU6dGltZXN0YW1wADIwMjMtMDUtMDlUMDk6MDc6MTQrMDA6MDCt8eSpAAAAAElFTkSuQmCC;" parent="39" vertex="1">
                    <mxGeometry x="35" y="20" width="70" height="70" as="geometry"/>
                </mxCell>
                <mxCell id="52" value="" style="group" parent="1" vertex="1" connectable="0">
                    <mxGeometry x="475" y="510" width="130" height="131" as="geometry"/>
                </mxCell>
                <mxCell id="54" value="&lt;font style=&quot;font-size: 19px; font-weight: normal;&quot;&gt;Trainer&lt;/font&gt;" style="text;html=1;strokeColor=none;fillColor=none;align=center;verticalAlign=middle;whiteSpace=wrap;rounded=0;fontFamily=Tahoma;fontStyle=1;fontSize=26;" parent="52" vertex="1">
                    <mxGeometry x="10.83333333333333" y="77.64705882352943" width="108.33333333333331" height="35.294117647058826" as="geometry"/>
                </mxCell>
                <mxCell id="48" value="" style="group" parent="52" vertex="1" connectable="0">
                    <mxGeometry x="-115" y="11" width="130" height="120" as="geometry"/>
                </mxCell>
                <mxCell id="49" value="" style="rounded=1;whiteSpace=wrap;html=1;direction=north;fillColor=#1ba1e2;fontColor=#ffffff;strokeColor=#006EAF;" parent="48" vertex="1">
                    <mxGeometry width="130" height="120" as="geometry"/>
                </mxCell>
                <mxCell id="50" value="&lt;font style=&quot;font-size: 19px; font-weight: normal;&quot;&gt;Bantuan&lt;/font&gt;" style="text;html=1;strokeColor=none;fillColor=none;align=center;verticalAlign=middle;whiteSpace=wrap;rounded=0;fontFamily=Tahoma;fontStyle=1;fontSize=26;" parent="48" vertex="1">
                    <mxGeometry x="10.833333333333336" y="77.64705882352942" width="108.33333333333336" height="35.29411764705882" as="geometry"/>
                </mxCell>
                <mxCell id="102" value="" style="shape=image;verticalLabelPosition=bottom;labelBackgroundColor=default;verticalAlign=top;aspect=fixed;imageAspect=0;image=data:image/png,iVBORw0KGgoAAAANSUhEUgAAACAAAAAgCAYAAABzenr0AAAABHNCSVQICAgIfAhkiAAAAAlwSFlzAAAOxAAADsQBlSsOGwAAABl0RVh0U29mdHdhcmUAd3d3Lmlua3NjYXBlLm9yZ5vuPBoAAAOTSURBVFiFrZZLaFVXFIb/naBR46Px3VscdGCjmVSJ2PiipdB0UHRUxLbEiSUZtR2kipNOBAVFKIH6Al8jLThqKa3QB6UQrRbqq4IIQU2aqlFaa40mJuZzsNfB7e09Z59zdU/uPXv96//XOXvttZZTxgKmS3pH0mpJTZLmSqqXdENSn6QfJX3lnDubxVN4AdOArcAgT6+7wF/Ao7L9n4HXnpd4i4kA3AP2AK3A5ABTCzQCnwLnDTsG7ABqn0X8XeCBER4EXszhUwO0AbfM7xugrhrxFhN/CHRU4f8y8EcSfFHnacFnrygOTABWAGuAl1Iwc4Fe49lQJIBt5nQoxb4U6AmSbsSS1FXALrEkvR7mTZb4dMv2e5XOHHgB+NOEvwa6gvP+MIXzsNk35gmgzcB7UuwfmP1AsPeq7Z1K8Vlo9t/yBHDMwG+n2JuBdqAx2HP2xW5m8F7CX81SLIALFkD8vJ74rDOf4xmYA4Z5M0b2N/BvAfH3gGFLxGUZuC0WwDZgXBbhMNCfU7zdMnwEWB/Bbg5uzXWgk0oFCriJL0D/u1IVsN8Z4fs5sF2GPQ2M2v8zYS5JUo2ky5ImSHolRhqs33NgFthvh3wn/UHSIkm/AE1hpNstuo9ijMBkoIFIwwGmAEPAQILF94zPTesKMDUBN9vm2dgxAPX4wlQTwbUb58GyfQd8aba9oeGkbbZFiI8bbkEGZhLQb8m6qIK9AbhtyT8veZP99vtGVgCSeiSdkzSUgdklqSTpSKVJyTn3j6TdksZLakui2mdvti4SQOYCPjOeq8DsDFxSyn9KNq7aJ5tpzzOA+QWE64FDRvpfpU9fhnck9Qc/WgH04avXr3ZvHwH7I+c9BeiwMwe4FhMPfPuBYQd8LKmrzN4raZKkmfZ8QdJJSf2SRiXNkb/nr0uqkzQm6YikTufcQM4A7kgaE36GGwS+BT5J3hg/JW0CLpK+BvBNZ3Ee0UC8ZP5nBCwnMkSaw2qeFK1TwGKqnICBDcbzRVHHcfjGMgoUKd0hRy1wzgJYWQ1Bpzl/T6QipvivNf/uwuJGUIfvauBre7SLlvm3mG/qMJOHpBHfxsHX9oYIvtbevAUYjx+C7gMTnyWIJnxXA1/bt+ArnAswJUu45Mwx8bv2v7XqAExgKrAXX9WSNYQf4+/w9OrGN7P7wd7OQueXEcg8+cbylvxgM0vSoKQrkk5IOuqc6zbsREmrJLVKKj0GPQ75fDSwkusAAAAASUVORK5CYII=;" parent="48" vertex="1">
                    <mxGeometry x="35" y="17.650000000000006" width="60" height="60" as="geometry"/>
                </mxCell>
            </root>
        </mxGraphModel>
    </diagram>
</mxfile>